<?xml version="1.0" encoding="UTF-8" standalone="no"?>
<!-- Created with Inkscape (http://www.inkscape.org/) -->

<svg
   width="1000"
   height="1000"
   viewBox="0 0 264.58333 264.58333"
   version="1.1"
   id="svg5"
   inkscape:version="1.2.2 (b0a8486541, 2022-12-01)"
   sodipodi:docname="agrarian_socialism.svg"
   xml:space="preserve"
   xmlns:inkscape="http://www.inkscape.org/namespaces/inkscape"
   xmlns:sodipodi="http://sodipodi.sourceforge.net/DTD/sodipodi-0.dtd"
   xmlns="http://www.w3.org/2000/svg"
   xmlns:svg="http://www.w3.org/2000/svg"><sodipodi:namedview
     id="namedview7"
     pagecolor="#ffffff"
     bordercolor="#000000"
     borderopacity="0.25"
     inkscape:showpageshadow="2"
     inkscape:pageopacity="0.0"
     inkscape:pagecheckerboard="0"
     inkscape:deskcolor="#d1d1d1"
     inkscape:document-units="px"
     showgrid="false"
     inkscape:zoom="0.52787981"
     inkscape:cx="109.8735"
     inkscape:cy="496.3251"
     inkscape:window-width="1920"
     inkscape:window-height="1004"
     inkscape:window-x="0"
     inkscape:window-y="0"
     inkscape:window-maximized="1"
     inkscape:current-layer="layer1" /><defs
     id="defs2" /><g
     inkscape:label="Layer 1"
     inkscape:groupmode="layer"
     id="layer1"><circle
       style="display:inline;fill:#d00100;fill-opacity:1;stroke:#009900;stroke-width:5.29167;stroke-dasharray:none;stroke-opacity:1;paint-order:normal"
       id="path236-3"
       cx="132.29167"
       cy="132.29167"
       r="125.37917" /><path
       style="fill:#ece710;fill-opacity:1;stroke-width:0.322335"
       d="m 124.87795,230.4709 c -3.93568,-0.36893 -9.35316,-1.22579 -13.8604,-2.19224 -5.12741,-1.09945 -14.352387,-3.5594 -15.114661,-4.03052 -0.333928,-0.20637 0.206473,-2.01379 2.476191,-8.28179 3.5656,-9.84666 6.12538,-17.76749 7.35518,-22.75936 0.83604,-3.39361 1.00455,-3.78272 1.64026,-3.78743 0.63059,-0.005 0.67579,0.0922 0.41108,0.88115 -1.04454,3.1133 -10.29653,32.4195 -10.373074,32.85731 -0.06847,0.39141 0.324195,0.67074 1.434688,1.02074 0.840901,0.26503 1.614616,0.39615 1.719386,0.29139 0.17596,-0.17597 7.75777,-25.26787 9.6939,-32.08183 0.46714,-1.64405 0.90919,-2.92934 0.98232,-2.85621 0.0731,0.0731 -2.13533,8.0113 -4.90769,17.64035 -4.5474,15.79419 -4.98909,17.54508 -4.51376,17.89266 0.52468,0.38366 2.71707,0.91288 2.9241,0.70585 0.0598,-0.0598 2.01007,-7.72059 4.33392,-17.02395 5.06543,-20.27914 4.84461,-19.43474 5.0332,-19.24616 0.47453,0.47455 -4.26148,21.31379 -7.11795,31.32022 -0.80646,2.82508 -1.35535,5.23231 -1.21978,5.34941 0.46851,0.4047 3.94685,1.22829 4.10523,0.97203 0.35712,-0.57784 5.59041,-29.82292 6.47731,-36.19714 0.12902,-0.92718 0.37741,-1.53109 0.62977,-1.53109 0.23364,0 0.35717,0.24784 0.28116,0.56409 -0.68842,2.86464 -6.86395,37.28829 -6.7161,37.4369 0.10709,0.10769 1.06651,0.35465 2.13204,0.54893 1.4045,0.25607 1.97141,0.25607 2.06124,0 0.12745,-0.3634 2.74145,-19.44826 4.15425,-30.33038 0.46741,-3.60029 0.72635,-4.99517 0.62827,-3.38451 -0.25504,4.18856 -1.9662,19.32516 -3.05714,27.04288 -0.5362,3.79332 -0.85841,7.00798 -0.71603,7.14367 0.4788,0.45631 4.33367,0.88573 4.4653,0.49741 0.17314,-0.51076 1.33524,-16.04461 1.90748,-25.49742 0.80582,-13.31151 0.86501,-14.02157 1.16872,-14.02157 0.16074,0 0.29068,0.76152 0.28876,1.69226 -0.004,1.9921 -0.95214,15.92301 -1.97371,29.003 -0.39777,5.09299 -0.65957,9.32005 -0.58176,9.39345 0.0778,0.0735 1.1568,0.18542 2.3978,0.2489 l 2.25634,0.1155 0.19643,-13.53807 c 0.10807,-7.44595 0.21683,-16.54788 0.24176,-20.22653 0.0324,-4.78492 0.15042,-6.68845 0.41463,-6.68845 0.36945,0 0.25358,14.97707 -0.25762,33.29688 l -0.20506,7.34891 2.22245,-0.0964 2.22243,-0.0964 0.083,-20.22653 c 0.076,-18.53326 0.12744,-20.22651 0.6139,-20.22651 0.48873,0 0.52054,1.60688 0.40051,20.22651 l -0.13042,20.22653 h 2.09519 2.09517 v -5.9632 c 0,-3.27976 -0.11805,-12.38169 -0.26224,-20.22652 -0.26069,-14.17959 -0.25841,-14.26332 0.38854,-14.26332 0.64704,0 0.64966,0.0975 0.45623,17.00317 -0.10696,9.35173 -0.0855,18.43607 0.0476,20.18739 l 0.24211,3.18424 2.08004,-0.16696 c 1.14402,-0.0919 2.16869,-0.25562 2.27704,-0.36398 0.1083,-0.1083 0.0247,-2.62652 -0.18579,-5.59594 -0.46835,-6.60561 -0.91061,-16.41628 -1.19879,-26.59247 -0.1877,-6.62845 -0.15304,-7.65545 0.25841,-7.65545 0.60583,0 0.88785,3.30973 0.89265,10.47589 0.006,9.02855 0.91769,28.92341 1.34388,29.32727 0.14559,0.13796 4.45263,-0.68725 4.6578,-0.89242 0.09,-0.09 0.005,-1.03892 -0.18911,-2.10875 -0.55913,-3.08334 -1.61175,-11.40292 -1.57723,-12.46571 0.0173,-0.53184 0.22515,0.48351 0.46195,2.25635 0.63092,4.72379 1.788,11.55018 2.0265,11.95576 0.14691,0.24982 0.80124,0.21762 2.25863,-0.11111 l 2.05182,-0.46282 -0.17333,-1.01705 c -0.0954,-0.55937 -0.53785,-2.97522 -0.98338,-5.36856 -1.12446,-6.04055 -2.28442,-14.0417 -3.24773,-22.40229 -0.44939,-3.90024 -0.88279,-7.56277 -0.96311,-8.13895 -0.10648,-0.76368 -0.0205,-1.04759 0.31718,-1.04759 0.25479,0 0.46325,0.18132 0.46327,0.40292 1e-5,0.2216 0.64791,5.4797 1.43973,11.68464 1.46657,11.49216 3.58138,24.95709 3.98481,25.3712 0.22964,0.23572 3.56726,-0.60744 4.00947,-1.01289 0.13613,-0.1248 -0.18124,-2.0302 -0.70526,-4.23423 -1.53627,-6.46156 -3.16947,-15.30197 -4.37821,-23.6988 -1.26325,-8.77565 -1.23769,-8.51284 -0.82808,-8.51284 0.16453,0 0.39211,0.83404 0.50575,1.85342 1.19569,10.72616 2.90013,20.94582 4.85163,29.09 0.61607,2.57103 1.18392,4.84949 1.2619,5.06326 0.18662,0.51159 3.07396,-0.43412 3.07396,-1.00684 0,-0.21801 -0.36789,-1.61862 -0.81753,-3.11246 -2.15222,-7.15024 -4.21846,-16.49792 -5.26723,-23.82901 -0.9304,-6.50361 -1.08093,-8.05837 -0.7802,-8.05837 0.15003,0 0.67842,2.57465 1.17419,5.72144 1.4831,9.41358 5.44413,27.64857 6.31029,29.05005 0.24425,0.39519 3.08231,-0.39664 3.42833,-0.95652 0.0993,-0.1607 -0.61453,-2.72178 -1.58636,-5.69127 -2.96098,-9.04753 -5.69636,-19.29472 -6.6684,-24.98093 -0.20458,-1.19667 -0.50212,-2.17576 -0.6612,-2.17576 -0.36716,0 -0.39773,-0.29407 0.37321,3.59143 1.16687,5.88104 3.54029,14.74983 5.82187,21.75471 1.2203,3.74653 2.21872,6.94957 2.21872,7.11787 0,0.29021 -2.27377,1.14883 -2.48444,0.93817 -0.20409,-0.20409 -2.36906,-8.92197 -3.48237,-14.02271 -1.2573,-5.7605 -3.38091,-17.98674 -3.38091,-19.46488 0,-0.80459 0.10758,-0.9112 0.82944,-0.82243 0.79395,0.0976 0.89613,0.36416 2.38715,6.22636 1.97143,7.75105 3.39446,12.77334 6.01887,21.24226 1.64404,5.30529 1.99771,6.79402 1.6641,7.00457 -0.84757,0.53494 -9.55068,3.20071 -13.47824,4.12842 -6.6967,1.58179 -12.38467,2.29307 -19.3401,2.41847 -3.45703,0.0624 -6.93825,0.0521 -7.73604,-0.0227 z m -2.48612,-1.31935 c -0.92298,-0.11513 -1.01977,-0.22342 -0.8898,-0.99601 0.23337,-1.38729 2.05846,-26.05348 2.5982,-35.11498 0.19367,-3.25133 0.27836,-3.62627 0.81919,-3.62627 0.57132,0 0.60318,0.37909 0.60277,7.17196 -2.5e-4,3.94457 -0.0964,12.93771 -0.21357,19.98476 l -0.21312,12.81282 -0.83402,-0.0515 c -0.45872,-0.0284 -1.30006,-0.10964 -1.86965,-0.18069 z m 4.53555,-10.64653 c 0.11537,-5.98334 0.30245,-14.97649 0.41578,-19.98476 l 0.20604,-9.10597 h 1.24305 1.24307 v 19.98478 19.98476 h -1.65884 -1.65883 z m 5.04245,2.25635 c 2.7e-4,-4.74235 0.0962,-13.7355 0.21339,-19.98477 l 0.21291,-11.36231 h 1.02919 1.0292 l 0.20609,6.36612 c 0.11329,3.50137 0.30144,12.49451 0.41802,19.98477 l 0.21194,13.61865 h -1.66062 -1.66062 l 6.4e-4,-8.62246 z m 4.83452,-8.94348 c 0,-9.60922 0.0938,-18.58107 0.20846,-19.93746 0.19274,-2.28011 0.26314,-2.46614 0.93308,-2.46614 0.81795,0 0.66494,-2.04474 1.45916,19.50127 0.19605,5.31853 0.53736,11.91833 0.75849,14.66624 0.22111,2.7479 0.31727,5.08797 0.21368,5.20014 -0.10355,0.1122 -0.94987,0.27218 -1.88061,0.3556 l -1.69226,0.15165 z m -18.98169,16.57282 c -0.77794,-0.15279 -1.48202,-0.34539 -1.56462,-0.42799 -0.0826,-0.0826 0.29496,-3.31412 0.83901,-7.18116 1.00786,-7.16365 2.30867,-18.43593 2.93161,-25.40407 0.52581,-5.88169 0.54663,-5.9632 1.52304,-5.9632 h 0.83488 l -0.22098,4.10978 c -0.61371,11.41321 -1.87778,29.64362 -2.32443,33.52283 -0.10721,0.93075 -0.28693,1.67637 -0.39946,1.65693 -0.11257,-0.0194 -0.84111,-0.16032 -1.61905,-0.31312 z m 24.35097,-2.62668 c -0.32326,-4.678 -0.80598,-17.5962 -1.02405,-27.40494 l -0.19886,-8.9448 h 0.82783 c 0.74391,0 0.82783,0.1244 0.82783,1.22699 0,6.23103 1.88673,27.07318 3.06947,33.90752 0.26078,1.50692 0.47461,2.90841 0.47519,3.11443 6.4e-4,0.20603 -0.61544,0.47046 -1.36889,0.58764 -0.75347,0.1172 -1.60216,0.27789 -1.88599,0.35715 -0.43643,0.12186 -0.54791,-0.3169 -0.72253,-2.84399 z m -29.50833,1.63855 c -0.77794,-0.14117 -1.47418,-0.31643 -1.5472,-0.38945 -0.073,-0.073 1.43027,-8.56263 3.34068,-18.8658 3.04414,-16.4176 3.54415,-18.73304 4.04531,-18.73304 0.42222,0 0.57184,0.25651 0.57184,0.98031 0,1.8106 -4.63197,37.00666 -4.89475,37.19281 -0.0558,0.0395 -0.73794,-0.0436 -1.51588,-0.18483 z m 34.63041,-2.50229 c -1.23841,-6.60519 -2.71821,-20.77172 -3.27746,-31.37622 l -0.21673,-4.10978 h 0.94101 0.94099 l 0.73679,6.68845 c 0.94448,8.57389 2.41445,18.83924 3.61914,25.27376 0.5212,2.78384 0.94763,5.19744 0.94763,5.36354 0,0.16611 -0.71373,0.44314 -1.5861,0.61563 l -1.58611,0.31362 z m -39.58209,1.37185 c -0.8421,-0.24943 -1.53109,-0.50471 -1.53109,-0.56729 0,-0.0626 0.64462,-2.35974 1.43248,-5.1048 2.10423,-7.33147 3.93286,-14.9008 5.66509,-23.44972 1.34309,-6.62843 1.61337,-7.5869 2.16314,-7.67109 0.60562,-0.0927 0.58929,0.1454 -0.45324,6.60786 -0.59482,3.68725 -1.96194,11.49077 -3.03805,17.34115 -1.0761,5.85037 -2.03624,11.18452 -2.13364,11.85366 -0.0973,0.66915 -0.26631,1.26771 -0.37534,1.33017 -0.10904,0.0625 -0.88725,-0.0905 -1.72935,-0.33994 z m 45.20747,0.0705 c 0,-0.0771 -0.2068,-1.12867 -0.45958,-2.33693 -1.00566,-4.80716 -4.69468,-31.40529 -4.69707,-33.86624 -6.4e-4,-0.58864 0.17871,-0.72526 0.9517,-0.72526 1.10893,0 0.88217,-0.88975 2.26249,8.87737 1.31435,9.30028 3.19503,19.1905 5.00088,26.29884 0.199,0.78334 0.0992,0.88711 -1.31781,1.36993 -1.68163,0.57299 -1.74061,0.58594 -1.74061,0.38229 z m -50.22606,-1.48991 c -0.4968,-0.19921 -0.69624,-0.48976 -0.59446,-0.86598 0.19634,-0.72578 8.44159,-29.51206 9.27938,-32.39677 0.51806,-1.78376 0.75237,-2.17577 1.30052,-2.17577 0.47669,0 0.62733,0.16194 0.52477,0.56409 -0.0791,0.31025 -2.08909,8.36056 -4.46664,17.88958 -4.56369,18.29093 -4.34177,17.66725 -6.04357,16.98485 z m 54.74375,-0.90019 c -1.6262,-5.79994 -4.08113,-19.01466 -5.15533,-27.75082 -0.78044,-6.3471 -0.79229,-6.78751 -0.18279,-6.78751 0.50435,0 0.59016,0.372 1.15241,4.99619 0.94205,7.74782 3.37702,19.20283 5.72978,26.955 l 0.94152,3.1022 -1.07784,0.3308 c -1.05815,0.32475 -1.08386,0.3093 -1.40775,-0.84586 z m -58.699006,-0.46595 -0.834883,-0.38837 5.347579,-16.83959 5.34757,-16.83958 0.88642,-0.002 c 0.48753,-10e-4 0.88643,0.14304 0.88643,0.32082 0,0.38565 -2.7845,9.90815 -6.95798,23.79515 -1.66892,5.55326 -3.03441,10.15861 -3.03441,10.23413 0,0.24963 -0.792965,0.11428 -1.640726,-0.28013 z m 45.888406,-12.15354 c 0,-0.79779 0.0629,-1.12415 0.13969,-0.72527 0.0769,0.3989 0.0769,1.05163 0,1.45052 -0.0769,0.39888 -0.13969,0.0725 -0.13969,-0.72525 z m -0.32233,-3.54569 c 0,-0.79778 0.0629,-1.12415 0.13969,-0.72525 0.0769,0.39888 0.0769,1.05161 0,1.4505 -0.0769,0.39888 -0.13969,0.0725 -0.13969,-0.72525 z m -0.32234,-3.86802 c 0,-0.79778 0.0629,-1.12415 0.1397,-0.72525 0.0769,0.39888 0.0769,1.05161 0,1.4505 -0.0769,0.39889 -0.1397,0.0725 -0.1397,-0.72525 z m -0.32233,-4.5127 c 0,-0.79777 0.0629,-1.12413 0.13968,-0.72525 0.0769,0.39889 0.0769,1.05162 0,1.45052 -0.0769,0.39888 -0.13968,0.0725 -0.13968,-0.72527 z m -0.31794,-5.31852 c 0.002,-0.88643 0.0651,-1.21079 0.13911,-0.72083 0.0741,0.48998 0.0721,1.21523 -0.005,1.61168 -0.0765,0.39645 -0.13711,-0.005 -0.1347,-0.89085 z m -23.55981,-3.86802 c 0.006,-0.53185 0.0788,-0.71041 0.16055,-0.39679 0.0817,0.31363 0.0764,0.74878 -0.0122,0.96701 -0.0883,0.21823 -0.15518,-0.0384 -0.14861,-0.57022 z m -14.73381,-9.9118 c -1.33884,-3.70298 -1.31981,-3.77385 1.01573,-3.7825 l 1.33332,-0.005 0.21613,1.53109 c 0.11891,0.84209 0.29016,1.78493 0.38065,2.09517 0.1398,0.47931 -0.0582,0.56409 -1.31782,0.56409 -0.89328,0 -1.54022,-0.16011 -1.62801,-0.40292 z m 3.23572,-1.42046 c -0.1253,-1.00286 -0.30822,-2.03292 -0.40651,-2.28903 -0.12233,-0.31878 0.004,-0.42994 0.39986,-0.35239 0.40551,0.0794 0.75362,0.73994 1.16389,2.20846 0.32193,1.15234 0.59041,2.13143 0.59665,2.17575 0.006,0.0443 -0.3346,0.0805 -0.75738,0.0805 -0.6926,0 -0.79124,-0.18051 -0.99651,-1.82338 z m 2.25555,1.42046 c -0.41725,-1.25373 -1.12117,-3.90804 -1.05333,-3.9719 0.0437,-0.0412 0.43122,-0.12528 0.86111,-0.18693 0.68603,-0.0984 0.82721,0.0653 1.1542,1.3384 0.89385,3.48005 0.89432,3.22335 -0.006,3.22335 -0.45215,0 -0.88244,-0.18132 -0.9562,-0.40292 z m 2.2553,0 c -0.0743,-0.2216 -0.29598,-1.05565 -0.49257,-1.85342 -0.19659,-0.79779 -0.43486,-1.71621 -0.52951,-2.04096 -0.13635,-0.46788 -0.0194,-0.56824 0.56366,-0.4835 0.57163,0.0831 0.8178,0.43046 1.1037,1.55745 0.87422,3.44605 0.8638,3.22335 0.15079,3.22335 -0.36352,0 -0.72174,-0.18132 -0.79607,-0.40292 z m 2.59598,-0.32233 c -0.41278,-1.99108 -0.53043,-4.43211 -0.21359,-4.43211 0.18666,0 0.41349,0.32637 0.50408,0.72525 0.54153,2.3846 0.79978,3.6744 0.80671,4.02919 0.0139,0.7105 -0.94125,0.42988 -1.0972,-0.32233 z m 1.59732,0 c -0.97866,-4.30952 -0.98506,-4.43211 -0.23146,-4.43211 0.47306,0 0.67589,0.48673 1.07459,2.57868 0.4682,2.45657 0.46378,2.57868 -0.0934,2.57868 -0.34292,0 -0.65309,-0.30007 -0.74965,-0.72525 z m 1.49144,-1.35932 c -0.21125,-1.14651 -0.46943,-2.30692 -0.57371,-2.57868 -0.11769,-0.30659 -0.009,-0.49411 0.28685,-0.49411 0.33009,0 0.54399,0.509 0.69626,1.65687 0.12085,0.91128 0.30275,2.07169 0.40415,2.57868 0.10136,0.507 0.0463,0.92181 -0.12255,0.92181 -0.1688,0 -0.47975,-0.93806 -0.691,-2.08457 z m 1.43746,1.19815 c -0.0967,-0.48754 -0.2659,-1.46663 -0.37608,-2.17576 -0.11013,-0.70915 -0.26998,-1.54318 -0.35509,-1.85343 -0.12296,-0.44826 0.0483,-0.56409 0.83398,-0.56409 0.98079,0 0.98874,0.0139 0.98874,1.73256 0,0.95289 0.0906,2.18582 0.20146,2.73985 0.1731,0.86553 0.10867,1.00729 -0.45789,1.00729 -0.4618,0 -0.71202,-0.2656 -0.83512,-0.88642 z m 1.91177,0.4835 c -0.0696,-0.2216 -0.19075,-1.45453 -0.26919,-2.73985 -0.12921,-2.11725 -0.0861,-2.33693 0.45901,-2.33693 0.52265,0 0.60221,0.26451 0.60603,2.0146 0.002,1.10802 0.0919,2.34096 0.19877,2.73985 0.144,0.53735 0.0568,0.72525 -0.33685,0.72525 -0.29218,0 -0.58817,-0.18132 -0.65777,-0.40292 z m 1.3824,-1.85342 c -0.0296,-1.241 -0.0658,-2.51019 -0.0806,-2.82044 -0.0194,-0.40788 0.26322,-0.59206 1.02073,-0.66509 l 1.04758,-0.101 v 2.92145 2.92143 h -0.967 -0.96701 z m 2.6324,-0.64468 c 0,-2.87952 0.006,-2.90101 0.80584,-2.90101 0.79987,0 0.80583,0.0216 0.80583,2.90101 0,2.87953 -0.006,2.90102 -0.80583,2.90102 -0.79986,0 -0.80584,-0.0216 -0.80584,-2.90102 z m 2.25635,1.0073 c 0,-1.04154 -0.0906,-2.34699 -0.20147,-2.90102 -0.19599,-0.97996 -0.16975,-1.00729 0.96701,-1.00729 h 1.16847 v 2.90101 2.90102 h -0.96701 c -0.96472,0 -0.967,-0.005 -0.967,-1.89372 z m 2.57867,-1.0073 c 0,-2.36379 0.0895,-2.90101 0.48351,-2.90101 0.39396,0 0.4835,0.53722 0.4835,2.90101 0,2.3638 -0.0895,2.90102 -0.4835,2.90102 -0.39397,0 -0.48351,-0.53722 -0.48351,-2.90102 z m 1.61168,0 v -2.90101 h 1.12817 1.12817 l -0.005,2.17576 c -0.006,3.09748 -0.19912,3.62627 -1.32254,3.62627 h -0.92942 z m 2.57868,1.4955 c 0,-2.82257 0.36187,-4.39651 1.01082,-4.39651 0.54174,0 0.60085,0.2854 0.60085,2.90101 0,2.87953 -0.006,2.90102 -0.80583,2.90102 -0.73636,0 -0.80584,-0.12122 -0.80584,-1.40552 z m 2.25634,-1.4955 v -2.90101 h 1.16266 c 0.92777,0 1.12313,0.10307 0.96701,0.50987 -0.10758,0.28042 -0.19566,1.58588 -0.19566,2.90102 v 2.39114 h -0.967 -0.96701 z m 2.57869,0 c 0,-2.87952 0.006,-2.90101 0.80584,-2.90101 0.7804,0 0.80569,0.0687 0.80143,2.17576 -0.006,2.79011 -0.23628,3.62627 -1.00019,3.62627 -0.54958,0 -0.60708,-0.27477 -0.60708,-2.90102 z m 2.04748,1.20876 c 0.11184,-0.93075 0.20452,-2.21609 0.20606,-2.85631 0.002,-1.07439 0.0663,-1.15192 0.82734,-1.00644 0.55648,0.10635 0.76605,0.30999 0.64466,0.62634 -0.0989,0.25778 -0.17987,1.47219 -0.17987,2.69869 0,2.19514 -0.0133,2.22998 -0.85073,2.22998 -0.8372,0 -0.8475,-0.0269 -0.64746,-1.69226 z m 1.94721,1.18239 c 0.10758,-0.28043 0.19566,-1.51335 0.19566,-2.73984 0,-2.0151 0.0621,-2.22999 0.64467,-2.22999 0.55468,0 0.64418,0.21371 0.64112,1.53109 -0.006,2.72388 -0.32892,3.94861 -1.04011,3.94861 -0.44843,0 -0.57906,-0.15093 -0.44134,-0.50987 z m 1.92259,-1.47142 c 0.1139,-1.08971 0.20708,-2.32264 0.20708,-2.73985 0,-0.60111 0.17314,-0.75856 0.83417,-0.75856 0.77969,0 0.82291,0.0789 0.66175,1.20876 -0.0948,0.66481 -0.26153,1.89775 -0.37042,2.73985 -0.16458,1.27268 -0.31122,1.53109 -0.86884,1.53109 -0.62926,0 -0.658,-0.12279 -0.46374,-1.98129 z m 1.93611,0.4858 c 0.11269,-0.82253 0.20498,-1.98294 0.20498,-2.57869 0,-0.74793 0.14964,-1.08318 0.48351,-1.08318 0.53716,0 0.62397,1.14144 0.27852,3.66187 -0.14027,1.02333 -0.35764,1.49549 -0.68848,1.49549 -0.38977,0 -0.44377,-0.28995 -0.27853,-1.49549 z m 1.49712,0.63592 c 0.001,-0.50229 0.0943,-1.67479 0.20607,-2.60553 0.16077,-1.33857 0.32439,-1.69226 0.78276,-1.69226 0.61075,0 0.61061,-0.0602 0.009,3.68152 -0.24255,1.50714 -1.00143,1.97611 -0.99727,0.61627 z m 1.39474,0.13432 c 0.098,-0.39889 0.27785,-1.49004 0.39976,-2.42474 0.23205,-1.779 0.60039,-2.3173 1.18537,-1.73232 0.24887,0.24887 0.23256,0.99282 -0.0574,2.61506 -0.34403,1.92507 -0.50333,2.26725 -1.05553,2.26725 -0.51229,0 -0.61253,-0.15394 -0.47225,-0.72525 z m 1.82581,0.3595 c 0,-0.20117 0.17012,-1.28906 0.37804,-2.41752 0.37127,-2.01491 0.39659,-2.05176 1.41023,-2.05176 0.56769,0 1.45849,0.0853 1.97957,0.18948 l 0.94742,0.18949 -0.50176,2.22803 -0.50175,2.22803 h -1.85588 c -1.16924,0 -1.85587,-0.13533 -1.85587,-0.36575 z m -37.68774,-0.46695 c 0.0155,-0.3755 0.0919,-0.45189 0.19474,-0.19474 0.0931,0.23269 0.0816,0.5107 -0.0255,0.61781 -0.10709,0.10708 -0.1833,-0.0833 -0.1693,-0.42307 z m -0.58943,-2.30959 c -0.36547,-1.59708 -0.2582,-2.17133 0.25423,-1.36106 0.27571,0.43595 0.448,2.89167 0.20288,2.89167 -0.0587,0 -0.26447,-0.68878 -0.45711,-1.53061 z m -14.263425,-11.0305 c 0,-0.59117 -3.934026,-9.20723 -7.073135,-15.49115 -3.046538,-6.09863 -6.845286,-12.95081 -10.060835,-18.14776 -0.858798,-1.38799 -1.561462,-2.59789 -1.561462,-2.68869 0,-0.0908 1.106412,-1.67297 2.458696,-3.51596 2.031667,-2.76891 2.57749,-3.32317 3.142769,-3.19131 0.908553,0.21194 7.009931,1.4437 7.15119,1.4437 0.06079,0 1.151415,-1.7406 2.4235,-3.86802 1.272085,-2.12741 2.475533,-3.8687 2.674331,-3.86954 0.198786,-9.7e-4 2.334701,0.68432 4.746461,1.52258 l 4.38501,1.52412 3.64067,-3.05368 c 2.00235,-1.67952 3.76098,-3.01847 3.90805,-2.97544 0.14707,0.043 2.0281,1.17089 4.18007,2.50636 3.31763,2.05883 3.99276,2.36659 4.43916,2.02361 0.28957,-0.22247 1.75941,-1.49838 3.26632,-2.83536 1.50692,-1.33697 2.99375,-2.62699 3.30407,-2.86668 0.50336,-0.38882 0.89704,-0.12733 3.64984,2.42419 4.57192,4.23762 3.71908,4.07191 7.93929,1.54263 2.00258,-1.20021 3.93117,-2.36611 4.28574,-2.59088 0.58291,-0.36954 0.9962,-0.10514 4.31419,2.75992 l 3.66952,3.16864 4.59716,-1.54008 4.59714,-1.54008 2.33429,3.69987 c 1.28385,2.03494 2.51759,3.77023 2.74163,3.8562 0.22405,0.086 2.10651,-0.0787 4.18326,-0.36585 2.07675,-0.28719 3.84497,-0.45311 3.92937,-0.36869 0.0844,0.0844 0.9811,1.58596 1.99263,3.3368 l 1.83916,3.18334 -3.81298,5.94665 c -7.88813,12.30219 -13.96873,23.07247 -16.14151,28.59068 -0.29667,0.75347 -0.67861,1.36993 -0.84876,1.36993 -0.17013,0 0.27162,-1.3959 0.98167,-3.102 2.76087,-6.63368 6.59009,-13.56038 14.40992,-26.06626 l 4.03299,-6.44975 -1.30783,-2.40656 c -0.71931,-1.32361 -1.43139,-2.44526 -1.58243,-2.49256 -0.37148,-0.11634 -11.72266,21.9503 -14.70721,28.59074 -1.31474,2.92518 -2.93806,6.73939 -3.60738,8.476 -0.66934,1.73663 -1.27496,3.09947 -1.34587,3.02857 -0.16397,-0.16395 2.4321,-7.08895 4.29872,-11.46677 2.18335,-5.12066 5.54127,-12.21797 9.94728,-21.02456 2.19947,-4.39624 3.89309,-8.05793 3.76361,-8.13709 -0.30577,-0.18693 -5.6451,0.73134 -5.94174,1.02187 -0.41882,0.41021 -4.98871,11.44226 -7.43491,17.94843 -2.51317,6.68428 -7.00472,19.9313 -7.00472,20.65917 0,0.22865 -0.15086,0.50896 -0.33525,0.62292 -0.42568,0.26308 -0.329,-0.1426 1.83709,-7.70874 2.49043,-8.6991 6.82475,-20.45762 10.77341,-29.22704 l 1.2729,-2.82694 -1.98407,-3.10086 c -1.09123,-1.70546 -2.12549,-3.05371 -2.29834,-2.99609 -0.43603,0.14534 -3.01873,8.55549 -8.48795,27.63976 -5.48646,19.14435 -5.28945,18.50728 -5.61616,18.16102 -0.53913,-0.57137 5.9942,-24.41683 11.01166,-40.19062 1.06264,-3.3407 1.86359,-6.14248 1.77991,-6.22617 -0.15662,-0.15662 -7.63087,2.0924 -7.63087,2.29616 0,0.0625 -0.56954,2.62912 -1.26566,5.70353 -2.39346,10.57071 -5.62046,27.47768 -6.80398,35.64757 -0.24081,1.66238 -0.53222,2.65926 -0.77735,2.65926 -1.07143,0 2.20785,-19.16448 5.98437,-34.97334 2.38016,-9.96363 2.49395,-8.63516 -0.99296,-11.59351 -1.62773,-1.381 -3.07627,-2.38348 -3.21898,-2.22774 -0.27541,0.3006 -3.14245,19.12383 -4.19177,27.52048 -0.56612,4.53015 -1.28325,11.85646 -1.80633,18.45369 -0.14632,1.84534 -0.31723,2.49809 -0.65407,2.49809 -0.61094,0 -0.58934,-0.96493 0.19315,-8.62981 0.81985,-8.03101 1.21107,-11.12298 3.40879,-26.94099 0.98165,-7.06539 1.69375,-12.93722 1.58248,-13.0485 -0.17134,-0.17135 -6.33386,2.87693 -6.99005,3.45761 -0.18247,0.16147 -1.88216,39.99026 -1.87569,43.95293 0.001,0.86044 -0.13736,1.20876 -0.48153,1.20876 -0.60006,0 -0.65077,2.38917 0.48228,-22.72461 0.5279,-11.70076 0.9617,-21.50424 0.96402,-21.78551 0.002,-0.28127 -1.48257,-1.7131 -3.29972,-3.18186 l -3.30394,-2.67044 -0.0826,25.02004 c -0.0739,22.40375 -0.13508,25.02005 -0.58476,25.02005 -0.45232,0 -0.47918,-2.42862 -0.27049,-24.45737 0.12744,-13.45155 0.1387,-24.69976 0.025,-24.99602 -0.16994,-0.44286 -0.77685,-0.10685 -3.41232,1.88898 -1.76308,1.33519 -3.26787,2.53864 -3.34396,2.67432 -0.0761,0.13568 0.34265,9.52994 0.93055,20.87613 1.26362,24.38721 1.26234,24.33629 0.61416,24.33629 -0.36195,0 -0.48345,-0.38491 -0.48329,-1.53109 6.4e-4,-5.32635 -1.71383,-43.16907 -1.96991,-43.47763 -0.42705,-0.51456 -6.27496,-3.9862 -6.71468,-3.9862 -0.1996,0 -0.28266,0.31552 -0.19093,0.72526 0.82656,3.69216 3.87633,32.18212 4.51153,42.1453 0.10733,1.68419 0.27645,3.75117 0.37572,4.59327 0.14171,1.20192 0.0807,1.53109 -0.28411,1.53109 -0.3682,0 -0.50908,-0.83167 -0.67887,-4.00778 -0.56055,-10.48534 -4.41393,-44.14481 -5.13647,-44.86736 -0.14954,-0.14953 -5.85865,4.17842 -6.16435,4.67307 -0.10112,0.16361 0.45815,2.95975 1.24281,6.21362 2.42755,10.06655 4.34569,20.65878 5.65016,31.20095 0.70862,5.72664 0.7892,7.11015 0.41408,7.10927 -0.13296,-3e-4 -0.86954,-3.51779 -1.63685,-7.81663 -2.01865,-11.30948 -6.86731,-35.8134 -7.14807,-36.12462 -0.36028,-0.39935 -7.06906,-2.44804 -7.21488,-2.20323 -0.0696,0.11684 0.3691,1.80787 0.9748,3.758 2.23566,7.19787 6.91495,23.20699 9.15054,31.30643 1.26623,4.58742 2.49983,9.02976 2.74134,9.87186 0.24151,0.8421 0.33126,1.53109 0.19946,1.53109 -0.13181,0 -0.79152,-1.92192 -1.466,-4.27094 -4.06068,-14.1419 -12.958623,-41.61801 -13.391147,-41.3507 -0.144951,0.0895 -1.136382,1.43725 -2.203176,2.9948 -1.824365,2.66365 -1.91392,2.88097 -1.507163,3.65732 0.237868,0.45395 1.524536,3.46531 2.859289,6.69189 5.747767,13.89451 12.436237,32.59997 11.656697,32.59997 -0.27075,0 -1.43211,-2.69456 -3.09112,-7.17196 -3.32361,-8.96985 -6.71525,-17.84521 -10.026702,-26.23826 l -2.562675,-6.49524 -2.644308,-0.48732 c -1.454376,-0.26802 -2.753519,-0.41983 -2.886992,-0.33734 -0.133475,0.0825 0.101604,0.83132 0.52231,1.66404 3.903191,7.72497 16.678097,38.80776 16.161967,39.32389 -0.36916,0.36917 -0.81646,-0.52981 -2.85479,-5.73751 -3.944028,-10.07659 -14.850061,-34.81218 -15.348833,-34.81218 -0.297114,0 -3.027985,3.90936 -3.025682,4.33137 9.75e-4,0.18836 1.23483,2.44573 2.741774,5.01635 3.684244,6.2848 7.147317,12.95518 9.935142,19.1365 1.940199,4.30193 5.157079,12.00678 5.157079,12.35189 0,0.0552 -0.36262,0.10039 -0.80584,0.10039 -0.44321,0 -0.80583,-0.14058 -0.80583,-0.31239 z m 1.906395,-0.57404 C 97.923104,156.0936 91.2472,142.5909 84.450255,131.19185 l -0.601036,-1.00798 1.294355,-1.80755 1.294355,-1.80755 2.268877,4.91071 c 4.723426,10.22331 9.222682,20.66018 12.955574,30.05284 2.18595,5.5003 2.14667,5.31853 1.14938,5.31853 -0.61565,0 -0.92344,-0.2333 -1.16953,-0.88643 z m 3.08512,-1.7443 c -3.71514,-9.8888 -8.968814,-22.54581 -13.673673,-32.94226 -1.272451,-2.81179 -2.269121,-5.15275 -2.21481,-5.20215 0.293214,-0.26671 4.275381,0.7397 4.507864,1.13927 0.880167,1.51269 14.944579,38.60339 14.721269,38.82296 -0.0619,0.0609 -0.63898,0.20905 -1.28229,0.32919 l -1.16968,0.21846 z m 5.49423,1.61658 c -0.0863,-0.24 -1.30265,-3.7 -2.70323,-7.6889 -3.78538,-10.7809 -7.570548,-20.55963 -11.434583,-29.54052 l -1.129645,-2.62554 1.73721,-2.49581 c 1.684507,-2.4201 1.746664,-2.47096 2.048771,-1.67636 1.401247,3.68556 9.292507,28.64828 12.226047,38.67516 1.40806,4.81273 1.517,5.39911 1.00304,5.39911 -0.31711,0 -0.80479,0.0876 -1.08372,0.19461 -0.28424,0.10904 -0.57604,0.002 -0.66389,-0.24175 z m 44.80591,-0.65157 c 0.42551,-1.94271 5.52622,-16.75031 7.83596,-22.74815 1.80682,-4.69189 6.06474,-15.09574 6.3339,-15.47633 0.0318,-0.045 0.91553,-0.23017 1.96378,-0.4115 1.04825,-0.18131 2.22835,-0.4001 2.62247,-0.48621 0.61291,-0.13391 -0.1116,1.51092 -5.00869,11.37088 -6.0519,12.18511 -8.12606,16.7755 -10.88885,24.0985 -1.4017,3.71532 -1.82545,4.53161 -2.39817,4.61981 -0.63202,0.0973 -0.67413,0.009 -0.4604,-0.967 z m 2.72518,0.77929 c -0.002,-0.13296 0.89672,-2.49003 1.99695,-5.23794 1.84686,-4.61274 16.26735,-33.84518 16.69597,-33.84518 0.10404,0 0.7043,0.89361 1.33387,1.98579 l 1.14467,1.98578 -4.73886,7.60368 c -2.60636,4.18203 -5.57858,9.0542 -6.60493,10.82705 -2.17777,3.7617 -6.50893,12.39574 -7.55924,15.06915 -0.60283,1.53438 -0.86045,1.85343 -1.49658,1.85343 -0.42262,0 -0.76995,-0.1088 -0.77185,-0.24176 z m -44.61897,-3.54568 c -3.13569,-11.72059 -9.88679,-34.95292 -12.25487,-42.17217 -0.063,-0.19206 1.30587,0.086 3.04192,0.61789 l 3.15648,0.96709 0.85795,4.21714 c 1.78884,8.79276 4.45177,22.55948 5.8349,30.16511 0.78988,4.34346 1.52058,8.29609 1.62377,8.78362 0.16287,0.76952 0.0874,0.88642 -0.57275,0.88642 -0.69428,0 -0.84093,-0.30114 -1.6874,-3.4651 z m 37.61083,2.92164 c 6.13849,-21.65442 12.57806,-43.53101 13.09221,-44.47695 0.11744,-0.21598 0.93611,0.77965 1.9168,2.331 l 1.71187,2.70802 -2.5767,6.0497 c -4.46274,10.47789 -8.44884,21.81818 -10.62399,30.22484 l -0.91741,3.54569 -1.38427,0.10124 c -1.20694,0.0882 -1.36304,0.0263 -1.21851,-0.48351 z m -34.20947,-5.82265 c -1.26583,-10.64718 -3.88429,-24.9484 -6.3459,-34.65938 -0.44961,-1.77375 -0.75364,-3.39141 -0.67558,-3.5948 0.21254,-0.55389 5.37199,-4.46946 5.37199,-4.07688 0,0.18638 0.50216,4.07574 1.11592,8.64302 1.45416,10.82132 2.59902,21.23823 3.21535,29.25593 0.27256,3.54568 0.57398,7.35326 0.66981,8.46129 l 0.17423,2.01459 h -1.40363 -1.40365 z m 26.27666,5.81457 c -0.55636,-0.14307 -0.58432,-0.40694 -0.38029,-3.58888 0.32746,-5.10736 1.39217,-15.25489 2.27119,-21.64638 1.11871,-8.1344 3.31526,-22.60269 3.45228,-22.73971 0.0643,-0.0643 1.29526,0.89152 2.73549,2.12401 l 2.61861,2.24088 -0.44197,1.8543 c -4.52076,18.96674 -6.17146,27.25637 -7.44575,37.39171 -0.57411,4.56623 -0.58231,4.59305 -1.39329,4.55588 -0.44867,-0.0206 -1.08599,-0.10684 -1.41627,-0.19181 z m 4.97601,-5.15368 c 1.77784,-10.96132 4.45754,-24.78502 6.66788,-34.39751 l 0.883,-3.84006 3.20013,-1.07192 c 1.76007,-0.58954 3.22746,-1.03727 3.26084,-0.99496 0.0334,0.0423 -0.93835,3.26806 -2.15944,7.16831 -2.96581,9.47312 -6.61038,22.22852 -8.88765,31.10532 l -1.86058,7.25254 -0.99125,0.0968 -0.99126,0.0969 z m -25.94723,4.3353 c -0.0817,-0.39889 -0.23599,-2.17576 -0.34265,-3.94861 -0.53544,-8.90033 -2.47949,-27.9421 -3.99838,-39.16369 -0.32395,-2.39334 -0.56644,-4.38244 -0.53887,-4.42022 0.0275,-0.0378 1.37153,0.72349 2.98661,1.69172 l 2.93649,1.76042 0.19252,2.98214 c 0.10587,1.64017 0.48137,10.8874 0.83442,20.54938 0.35304,9.662 0.68811,18.4013 0.7446,19.42069 l 0.1027,1.85342 h -1.38436 c -1.17666,0 -1.40666,-0.10879 -1.53308,-0.72525 z m 11.65992,0.49044 -1.20876,-0.12644 v -24.49938 -24.49939 l 1.85343,1.46607 c 1.01938,0.80634 2.27274,1.80493 2.78523,2.21911 l 0.9318,0.75304 -0.8541,19.9628 c -1.05707,24.70687 -1.07615,24.97551 -1.76831,24.90481 -0.2918,-0.0298 -1.07448,-0.11111 -1.73929,-0.18062 z m 5.29425,-22.20025 c 0.47784,-12.33928 0.9145,-22.47608 0.97033,-22.52623 0.44041,-0.39546 6.06453,-3.01849 6.06384,-2.8281 -6.5e-4,0.13474 -0.78898,5.90197 -1.75218,12.81605 -2.29626,16.48295 -4.04896,31.36551 -4.04896,34.38044 0,0.45441 -0.24547,0.5929 -1.05092,0.5929 h -1.05092 z m -11.98317,21.70981 c -9.6e-4,-0.95351 -1.92474,-38.71346 -2.10829,-41.38468 l -0.20245,-2.94624 2.52553,-1.9108 c 1.38904,-1.05093 2.70684,-2.01824 2.92844,-2.14956 0.32091,-0.19016 0.40292,4.75207 0.40292,24.27772 v 24.51648 h -1.77284 c -1.20314,0 -1.773,-0.12948 -1.77331,-0.40292 z M 76.572432,118.53804 C 75.621959,118.204 74.515876,117.58752 74.114467,117.16807 73.254597,116.26954 48.16224,77.6349 48.16224,77.209478 c 0,-1.035947 1.169219,0.278547 3.615354,4.06454 2.264552,3.50495 2.952312,4.347459 3.545685,4.343488 1.837361,-0.01231 1.769552,-0.420049 -0.705289,-4.240849 -4.868715,-7.51664 -4.98246,-7.718203 -4.517411,-8.005619 0.318547,-0.196873 1.030592,0.647757 2.673301,3.171094 1.231507,1.8917 2.308763,3.620759 2.393901,3.842363 0.344489,0.89665 0.98896,0.340727 1.19458,-1.030428 0.209934,-1.399955 0.146965,-1.534928 -2.701854,-5.791443 -2.638001,-3.941518 -2.860171,-4.388381 -2.324347,-4.67515 0.516987,-0.276683 0.927128,0.209421 3.219906,3.816255 1.4451,2.273323 2.816886,4.290541 3.048417,4.4827 0.231525,0.192146 1.052442,0.450335 1.824254,0.573758 1.582716,0.253084 1.604216,0.422631 -0.310989,-2.452471 -3.126688,-4.693765 -3.516214,-5.421989 -3.089603,-5.776043 0.319982,-0.26556 1.240255,0.93673 4.052872,5.29491 2.001391,3.101178 3.752588,5.638501 3.891547,5.638501 0.138962,0 0.533371,-0.385364 0.876464,-0.856361 l 0.623812,-0.856349 -2.143927,-3.253425 c -3.357467,-5.094968 -3.680543,-5.681932 -3.323796,-6.038679 0.212525,-0.212516 3.943472,5.254293 11.070333,16.220927 16.901111,26.007013 15.445797,23.585203 15.437574,25.689893 -0.01096,2.8945 -0.78586,4.17494 -3.576609,5.91274 -2.934895,1.82754 -4.086675,2.05453 -6.363983,1.25421 z m 4.811829,-1.5417 c 0.830729,-0.83073 -2.330655,-4.29777 -3.918883,-4.29777 -0.317506,0 -0.666931,-0.14504 -0.776491,-0.32234 -0.109523,-0.17728 0.0085,-0.32233 0.263842,-0.32233 0.25468,0 0.644465,-0.2186 0.866205,-0.48576 0.330932,-0.39874 0.255204,-0.70929 -0.422766,-1.73379 -1.430911,-2.16224 -4.913018,-3.25553 -7.138817,-2.24139 -0.966418,0.44032 -1.018454,0.81225 -0.264279,1.88898 0.941633,1.34438 2.12116,2.22634 3.56155,2.66305 l 1.378428,0.41793 -1.136674,0.41102 c -0.625169,0.22606 -1.136674,0.51365 -1.136674,0.63906 0,0.45423 2.06746,2.72236 3.036475,3.3312 0.786359,0.49407 1.44374,0.60128 3.162554,0.51577 1.193421,-0.0593 2.3299,-0.268 2.52553,-0.46363 z m -5.031045,-0.3733 c -1.564568,-0.73189 -3.236405,-2.57651 -2.763642,-3.04927 0.176832,-0.17683 1.01905,-0.38305 1.871586,-0.45827 1.182371,-0.10428 1.889664,0.0403 2.981701,0.60959 1.634545,0.85211 2.900198,2.34545 2.406359,2.83929 -0.660122,0.66012 -3.141052,0.69249 -4.496004,0.0586 z m -4.113855,-5.63705 c -1.497256,-0.90639 -2.643864,-2.49675 -2.065208,-2.8645 0.214701,-0.13643 1.188146,-0.2479 2.163206,-0.24771 2.080824,3.3e-4 4.060933,0.9605 4.825388,2.33964 0.437714,0.78967 0.438798,0.92442 0.0097,1.19897 -0.929372,0.59453 -3.632503,0.36088 -4.933022,-0.4264 z m 11.82682,3.69911 c 1.098323,-1.58487 1.53773,-3.13711 1.291639,-4.56285 -0.240768,-1.39485 -1.638018,-3.63485 -2.159963,-3.46271 -0.211529,0.0698 -0.787103,0.69786 -1.279042,1.39578 -1.476426,2.09459 -1.565177,4.64245 -0.237539,6.81902 0.83051,1.36155 1.338116,1.32128 2.384905,-0.18924 z m -1.915065,0.0679 c -0.954944,-1.41013 -0.887159,-5.0744 0.12,-6.48644 0.41096,-0.57619 0.88946,-1.0476 1.063345,-1.0476 0.432013,0 1.558575,2.55221 1.565093,3.54569 0.0085,1.30137 -0.575161,2.99331 -1.375906,3.98835 l -0.745329,0.92617 z m -0.590973,-7.10056 c 0.669673,-1.75352 0.408133,-3.6677 -0.73903,-5.40868 l -0.835724,-1.26834 -1.060617,1.15732 c -1.037909,1.13257 -1.747004,2.9032 -1.750587,4.37133 -0.0024,0.92076 0.819716,2.92088 1.516995,3.69137 0.50534,0.55839 0.564719,0.54659 1.432483,-0.28479 0.497921,-0.47702 1.144337,-1.49322 1.43648,-2.25821 z m -2.973234,1.65203 c -0.880276,-1.34348 -0.968174,-3.97878 -0.183996,-5.51591 0.360999,-0.70762 0.87611,-1.46895 1.144678,-1.69184 0.413458,-0.34314 0.59001,-0.20591 1.151732,0.89514 0.881421,1.72773 0.853315,3.7666 -0.07614,5.52424 -0.913364,1.72719 -1.318381,1.88401 -2.036272,0.78837 z m -4.297973,-3.00192 0.733657,-0.59408 -1.368048,-1.48415 c -0.799066,-0.86687 -1.969849,-1.71398 -2.814999,-2.03674 l -1.446955,-0.5526 0.988882,-0.4158 c 0.543888,-0.22869 0.988885,-0.57109 0.988885,-0.76089 0,-0.687585 -2.658017,-3.207889 -3.770317,-3.574992 -1.332949,-0.439906 -4.053688,-0.252499 -4.752378,0.327363 -1.070133,0.888134 1.081708,3.317369 3.757179,4.241529 0.936834,0.32361 1.404694,0.59311 1.039688,0.59889 -0.365006,0.006 -0.925984,0.20236 -1.246624,0.43681 -0.551065,0.40295 -0.553462,0.48335 -0.04382,1.46888 0.296532,0.57343 1.212276,1.46948 2.034984,1.99123 1.844127,1.16951 4.682776,1.3401 5.899868,0.35455 z m -4.431497,-0.0842 c -1.19211,-0.34483 -3.322106,-2.23355 -3.322106,-2.94579 0,-0.49253 1.265742,-0.88865 2.83954,-0.88865 1.300015,0 3.505762,1.23006 4.225288,2.3563 l 0.656917,1.02822 -0.879277,0.38837 c -1.031512,0.45563 -2.093801,0.4742 -3.520362,0.0615 z m -4.419972,-5.8357 c -0.692469,-0.406223 -1.560043,-1.14446 -1.92794,-1.640517 -0.866765,-1.168715 -0.402748,-1.503825 2.091718,-1.510648 1.347727,-0.0037 2.076051,0.179026 2.871376,0.720317 1.25339,0.853048 2.467928,2.390678 2.144115,2.714498 -0.124824,0.12482 -1.057939,0.27824 -2.073595,0.34095 -1.480206,0.0914 -2.096473,-0.0325 -3.105674,-0.6246 z m 11.318693,4.17702 c 2.141933,-2.34251 2.260995,-6.086971 0.257275,-8.09069 -0.546225,-0.546225 -0.60787,-0.535358 -1.429827,0.252122 l -0.85898,0.822968 0.13005,-2.042375 c 0.134291,-2.109052 -0.30173,-3.497033 -1.379549,-4.391539 -0.442306,-0.367084 -0.658988,-0.294329 -1.510038,0.506973 -0.823111,0.775005 -0.962031,0.824929 -0.809489,0.290887 0.516445,-1.808034 0.555812,-2.440258 0.227794,-3.658422 -0.196598,-0.730111 -0.701385,-1.72733 -1.121744,-2.216028 -0.751647,-0.873831 -0.775329,-0.878546 -1.431336,-0.284869 -1.003048,0.907748 -1.972648,3.143013 -1.972648,4.547658 0,1.388558 1.118564,3.983874 1.835621,4.259046 0.27489,0.105502 0.848253,-0.265937 1.408478,-0.912402 0.936783,-1.080989 0.94211,-1.082549 0.623221,-0.1829 -0.729289,2.057482 -0.169286,4.893283 1.208525,6.119829 0.636073,0.566232 0.67769,0.550352 1.689564,-0.644674 0.654164,-0.772581 0.888998,-0.93332 0.635646,-0.435095 -0.86054,1.692251 -0.421425,4.694461 0.909868,6.220681 0.634623,0.72755 0.789308,0.71185 1.587569,-0.16117 z m -1.836292,-1.2614 c -0.730014,-1.60869 -0.798688,-2.62607 -0.281506,-4.1702 0.357149,-1.066331 1.459455,-2.546193 1.896584,-2.546193 0.119513,0 0.475395,0.572589 0.790977,1.272414 1.016077,2.253259 0.205242,6.182859 -1.385153,6.712999 -0.212601,0.0709 -0.672012,-0.50019 -1.020902,-1.26902 z m -3.21337,-4.693449 c -1.125964,-2.400962 -0.998632,-4.699893 0.366508,-6.617057 0.769047,-1.08003 1.112759,-0.913316 1.931122,0.936731 0.753113,1.70254 0.560431,3.774763 -0.495886,5.333338 -0.912329,1.346095 -1.298339,1.420434 -1.801744,0.346988 z m -3.518502,-5.488287 c -0.918442,-1.800295 -0.896848,-4.040231 0.05515,-5.721194 0.862855,-1.523561 1.502725,-1.634204 2.111033,-0.365019 1.052392,2.195744 0.786414,4.600087 -0.716434,6.476292 l -0.764098,0.953921 z m -1.190144,2.828649 c 0.454752,-0.172897 0.826821,-0.554607 0.826821,-0.848247 0,-0.937206 -2.631337,-3.251284 -4.195895,-3.689996 -1.269124,-0.35587 -1.350613,-0.429381 -0.669636,-0.604051 1.373222,-0.352215 1.548391,-1.113051 0.555857,-2.414326 -1.143122,-1.498721 -3.018231,-2.443736 -4.848865,-2.443736 -1.656102,0 -3.09019,0.547139 -3.09019,1.178985 0,0.874952 2.317073,2.989071 3.97448,3.626375 0.916511,0.352404 1.410574,0.648298 1.097922,0.657533 -0.312652,0.0097 -0.845772,0.189977 -1.184703,0.401652 -0.547496,0.341909 -0.568199,0.476772 -0.185572,1.208762 0.563461,1.077929 2.053516,2.47725 3.066908,2.880158 1.053999,0.419049 3.606364,0.444779 4.652873,0.0469 z m -4.169371,-0.477588 c -1.556894,-0.568105 -3.615199,-2.651989 -3.114249,-3.152944 0.18505,-0.185043 1.033983,-0.397985 1.88652,-0.473202 1.182373,-0.104284 1.889664,0.04032 2.981701,0.609588 1.607633,0.838078 2.899213,2.346654 2.419389,2.825874 -0.570366,0.569653 -2.849419,0.673791 -4.173361,0.190684 z m -3.874012,-5.459276 c -0.53515,-0.233178 -1.456699,-0.974863 -2.04789,-1.648191 -0.979015,-1.115037 -1.024007,-1.252702 -0.504429,-1.54348 0.88645,-0.496081 3.752586,-0.376203 4.874323,0.203866 1.090608,0.563976 2.357845,1.982936 2.357845,2.640146 0,0.873746 -2.966681,1.094144 -4.679849,0.347659 z m 8.583314,-3.257653 c 0.752977,-1.631488 0.755742,-3.192474 0.0085,-4.835024 -0.985249,-2.165908 -1.423983,-2.317096 -2.606614,-0.898294 -0.559592,0.671354 -1.100364,1.619524 -1.201716,2.107053 -0.259805,1.249718 -0.631737,1.100503 -0.863087,-0.34627 -0.335038,-2.095212 -4.096439,-5.192174 -5.358671,-4.412064 -0.493708,0.305129 -0.395131,3.614168 0.138401,4.645912 1.405309,2.717567 5.28141,4.32017 5.363815,2.217709 0.01686,-0.429856 0.201192,-0.109645 0.443714,0.770668 0.22819,0.828329 0.739604,1.962054 1.136475,2.519415 l 0.721579,1.01336 0.811238,-0.746558 c 0.446178,-0.410607 1.079015,-1.326774 1.406304,-2.035907 z m -2.94514,0.725251 c -0.342007,-0.753454 -0.621833,-1.877591 -0.621833,-2.498095 0,-1.265531 0.906239,-3.486103 1.686038,-4.131337 0.439149,-0.363375 0.594798,-0.299684 1.08095,0.442282 0.314099,0.479366 0.628785,1.708056 0.704086,2.749096 0.115918,1.602469 0.0086,2.099805 -0.721121,3.345149 -0.471503,0.80456 -1.003303,1.46283 -1.181783,1.46283 -0.178477,0 -0.60433,-0.616459 -0.946337,-1.369925 z m -3.701446,-2.147281 c -1.527704,-0.691468 -2.216395,-1.410249 -2.885447,-3.011524 -0.561517,-1.34389 -0.626125,-2.436109 -0.185339,-3.133133 0.258671,-0.409047 0.505611,-0.375703 1.771014,0.239074 0.829188,0.402847 1.746179,1.167826 2.102753,1.754156 0.741902,1.219968 1.156415,3.530351 0.760359,4.238071 -0.246596,0.440637 -0.419577,0.43105 -1.56334,-0.08662 z M 184.50962,118.84462 c -0.44337,-0.13491 -1.83591,-0.90536 -3.09455,-1.71213 -2.62768,-1.6843 -3.35185,-2.94785 -3.35185,-5.84847 0,-1.99998 -1.37081,0.27245 15.44466,-25.602787 7.12686,-10.966633 10.8578,-16.433443 11.07033,-16.220927 0.35675,0.356747 0.0336,0.943712 -3.32379,6.038679 l -2.14393,3.253425 0.62381,0.856349 c 0.34309,0.470997 0.74198,0.856362 0.88642,0.856362 0.14444,0 1.89539,-2.537531 3.89101,-5.638952 2.80738,-4.36298 3.72218,-5.561091 4.04291,-5.294911 0.42728,0.354603 0.039,1.080658 -3.08906,5.776495 -1.9152,2.875102 -1.8937,2.705555 -0.31099,2.452471 0.77181,-0.123424 1.59273,-0.381613 1.82425,-0.573759 0.23154,-0.192158 1.60332,-2.209376 3.04842,-4.4827 2.29278,-3.606833 2.70292,-4.092937 3.21991,-3.816255 0.53582,0.28677 0.31365,0.733633 -2.32435,4.675151 -2.84882,4.256515 -2.91178,4.391487 -2.70185,5.791442 0.20562,1.371156 0.85009,1.927078 1.19458,1.030429 0.0852,-0.221604 1.16239,-1.950664 2.3939,-3.842363 1.6427,-2.523338 2.35475,-3.367967 2.6733,-3.171094 0.46504,0.287415 0.3513,0.488979 -4.51742,8.005619 -2.47601,3.822615 -2.5431,4.228568 -0.70091,4.240848 0.59909,0.0037 1.27636,-0.825173 3.54569,-4.340844 2.44718,-3.791232 3.61098,-5.100474 3.61098,-4.062273 0,0.550257 -25.19571,39.185275 -26.12567,40.061005 -0.50812,0.47849 -1.68141,1.09496 -2.60734,1.36993 -1.84545,0.54804 -2.00024,0.55775 -3.17846,0.19926 z m 4.516,-2.03624 c 0.58592,-0.3989 1.50953,-1.27721 2.05246,-1.95183 1.08848,-1.3525 0.95589,-1.65485 -0.90196,-2.05686 -0.91331,-0.19763 -0.89764,-0.21495 0.52001,-0.5749 1.61851,-0.41096 3.13826,-1.49307 3.93135,-2.79927 0.69943,-1.1519 0.65948,-1.39468 -0.30151,-1.83253 -2.22578,-1.01414 -5.7079,0.0792 -7.1388,2.2414 -0.67798,1.02449 -0.75371,1.33504 -0.42277,1.73378 0.22173,0.26717 0.61151,0.48577 0.86619,0.48577 0.2547,0 0.37342,0.14504 0.26386,0.32233 -0.10952,0.17729 -0.459,0.32234 -0.77651,0.32234 -1.24334,0 -4.21969,2.83801 -4.21969,4.02357 0,0.39971 1.53042,0.7715 3.25627,0.79102 1.36547,0.0155 2.06551,-0.15641 2.8711,-0.70482 z m -4.49179,0.12013 c -1.09845,-0.30697 -1.14475,-0.77429 -0.18924,-1.90984 1.09226,-1.29807 3.3093,-2.13651 5.03677,-1.90481 1.88774,0.25319 2.08516,0.60169 1.04268,1.84063 -1.49993,1.78255 -3.8077,2.55597 -5.89021,1.97402 z m 2.87711,-5.5161 c -0.42916,-0.27455 -0.42808,-0.40931 0.01,-1.19898 0.74396,-1.34217 2.74867,-2.3383 4.71843,-2.34457 2.52565,-0.009 2.807,0.17083 2.1198,1.34766 -0.84283,1.44332 -2.88601,2.51602 -4.78102,2.51013 -0.87083,-0.002 -1.80093,-0.14414 -2.06685,-0.31424 z m -4.24988,2.89784 c 1.02583,-1.9937 0.85494,-4.33713 -0.45143,-6.19073 -0.51675,-0.73322 -1.10592,-1.38797 -1.30928,-1.45501 -0.53447,-0.1762 -1.75737,1.68081 -2.09426,3.1802 -0.36595,1.62876 0.12539,3.54826 1.28098,5.00432 0.47337,0.59645 1.07825,1.04559 1.34417,0.99809 0.26594,-0.0475 0.81935,-0.73908 1.22982,-1.53687 z m -2.31513,0.12259 c -1.20642,-1.82302 -1.41144,-3.83764 -0.58149,-5.71386 0.36495,-0.82505 0.80688,-1.50009 0.98206,-1.50009 0.61719,0 1.73944,2.00937 1.89549,3.39382 0.20278,1.79908 -0.10161,3.33333 -0.85598,4.31433 l -0.5982,0.77795 z m 5.96434,-5.76344 c 1.01379,-2.22865 0.58951,-4.63673 -1.15172,-6.53673 l -1.0606,-1.15733 -0.87743,1.32589 c -1.60923,2.4317 -1.40998,5.14808 0.54055,7.36962 1.13704,1.29501 1.58453,1.11921 2.5492,-1.00145 z m -2.64548,0.28543 c -1.07024,-1.73168 -1.20046,-4.16032 -0.31603,-5.89395 0.59225,-1.16092 0.77304,-1.30778 1.18697,-0.96424 1.60667,1.33342 2.1909,4.69793 1.16595,6.71473 -0.76934,1.51386 -1.17239,1.54225 -2.03689,0.14346 z m 12.02948,-3.00691 c 0.8227,-0.52175 1.73845,-1.4178 2.03498,-1.99123 0.50964,-0.98552 0.50724,-1.06593 -0.0439,-1.46887 -0.32064,-0.23446 -0.88162,-0.43103 -1.24662,-0.43681 -0.36501,-0.006 0.10282,-0.27529 1.03968,-0.5989 1.83131,-0.63256 3.08879,-1.620543 3.79851,-2.984425 0.38374,-0.73747 0.3781,-0.909003 -0.0413,-1.257101 -0.69869,-0.579862 -3.41944,-0.767269 -4.75239,-0.327362 -1.1123,0.367102 -3.77031,2.887407 -3.77031,3.574988 0,0.18981 0.47142,0.54484 1.04759,0.78895 0.92962,0.39386 0.97499,0.46811 0.40292,0.65932 -1.9981,0.66785 -2.55891,1.0226 -3.74277,2.36752 l -1.30313,1.48044 0.70524,0.57105 c 1.18789,0.9619 4.04949,0.77788 5.87145,-0.37757 z m -4.98875,0.22619 -0.87928,-0.40572 0.65692,-1.02823 c 0.95694,-1.49784 3.16195,-2.47264 5.15904,-2.28074 1.93071,0.18552 2.11483,0.33745 1.6487,1.3605 -0.85788,1.88285 -4.6607,3.24231 -6.58538,2.35419 z m 3.21621,-5.30178 c -0.31025,-0.081 -0.56409,-0.27069 -0.56409,-0.42138 0,-0.501004 1.67518,-2.273726 2.60107,-2.75252 1.39765,-0.722753 5.13497,-0.589925 5.13497,0.182497 0,0.58694 -1.76068,2.300203 -2.81779,2.741883 -1.07484,0.44911 -3.13803,0.56733 -4.35416,0.24952 z m -5.00699,3.84846 c 0.93786,-1.07519 1.31165,-2.15216 1.31165,-3.77924 0,-1.783945 -0.56783,-3.152298 -1.77643,-4.280943 l -0.77857,-0.727054 -0.68109,0.727054 c -1.95092,2.082627 -1.80266,5.559133 0.33686,7.899023 0.79828,0.87301 0.95295,0.88872 1.58758,0.16116 z m -1.4479,-0.64526 c -1.27728,-1.41137 -1.58697,-4.405165 -0.65737,-6.354586 0.63934,-1.340711 0.74239,-1.366758 1.63693,-0.41386 1.09126,1.162465 1.56804,3.449606 1.06932,5.129446 -0.6607,2.22537 -1.15813,2.62328 -2.04888,1.639 z m 5.77412,-6.113417 c 0.51717,-1.221892 0.56944,-3.226696 0.11744,-4.502058 -0.31888,-0.899649 -0.31356,-0.89809 0.62322,0.182899 1.15057,1.327675 1.64937,1.194579 2.55811,-0.682598 1.15469,-2.38528 0.79843,-4.695115 -1.05722,-6.854408 l -0.83102,-0.967005 -0.79702,0.89157 c -0.43836,0.490355 -0.95788,1.488925 -1.15448,2.219037 -0.32802,1.218164 -0.28864,1.850387 0.2278,3.658422 0.15254,0.534042 0.0136,0.484117 -0.80948,-0.290888 -0.85105,-0.801301 -1.06775,-0.874056 -1.51006,-0.506972 -2.04712,1.698956 -1.91293,5.910616 0.26421,8.291672 0.63434,0.693756 0.68981,0.700656 1.29612,0.161165 0.34838,-0.309977 0.83099,-1.030355 1.07245,-1.600836 z m -2.20945,0.95665 c -1.7136,-1.964504 -1.85353,-5.274858 -0.30388,-7.188611 l 0.58492,-0.722351 0.66688,0.936548 c 1.4512,2.038016 1.57917,4.903835 0.30975,6.936501 -0.46517,0.744865 -0.63651,0.75003 -1.25767,0.03789 z m 3.05595,-5.939658 c -0.70652,-1.067637 -0.89057,-1.718293 -0.88895,-3.142766 0.002,-1.945632 0.69238,-3.730391 1.44256,-3.730391 0.79457,0 1.92876,2.416922 1.93462,4.122615 0.005,1.342824 -0.96824,4.096929 -1.44719,4.096929 -0.0825,0 -0.55099,-0.605872 -1.04104,-1.346387 z m 7.54932,2.937551 c 1.09502,-0.413726 2.57942,-1.771687 3.16847,-2.898566 0.38264,-0.731991 0.36193,-0.866854 -0.18557,-1.208762 -0.33893,-0.211675 -0.87205,-0.392418 -1.18469,-0.401653 -0.31266,-0.0097 0.1814,-0.305129 1.09792,-0.657533 1.6574,-0.637303 3.97447,-2.751423 3.97447,-3.626375 0,-1.335679 -3.93342,-1.579711 -5.9944,-0.371902 -2.67996,1.570562 -3.35722,3.546091 -1.38879,4.05098 0.68098,0.17467 0.59949,0.24818 -0.66964,0.60405 -1.56643,0.439237 -4.19589,2.75318 -4.19589,3.692408 0,0.294969 0.32636,0.66748 0.72525,0.827818 1.00983,0.405904 3.56609,0.400154 4.65287,-0.01096 z m -3.74255,-0.262258 c -1.09845,-0.306969 -1.14474,-0.774286 -0.18924,-1.90984 1.09226,-1.298073 3.3093,-2.136513 5.03677,-1.90481 2.0494,0.274879 2.18404,0.663472 0.73277,2.114743 -1.64711,1.647107 -3.61932,2.247899 -5.5803,1.699907 z m 2.92321,-5.483947 c -1.13682,-0.720329 0.78351,-2.827894 3.13165,-3.436994 1.40019,-0.363204 3.6139,-0.228841 4.09106,0.24832 0.33071,0.330713 -1.45103,2.259326 -2.61614,2.831793 -1.3426,0.659671 -3.82517,0.852 -4.60657,0.356881 z m -1.3176,-1.672032 c 0.38853,-0.545641 0.89312,-1.669779 1.1213,-2.498107 0.24252,-0.880337 0.42687,-1.200524 0.44372,-0.770668 0.0823,2.10246 3.9585,0.499857 5.36381,-2.21771 0.53354,-1.031744 0.63211,-4.340783 0.1384,-4.645912 -1.26223,-0.780109 -5.02362,2.316853 -5.35867,4.412065 -0.23134,1.446773 -0.60328,1.595987 -0.86309,0.34627 -0.10136,-0.487529 -0.64212,-1.4357 -1.20172,-2.107054 -1.18263,-1.418802 -1.62136,-1.267614 -2.60661,0.898294 -0.72319,1.589824 -0.75464,3.036621 -0.10002,4.603626 0.40389,0.966871 1.94034,2.971248 2.2776,2.971248 0.0434,0 0.3968,-0.446424 0.78533,-0.992052 z m -2.00614,-0.861381 c -0.9867,-1.58696 -1.06481,-4.937091 -0.1467,-6.291166 0.50741,-0.748337 0.68442,-0.826234 1.09868,-0.483497 0.76294,0.631212 1.66684,2.862907 1.66684,4.115403 0,1.236121 -1.05839,3.868019 -1.55547,3.868019 -0.17149,0 -0.64999,-0.543935 -1.06335,-1.208759 z m 4.07326,-2.369141 c -0.31597,-0.995524 0.11756,-2.880864 0.95924,-4.171881 0.92411,-1.417389 3.29004,-2.617717 3.74438,-1.899679 0.45545,0.719781 0.34415,1.953697 -0.30344,3.363934 -0.70314,1.531237 -1.42315,2.220889 -3.01145,2.88452 -1.1244,0.469815 -1.18596,0.461969 -1.38873,-0.176894 z M 92.532319,111.24498 c -0.842924,-0.21403 -2.141616,-0.82999 -2.885981,-1.36881 -1.348459,-0.97609 -1.389478,-1.06876 -11.252831,-25.429499 -5.444685,-13.447417 -9.90499,-24.631164 -9.911794,-24.852769 -0.0068,-0.221606 0.189659,-0.402919 0.436583,-0.402919 0.27924,0 1.212322,1.919152 2.4683,5.076772 1.110636,2.792235 2.159302,5.258094 2.33036,5.479698 0.312767,0.405186 2.218805,0.565097 2.568426,0.215464 0.103065,-0.103066 -1.033121,-3.18034 -2.524958,-6.838318 -1.491826,-3.657978 -2.712402,-6.847901 -2.712402,-7.088718 0,-0.240819 0.232001,-0.390953 0.515558,-0.333632 0.326306,0.06596 1.153465,1.694576 2.253335,4.436615 0.955785,2.382824 1.87909,4.473711 2.051805,4.646413 0.203793,0.203805 0.549526,-0.235407 0.985011,-1.25135 l 0.670988,-1.56536 -2.23122,-5.337394 c -2.082212,-4.980949 -2.190639,-5.356924 -1.623581,-5.629783 0.334197,-0.160813 0.657892,-0.233338 0.71933,-0.161168 0.0614,0.07217 1.040235,2.514197 2.175082,5.426722 l 2.063378,5.295512 1.538241,0.631273 c 0.846031,0.347195 1.608219,0.561295 1.693742,0.47576 0.08552,-0.08552 -0.627021,-2.040828 -1.583451,-4.345113 -2.312174,-5.570589 -2.314867,-5.580092 -1.58121,-5.580092 0.47827,0 1.148954,1.364515 3.325656,6.766068 1.49961,3.721334 2.882595,6.767396 3.073303,6.769041 0.190697,0.0012 0.680138,-0.351935 1.087639,-0.785702 l 0.740917,-0.788674 -2.153348,-5.382041 c -1.490192,-3.724541 -2.05016,-5.485238 -1.818273,-5.71713 0.184288,-0.184294 0.408596,-0.261571 0.498444,-0.171724 0.516914,0.516922 19.832142,49.038818 19.832142,49.820468 0,1.57822 -0.8924,4.06607 -1.84248,5.13651 -0.54197,0.61062 -1.790972,1.3613 -3.153708,1.89546 -3.222908,1.26328 -4.02564,1.39702 -5.753003,0.95842 z m 3.192264,-1.45423 c 0.765003,-0.29085 0.841559,-0.45013 0.657856,-1.36862 -0.501552,-2.50777 -3.563923,-4.74892 -6.489047,-4.74892 -2.18556,0 -2.548045,0.42825 -1.781251,2.10443 1.414258,3.09156 5.026984,4.9961 7.612442,4.01311 z m -4.2392,-1.08665 c -1.603943,-0.74687 -2.665181,-1.9696 -3.177417,-3.66098 -0.209567,-0.69199 -0.136763,-0.72525 1.587765,-0.72525 1.894014,0 3.737904,0.7106 4.751033,1.83093 0.704357,0.7789 1.58054,2.8595 1.315711,3.12433 -0.460203,0.46019 -2.944946,0.14439 -4.477092,-0.56903 z m 8.330456,-1.08229 c 1.993681,-2.046 2.582731,-4.24542 1.846681,-6.89531 -0.52321,-1.883697 -1.07227,-2.124817 -2.448374,-1.075214 -1.648313,1.257234 -2.82374,3.927414 -2.627573,5.968984 0.158789,1.6526 0.954931,3.2103 1.640759,3.2103 0.225868,0 0.94069,-0.54395 1.588507,-1.20876 z m -2.04028,0.37128 c -0.580459,-0.69941 -0.761677,-3.71493 -0.306189,-5.09507 0.394989,-1.19683 2.237823,-3.415172 2.83707,-3.415172 0.49571,0 1.04106,1.829242 1.04106,3.492022 0,1.78988 -0.96894,3.88591 -2.226004,4.81529 -0.83118,0.61451 -0.985084,0.63772 -1.345937,0.20293 z m -3.956101,-5.13152 c 0.466075,-1.21458 -1.467236,-3.988383 -3.504178,-5.027558 -1.350396,-0.688922 -4.586485,-0.912146 -5.143809,-0.354823 -0.823772,0.823773 1.755058,4.549241 3.750786,5.418551 1.413161,0.61555 4.6563,0.5916 4.897201,-0.0362 z m -3.829738,-0.15399 c -1.675431,-0.50447 -3.058269,-1.61416 -3.826647,-3.070754 -0.667163,-1.264715 -0.705953,-1.503387 -0.287646,-1.769982 0.633709,-0.403858 1.48376,-0.393368 3.06218,0.03777 1.807809,0.493815 3.351898,1.757445 4.049112,3.313636 0.555789,1.24055 0.558749,1.34101 0.04556,1.54586 -0.731302,0.2919 -1.96121,0.26904 -3.042489,-0.0565 z m 7.326903,-1.72046 c 2.07617,-2.166794 2.606351,-5.026875 1.393255,-7.515808 -0.616483,-1.264839 -1.03295,-1.25653 -2.478505,0.04946 -1.639346,1.481055 -2.432223,3.48034 -2.227054,5.615621 0.158071,1.645027 0.949486,3.247497 1.603846,3.247497 0.203585,0 0.972389,-0.62853 1.708458,-1.39674 z m -2.423792,-0.0748 c -0.398851,-1.049042 -0.406502,-3.723872 -0.01364,-4.757248 0.3979,-1.046571 2.233973,-3.118964 2.763301,-3.118964 0.230217,0 0.577815,0.456792 0.772435,1.015102 0.831374,2.384857 0.03094,5.591646 -1.744276,6.98802 -1.142814,0.89894 -1.394656,0.88096 -1.777852,-0.12691 z m -3.896999,-4.300871 c 0.563951,-0.357161 0.303813,-1.475926 -0.679017,-2.92019 -0.912256,-1.340555 -2.009068,-2.166824 -3.654188,-2.752875 l -1.270697,-0.452656 1.147139,-0.01413 c 0.630944,-0.0073 1.421982,-0.215098 1.757872,-0.460715 0.598258,-0.437457 0.598367,-0.473957 0.0061,-1.788718 -0.670148,-1.486111 -2.331971,-3.100044 -3.848746,-3.737786 l -0.988337,-0.415578 1.208601,-0.226733 c 0.664727,-0.124702 1.284134,-0.34895 1.376454,-0.498335 0.267022,-0.432036 -0.772592,-2.630838 -1.723175,-3.644564 -1.241482,-1.323959 -3.16761,-2.119796 -5.150375,-2.128032 -1.884694,-0.0073 -2.22988,0.336219 -1.853141,1.847062 0.318871,1.278725 3.055005,3.796617 4.557673,4.194139 l 1.254188,0.331785 -1.289336,0.03825 c -1.971496,0.05848 -2.286017,0.37669 -1.840872,1.862436 0.457291,1.526315 2.472353,3.550842 4.086566,4.10579 l 1.204239,0.413994 -1.334375,0.213381 c -0.733913,0.11732 -1.40729,0.403328 -1.496382,0.635506 -0.450566,1.174148 1.825279,4.151198 3.890753,5.089513 1.361506,0.618529 3.88516,0.78631 4.639662,0.308479 z m -4.636897,-0.810651 c -1.795382,-0.804707 -3.649473,-3.220997 -3.256787,-4.244299 0.236028,-0.615082 2.469027,-0.59018 3.987995,0.04447 1.919281,0.801929 3.620308,2.756043 3.620308,4.158959 0,0.645307 -2.941315,0.672925 -4.351516,0.04081 z m -2.739849,-6.616174 c -1.461685,-0.776894 -2.42523,-1.826899 -3.051118,-3.324877 l -0.503221,-1.204349 1.696581,0.0073 c 2.982444,0.01243 5.607265,1.812036 6.219131,4.263861 0.220945,0.885405 0.219227,0.886404 -1.505995,0.872174 -1.040076,-0.0085 -2.176032,-0.252804 -2.855377,-0.613888 z m -2.417518,-6.427796 c -1.553409,-0.716942 -2.542173,-1.739963 -3.197421,-3.308211 -0.487419,-1.166534 -0.486664,-1.169129 0.387533,-1.340515 1.440414,-0.282396 3.90196,0.410936 5.055849,1.424052 1.160113,1.018599 2.257571,3.004848 1.942196,3.515135 -0.322148,0.521238 -2.802103,0.349242 -4.188157,-0.290461 z M 94.42851,94.60304 c 2.312101,-2.131227 2.909189,-5.118599 1.553372,-7.771878 -0.56015,-1.096191 -0.840012,-1.103098 -2.214529,-0.0547 -2.27728,1.736954 -3.168764,5.820711 -1.771087,8.113067 0.35129,0.57617 0.716626,1.047594 0.811834,1.047594 0.09515,0 0.82439,-0.600341 1.62041,-1.334083 z m -2.161775,-0.19702 c -0.975703,-2.390719 -0.0085,-6.071934 1.965389,-7.477177 l 0.957576,-0.681868 0.355334,0.663948 c 0.195435,0.365165 0.43725,1.355561 0.537368,2.200884 0.225174,1.901306 -0.823882,4.592682 -2.161388,5.545068 -1.14822,0.817608 -1.222827,0.806302 -1.654279,-0.250855 z m -0.316154,-6.350809 c 1.987379,-1.733494 2.652739,-5.682213 1.32454,-7.860767 -0.709921,-1.164438 -0.701393,-1.165851 -2.515451,0.416467 -2.209681,1.927395 -2.762778,5.699293 -1.188134,8.102521 0.579326,0.88415 0.625388,0.871407 2.379045,-0.658221 z m -2.18333,0.190343 c -1.18242,-2.209376 -0.471179,-5.748572 1.503716,-7.482553 1.081535,-0.949596 1.192483,-0.9816 1.577531,-0.455001 1.149023,1.571366 0.802217,4.775183 -0.740528,6.841168 -1.109994,1.486441 -1.927127,1.869186 -2.340719,1.096386 z m -0.51952,-6.732925 c 1.509246,-1.491167 2.107394,-2.840625 2.107394,-4.754436 0,-1.537011 -0.635987,-3.464223 -1.273157,-3.858017 -0.218193,-0.134851 -1.017137,0.415346 -1.932925,1.331134 -1.951298,1.951298 -2.521194,3.692747 -1.979391,6.048389 0.643565,2.798034 1.248694,3.04041 3.078079,1.23293 z M 86.99312,81.29552 c -0.934672,-2.237006 -0.355005,-5.117359 1.378818,-6.851182 0.588865,-0.588865 1.214473,-1.070668 1.390233,-1.070668 0.522177,0 1.017795,1.655561 1.029478,3.438797 0.01243,1.900386 -1.097238,4.155155 -2.495975,5.07165 -0.824211,0.540049 -0.832544,0.536284 -1.302554,-0.588597 z m -3.755561,-4.466009 c 0.534871,-0.644479 -0.607919,-2.826578 -2.189153,-4.180044 -1.961348,-1.678842 -4.978038,-2.215005 -6.365079,-1.131277 -0.923086,0.72123 1.243041,3.913656 3.45606,5.09353 1.334583,0.711521 4.573571,0.849892 5.098172,0.217791 z m -4.090257,-0.37825 c -1.64266,-0.529437 -3.015545,-1.741254 -3.767171,-3.325181 -0.442124,-0.931724 -0.458351,-1.169579 -0.09551,-1.399516 1.077551,-0.682782 3.941908,-0.04191 5.437522,1.216544 0.960475,0.80819 2.444723,3.246517 2.15347,3.53777 -0.390652,0.390651 -2.475813,0.374095 -3.728369,-0.02961 z m 7.251008,-1.221392 c 2.154115,-1.891334 2.957335,-5.003366 1.927516,-7.468056 -0.590984,-1.41444 -1.025116,-1.642721 -1.959605,-1.030428 -2.223046,1.456605 -3.472215,4.669363 -2.797048,7.193761 0.413921,1.547598 0.880678,2.349539 1.367501,2.349539 0.149409,0 0.807155,-0.470169 1.461636,-1.044816 z m -2.103021,-0.614961 c -0.85468,-2.451727 0.06347,-5.76916 1.983935,-7.168567 1.217043,-0.88683 1.628113,-0.388581 1.791082,2.170976 0.14255,2.238554 -0.311891,3.526696 -1.808479,5.126278 -1.074506,1.148454 -1.531761,1.118533 -1.966538,-0.128687 z M 82.907041,71.41421 c 0.254047,-0.476418 0.373803,-1.562497 0.307481,-2.788348 -0.128772,-2.379801 -1.265787,-4.264641 -3.237186,-5.36629 l -1.224243,-0.684122 -0.661304,0.800626 c -0.55602,0.673157 -0.641847,1.144958 -0.539086,2.963427 0.103432,1.830614 0.273868,2.351256 1.109616,3.389737 1.109945,1.379171 2.962721,2.750436 3.484239,2.578733 0.189393,-0.06238 0.531606,-0.464553 0.760483,-0.893763 z m -1.544296,0.120975 C 80.627931,71.267798 79.099326,69.766373 78.640147,68.861001 77.963298,67.526418 77.801645,65.984303 78.18076,64.478699 l 0.358842,-1.425076 1.326932,0.731975 c 2.279671,1.257539 3.431853,4.297413 2.687269,7.089989 -0.241669,0.906408 -0.349157,0.965945 -1.191058,0.659598 z M 169.84369,111.4871 c -1.91848,-0.34444 -5.88072,-2.17641 -6.6994,-3.09748 -0.94993,-1.06873 -1.84248,-3.55633 -1.84248,-5.13507 0,-0.78164 19.31523,-49.303542 19.83216,-49.820464 0.0899,-0.08985 0.31414,-0.01257 0.49843,0.171724 0.2319,0.231891 -0.32808,1.992588 -1.81826,5.717129 l -2.15336,5.382042 0.74091,0.788674 c 0.4075,0.433766 0.89695,0.787322 1.08764,0.785701 0.19071,-0.0012 1.5737,-3.047707 3.07331,-6.76904 2.1767,-5.401554 2.84738,-6.766068 3.32565,-6.766068 0.73383,0 0.72394,0.03507 -1.584,5.616216 -0.94766,2.291661 -1.65599,4.233662 -1.57408,4.315579 0.0819,0.08187 0.84114,-0.135155 1.68717,-0.482351 l 1.53823,-0.631273 2.06338,-5.295511 c 1.13486,-2.912525 2.11365,-5.354552 2.17508,-5.426722 0.0614,-0.07217 0.38515,3.22e-4 0.71935,0.161167 0.56704,0.27286 0.45862,0.648835 -1.6236,5.629783 l -2.23122,5.337395 0.671,1.56536 c 0.43549,1.015943 0.78121,1.455155 0.98501,1.25135 0.17271,-0.172703 1.09602,-2.26359 2.0518,-4.646414 1.09987,-2.742039 1.92704,-4.370655 2.25334,-4.436615 0.28355,-0.05732 0.51555,0.09281 0.51555,0.333633 0,0.240816 -1.22058,3.43074 -2.7124,7.088718 -1.49183,3.657977 -2.62806,6.735227 -2.52496,6.838318 0.34962,0.349632 2.25566,0.189721 2.56843,-0.215464 0.17105,-0.221604 1.21972,-2.687464 2.33036,-5.479699 1.25598,-3.15762 2.18906,-5.076771 2.4683,-5.076771 0.24693,0 0.44895,0.152035 0.44895,0.337859 0,0.185823 -4.43127,11.318468 -9.84728,24.739205 -10.20798,25.295119 -10.11342,25.094869 -12.44055,26.343099 -1.07044,0.57416 -3.13467,1.02821 -3.98246,0.87599 z m 2.19857,-1.71281 c 1.57485,-0.43731 3.70162,-2.35176 4.43995,-3.99668 0.75312,-1.67788 0.38983,-2.10444 -1.79227,-2.10444 -2.92651,0 -5.98752,2.2412 -6.48958,4.75154 -0.17879,0.89392 -0.0997,1.08559 0.55628,1.34818 1.02404,0.40992 1.81322,0.41025 3.28562,10e-4 z m -3.42142,-0.5012 c -0.26483,-0.26483 0.61136,-2.34543 1.31573,-3.12432 1.01313,-1.12034 2.85701,-1.83093 4.75102,-1.83093 1.72453,0 1.79733,0.0332 1.58777,0.72525 -0.51224,1.69137 -1.57347,2.91411 -3.17742,3.66097 -1.53215,0.71342 -4.01689,1.02922 -4.4771,0.56903 z m -1.33424,-1.23612 c 1.41579,-2.16078 0.79774,-5.6566 -1.3862,-7.84054 -0.77154,-0.771548 -1.57792,-1.34583 -1.79195,-1.276169 -1.11871,0.364118 -1.83855,3.931009 -1.18993,5.896329 0.44049,1.33472 2.71867,4.01394 3.4131,4.01394 0.23926,0 0.669,-0.3571 0.95498,-0.79356 z m -2.05926,-0.4907 c -1.83703,-1.67786 -2.50605,-4.55727 -1.63765,-7.04836 0.41554,-1.192029 0.57795,-1.227931 1.66969,-0.36917 1.16941,0.91986 2.16679,3.16956 2.16679,4.88743 0,1.49051 -0.53115,3.49202 -0.92669,3.49202 -0.12049,0 -0.6929,-0.43286 -1.27214,-0.96192 z m 10.36249,-4.63482 c 2.03507,-0.8503 4.66543,-4.588886 3.82202,-5.432297 -0.47863,-0.478636 -3.78185,-0.344455 -4.82715,0.196093 -2.29014,1.184272 -4.3087,3.914944 -3.82526,5.174754 0.24823,0.64689 3.33524,0.68617 4.83039,0.0614 z m -4.03872,-0.13039 c -0.51349,-0.22083 -0.51056,-0.32171 0.0456,-1.56283 0.69722,-1.556198 2.24131,-2.819829 4.04911,-3.313644 1.57842,-0.431147 2.42847,-0.441636 3.06218,-0.03777 0.7846,0.500028 -0.75192,3.074464 -2.41757,4.050594 -1.40988,0.82625 -3.80936,1.26352 -4.73922,0.86366 z m -1.46617,-1.70577 c 1.20414,-2.369421 0.41007,-5.686659 -1.83264,-7.655779 -1.36695,-1.200197 -1.77295,-1.191365 -2.37886,0.05178 -1.22115,2.505454 -0.6843,5.347553 1.42614,7.550129 0.75416,0.78708 1.56257,1.37071 1.79648,1.29696 0.2339,-0.0737 0.6789,-0.63314 0.98888,-1.24308 z m -2.17229,-0.0361 c -1.7752,-1.396374 -2.57565,-4.603163 -1.74428,-6.98802 0.19462,-0.55831 0.54222,-1.015102 0.77244,-1.015102 0.52932,0 2.3654,2.072393 2.7633,3.118964 0.62403,1.641344 0.18994,5.584078 -0.61482,5.584078 -0.15776,0 -0.68725,-0.31497 -1.17664,-0.69992 z M 177.993,96.404879 c 2.27087,-0.946014 4.7861,-4.191706 4.10384,-5.295632 -0.11147,-0.18028 -0.78918,-0.421578 -1.50614,-0.53623 l -1.30355,-0.208446 1.20424,-0.413994 c 1.61421,-0.554948 3.62927,-2.579476 4.08656,-4.10579 0.44515,-1.485746 0.13064,-1.803947 -1.84087,-1.862437 l -1.28934,-0.03825 1.25419,-0.331785 c 1.50267,-0.397523 4.2388,-2.915415 4.55768,-4.19414 0.37675,-1.510842 0.0315,-1.854907 -1.85315,-1.847061 -1.98276,0.0085 -3.90889,0.804073 -5.15037,2.128032 -0.95058,1.013726 -1.99018,3.212527 -1.72318,3.644564 0.0924,0.149385 0.71173,0.373632 1.37647,0.498335 l 1.20859,0.226733 -0.98834,0.415577 c -1.51676,0.637742 -3.1786,2.251675 -3.84874,3.737787 -0.59288,1.314761 -0.59277,1.35126 0.005,1.788718 0.3359,0.245616 1.12694,0.45293 1.75787,0.460715 l 1.14714,0.01413 -1.2707,0.452655 c -1.64512,0.586051 -2.74193,1.412321 -3.65418,2.752876 -0.98283,1.444263 -1.24297,2.563029 -0.67902,2.92019 0.71022,0.449787 3.09881,0.337779 4.40551,-0.206571 z m -4.12013,-0.607383 c 0,-1.439646 1.67834,-3.38511 3.62032,-4.196517 1.53929,-0.643164 3.75187,-0.659805 3.99354,-0.03009 0.27505,0.716772 -1.06403,2.832538 -2.35073,3.714203 -1.48794,1.019561 -5.26313,1.387054 -5.26313,0.512357 z m 2.73001,-6.871159 c 0.61185,-2.451825 3.23667,-4.251422 6.21911,-4.263861 l 1.69658,-0.0073 -0.5032,1.204349 c -1.03833,2.485071 -3.25686,3.953018 -5.97425,3.953018 -1.64905,0 -1.65807,-0.0061 -1.43824,-0.886416 z m 2.59073,-5.879048 c -0.31538,-0.510287 0.78207,-2.496536 1.94218,-3.515135 1.15389,-1.013116 3.61544,-1.706448 5.05586,-1.424052 0.87419,0.171386 0.87494,0.173981 0.38754,1.340515 -0.65526,1.568248 -1.64403,2.591269 -3.19744,3.308211 -1.38605,0.639703 -3.866,0.811699 -4.18814,0.290461 z m -6.60654,11.84224 c 1.39766,-2.292356 0.50618,-6.376113 -1.77109,-8.113067 -1.37452,-1.048398 -1.65439,-1.041491 -2.21453,0.0547 -1.35582,2.653279 -0.75873,5.640651 1.55337,7.771878 0.79601,0.733742 1.52521,1.334083 1.62041,1.334083 0.0953,0 0.46054,-0.471424 0.81184,-1.047594 z m -2.01184,-0.324049 c -1.3609,-1.118802 -2.29706,-3.57281 -2.07576,-5.441331 0.10087,-0.85211 0.34338,-1.848061 0.53881,-2.213226 l 0.35534,-0.663948 0.95759,0.681868 c 1.07755,0.767281 2.04387,2.485718 2.35073,4.180331 0.21764,1.20201 -0.39919,3.901987 -0.93132,4.076481 -0.1734,0.05689 -0.71132,-0.222214 -1.19539,-0.620175 z m 4.7965,-6.457884 c 1.12467,-2.174899 0.37148,-5.82235 -1.54808,-7.496685 -1.81404,-1.582318 -1.80553,-1.580905 -2.51545,-0.416467 -0.88248,1.44748 -0.89368,4.348325 -0.0234,6.054286 0.67448,1.322095 2.83804,3.32445 3.29015,3.045015 0.14822,-0.09162 0.50674,-0.625365 0.79673,-1.186149 z m -2.38557,-0.427882 c -1.96813,-2.068946 -2.55884,-5.583617 -1.24125,-7.385517 0.3713,-0.507777 0.49852,-0.46973 1.56745,0.468804 2.03684,1.788377 2.7537,5.756454 1.37945,7.63586 -0.42122,0.576025 -0.50863,0.539172 -1.70565,-0.719147 z m 4.70792,-5.385428 c 0.74627,-0.899196 1.10614,-3.522822 0.69296,-5.052024 -0.43867,-1.623581 -3.23263,-4.745701 -3.88569,-4.342086 -1.16333,0.718976 -1.64981,4.445298 -0.83116,6.366468 0.49289,1.156653 2.67413,3.454744 3.27911,3.454744 0.21468,0 0.54982,-0.192195 0.74478,-0.427102 z m -1.80525,-0.785677 c -1.41232,-1.319318 -2.10958,-2.896227 -2.09714,-4.742875 0.0122,-1.742862 0.51225,-3.392064 1.02946,-3.392064 0.17577,0 0.80137,0.481803 1.39023,1.070668 1.12203,1.122018 1.85184,2.973733 1.85184,4.698529 0,0.956637 -0.76103,3.25619 -1.07763,3.25619 -0.0789,0 -0.57247,-0.400702 -1.09676,-0.890448 z m 10.48737,-4.882062 c 1.52145,-0.782607 2.80253,-2.130969 3.41291,-3.592191 0.56491,-1.352381 0.37798,-1.756446 -0.92766,-2.005145 -1.64984,-0.314266 -3.84745,0.354214 -5.32653,1.620256 -1.58123,1.353466 -2.72403,3.535565 -2.18914,4.180044 0.5305,0.639228 3.63674,0.513904 5.03042,-0.202964 z m -4.2032,0.0826 c -0.70016,-0.197763 -0.70034,-0.192999 0.0664,-1.696033 1.10328,-2.162606 3.40817,-3.576036 5.81616,-3.566655 1.28002,0.0049 1.68362,0.40677 1.33355,1.327517 -0.42479,1.117266 -1.89552,2.796791 -2.90728,3.319991 -0.96471,0.498871 -3.4596,0.85507 -4.30887,0.61518 z m -1.71598,-1.159651 c 0.74896,-1.14441 0.9615,-3.293092 0.49172,-4.97096 -0.45889,-1.639017 -2.85362,-4.462391 -3.5884,-4.230712 -0.71987,0.226989 -1.5528,2.275833 -1.54588,3.802562 0.009,1.892065 0.88909,3.778806 2.37055,5.079545 1.41186,1.239618 1.64813,1.272852 2.27201,0.319565 z m -2.13552,-0.80584 c -1.49659,-1.599581 -1.95103,-2.887723 -1.80848,-5.126277 0.16298,-2.559557 0.57404,-3.057806 1.79108,-2.170976 1.92051,1.399407 2.83861,4.71684 1.98393,7.168567 -0.43477,1.24722 -0.89203,1.277141 -1.96653,0.128686 z m 5.54675,-3.06218 c 2.02848,-1.38095 3.00419,-2.951049 3.15836,-5.08248 0.15849,-2.191115 -0.36856,-3.862318 -1.21809,-3.862318 -1.01885,0 -3.12876,1.83829 -3.87194,3.37351 -0.57314,1.183943 -0.69628,1.892856 -0.58826,3.386351 0.12483,1.725599 0.62117,2.910188 1.2194,2.910188 0.12935,0 0.7146,-0.326363 1.30053,-0.725251 z m -1.83414,-0.787529 c -0.74971,-2.815187 0.39636,-5.847093 2.68811,-7.111284 l 1.33237,-0.734984 0.3787,1.578602 c 0.28569,1.190948 0.28847,1.913641 0.011,2.94296 -0.39993,1.485247 -2.29545,3.693515 -3.45504,4.025116 -0.58722,0.167927 -0.75743,0.04313 -0.95545,-0.70041 z m -72.71927,35.217033 c -1.76087,-0.62822 -3.34573,-1.78343 -4.27909,-3.11906 -0.70883,-1.01432 -1.52481,-4.819666 -6.315614,-29.452807 -4.476791,-23.018605 -5.419991,-28.33912 -5.06339,-28.562434 0.618968,-0.387624 0.748178,0.03411 2.019155,6.59076 0.613401,3.16434 1.185636,5.823713 1.271634,5.909715 0.303777,0.303769 2.788105,0.505392 2.774765,0.225193 -0.0073,-0.156307 -0.70627,-3.796296 -1.552946,-8.088867 -1.307659,-6.629675 -1.46735,-7.832327 -1.060739,-7.988356 0.263269,-0.101032 0.580751,-0.07014 0.705515,0.06864 0.124751,0.138775 0.686339,2.639198 1.247951,5.556498 0.561612,2.917295 1.087999,5.37107 1.169759,5.45283 0.19145,0.191451 0.21586,0.161206 1.33124,-1.649413 l 0.94217,-1.52946 -1.21274,-5.884245 c -0.66702,-3.236336 -1.14964,-6.065561 -1.0725,-6.287166 0.0771,-0.221605 0.41222,-0.402918 0.74462,-0.402918 0.53148,0 0.73682,0.742037 1.70238,6.151998 l 1.09801,6.151998 1.56267,1.122686 c 0.85945,0.617477 1.62909,1.056259 1.71027,0.97507 0.0811,-0.08119 -0.30416,-2.502719 -0.85635,-5.381176 -0.9996,-5.210806 -1.03688,-6.119839 -0.25095,-6.119256 0.28312,2.1e-4 0.89647,2.503018 1.9499,7.956697 0.84527,4.376017 1.59915,8.018695 1.67531,8.094837 0.23812,0.238127 2.42899,-1.257087 2.423,-1.65364 -0.004,-0.207146 -0.51028,-2.915016 -1.12699,-6.017491 -1.2986,-6.532853 -1.29812,-6.527566 -0.57316,-6.38795 0.46194,0.08896 1.41914,4.56471 5.95066,27.825021 2.97009,15.245455 5.40581,28.23978 5.41269,28.87628 0.0186,1.720016 -1.73311,4.994446 -3.18642,5.956206 -0.7828,0.51804 -2.35914,1.01339 -4.55845,1.43246 -1.84904,0.35234 -3.36216,0.63424 -3.36251,0.62645 -3.2e-4,-0.007 -0.54929,-0.20988 -1.21985,-0.4491 z m 3.4408,-1.56665 c 1.27111,-0.92945 -0.58465,-4.933672 -3.03934,-6.558118 -0.9652,-0.638741 -1.86412,-0.922161 -3.24058,-1.02173 l -1.90486,-0.137787 v 1.016101 c 0,2.969724 2.86621,6.160554 6.12436,6.817984 0.62049,0.1252 1.20923,0.24432 1.30832,0.26471 0.099,0.0203 0.43753,-0.15113 0.7521,-0.38116 z m -2.98128,-0.70768 c -2.32794,-0.72621 -4.07069,-2.71732 -4.52992,-5.175478 l -0.28264,-1.512877 1.41723,0.194254 c 2.85996,0.392004 5.02216,2.114338 5.88335,4.686501 0.79729,2.38133 0.36285,2.69696 -2.48802,1.8076 z m 6.72289,-0.19688 c 2.62797,-1.57401 4.04557,-4.267808 3.80058,-7.222098 -0.20331,-2.451679 -0.58443,-2.763825 -2.25635,-1.848024 -1.55818,0.853498 -1.89317,0.739821 -0.89409,-0.303411 1.11347,-1.162672 1.69852,-2.832953 1.70642,-4.871691 0.005,-1.338823 -0.14862,-2.024382 -0.54236,-2.417507 -0.51758,-0.516792 -0.62694,-0.506412 -1.87857,0.178222 -0.73094,0.399837 -1.37886,0.677104 -1.43981,0.616154 -0.0609,-0.06091 0.25349,-0.533129 0.69873,-1.0493 1.25016,-1.44927 1.87958,-3.417099 1.69786,-5.308263 -0.2231,-2.321859 -0.7291,-2.738521 -2.33275,-1.920937 -1.39458,0.710996 -1.81696,0.637754 -1.00494,-0.174262 1.6635,-1.663505 2.43276,-5.943593 1.33258,-7.414403 -0.46113,-0.616483 -0.48799,-0.614985 -1.82485,0.101238 -0.74625,0.399826 -1.40783,0.675972 -1.47015,0.613645 -0.0624,-0.06238 0.32338,-0.662826 0.85711,-1.334436 1.20893,-1.521259 1.74277,-3.431671 1.48481,-5.313685 -0.28784,-2.100048 -0.7296,-2.416056 -2.27558,-1.627882 -1.39458,0.711009 -1.81695,0.637767 -1.00494,-0.174262 1.64021,-1.640198 2.42952,-5.928619 1.36033,-7.39082 -0.3972,-0.543206 -0.54348,-0.559375 -1.49502,-0.165232 -1.50669,0.624088 -3.39764,2.655856 -4.04194,4.342891 -0.65045,1.703184 -0.50946,4.457762 0.26796,5.235179 0.45856,0.458559 0.61491,0.440297 1.6973,-0.198335 1.42253,-0.839305 1.77204,-0.683537 0.78315,0.349048 -1.06413,1.111163 -1.65828,2.74694 -1.67503,4.611678 -0.0157,1.748138 0.46934,3.065909 1.12777,3.063886 0.21537,-6.45e-4 0.87935,-0.298574 1.47551,-0.662046 1.32066,-0.805145 1.56527,-0.668126 0.6602,0.369819 -1.13648,1.303321 -1.64695,2.570095 -1.7954,4.455471 -0.24699,3.13708 0.80113,4.063126 2.89704,2.559618 1.14458,-0.821068 1.39969,-0.621417 0.50934,0.398619 -1.29818,1.487257 -1.90461,3.096451 -1.90461,5.053997 0,1.110421 0.18615,2.139825 0.45292,2.50465 0.44648,0.610611 0.47048,0.610465 1.69225,-0.01096 0.68164,-0.346477 1.36205,-0.686728 1.51202,-0.756121 0.14995,-0.06944 -0.24069,0.620113 -0.86811,1.532223 -1.56745,2.278665 -1.94173,5.59286 -0.79288,7.020933 0.36028,0.447838 1.67758,0.05141 2.59846,-0.781961 0.84182,-0.761836 0.99602,-0.310965 0.20063,0.586586 -1.65233,1.864544 -2.36837,5.128889 -1.57991,7.202659 0.38104,1.00224 0.79397,1.02934 2.26432,0.1487 z m -1.79987,-0.33261 c -0.12443,-0.20134 -0.22624,-1.12809 -0.22624,-2.05946 0,-2.969346 2.12793,-6.109435 4.3042,-6.351482 0.74858,-0.08321 0.78846,0.0049 0.88074,1.9536 0.12182,2.571788 -0.75016,4.541502 -2.60531,5.885362 -1.38934,1.00644 -1.99404,1.15341 -2.35339,0.57198 z m -1.54265,-7.772895 c -0.6897,-2.573616 0.51616,-6.05885 2.582,-7.462619 1.70525,-1.158749 2.29531,-1.09161 2.55462,0.290668 0.49008,2.612266 -0.92842,5.751029 -3.20091,7.082797 -1.69007,0.990445 -1.69412,0.990628 -1.93571,0.08918 z M 111.5296,87.15096 c -0.4088,-2.726107 1.11916,-5.867061 3.42685,-7.044352 1.59611,-0.81427 1.85107,-0.55451 1.8582,1.8931 0.006,2.248739 -1.01914,4.393559 -2.67449,5.592694 -1.82634,1.322996 -2.35949,1.232832 -2.61056,-0.441442 z m -1.2834,-6.551049 c -0.42877,-1.117364 -0.17533,-3.730732 0.50141,-5.170439 0.72143,-1.534806 2.80184,-3.345076 3.84425,-3.345076 0.43267,0 0.62868,0.347586 0.78542,1.39284 0.40641,2.71016 -1.10262,5.819549 -3.39085,6.986911 -1.52134,0.776138 -1.49527,0.774103 -1.74023,0.135764 z m -1.65435,-8.61902 c -0.41056,-2.73779 1.10413,-5.820315 3.44741,-7.015771 1.60346,-0.818034 1.8686,-0.562879 1.87123,1.800743 0.002,2.215541 -1.18902,4.691244 -2.77709,5.770366 -1.79624,1.220577 -2.29147,1.11237 -2.54155,-0.555338 z m -1.24666,-6.530727 c -0.43359,-1.129901 -0.17877,-3.83414 0.49179,-5.21936 0.71716,-1.481445 2.95452,-3.386957 3.78828,-3.226389 0.75216,0.144854 1.10518,2.084994 0.68679,3.774533 -0.51144,2.065279 -1.71912,3.766379 -3.21602,4.530042 -1.53303,0.782095 -1.50574,0.77989 -1.75084,0.141174 z m 4.26433,30.848263 c 0.16345,-1.155691 -0.8335,-3.446061 -2.04141,-4.68987 -1.40276,-1.444452 -2.73398,-2.109447 -4.68545,-2.340578 -1.93587,-0.229267 -2.20104,0.175066 -1.57686,2.404452 0.82864,2.959556 4.21548,5.644327 6.90591,5.474365 1.08408,-0.06847 1.30661,-0.203537 1.39781,-0.848369 z m -4.66597,-0.672706 c -1.29346,-0.741856 -1.84095,-1.320207 -2.4981,-2.63894 -0.46288,-0.928876 -0.8416,-2.041878 -0.8416,-2.473336 0,-0.73747 0.0858,-0.77481 1.43083,-0.623196 2.99738,0.337852 5.30488,2.405537 5.93885,5.321673 l 0.29784,1.369924 -1.33567,-0.0024 c -0.88499,-0.0024 -1.89457,-0.323586 -2.99215,-0.953105 z m 3.0947,-6.2816 c 0.30594,-0.368613 0.28153,-0.833177 -0.11427,-2.175764 -0.90068,-3.055333 -3.87493,-5.391276 -6.88425,-5.406834 -1.355,-0.0073 -1.36992,0.0049 -1.36992,1.133933 0,3.147886 3.84962,6.787504 7.29366,6.895796 0.37718,0.01218 0.86082,-0.189344 1.07476,-0.447131 z m -3.2481,-0.620674 c -2.54247,-0.908576 -4.04537,-2.73243 -4.64174,-5.632994 l -0.22236,-1.08151 1.40299,0.217291 c 3.31391,0.513247 5.81109,2.798192 6.29115,5.756442 0.18469,1.138099 0.15527,1.184905 -0.73623,1.171321 -0.51072,-0.0073 -1.45293,-0.201527 -2.09381,-0.43055 z m 1.91836,-7.574752 c 0.35028,-2.476751 -2.77906,-6.135349 -5.8322,-6.818606 -2.4878,-0.556751 -2.954116,-0.324426 -2.68809,1.339188 0.56615,3.54062 3.93034,6.529436 7.12248,6.327787 1.08408,-0.06847 1.30661,-0.203549 1.39781,-0.848369 z m -4.39433,-0.402579 c -1.97799,-0.979078 -3.61134,-3.460531 -3.61134,-5.486472 0,-0.880178 1.76769,-0.777003 3.76828,0.219935 1.93096,0.962242 3.30082,2.750424 3.5542,4.639638 l 0.17611,1.312897 -1.25121,-2.56e-4 c -0.68815,-1.46e-4 -1.87437,-0.308722 -2.63604,-0.685742 z m 2.80977,-6.53571 c 0.72865,-0.877974 -0.49159,-3.857506 -2.2831,-5.574773 -1.34567,-1.289896 -3.08696,-2.030936 -4.77233,-2.030936 -1.292551,0 -1.29969,0.0073 -1.29969,1.238644 0,1.588787 1.157031,3.771289 2.63235,4.965355 1.99989,1.61866 4.94421,2.339817 5.72277,1.40171 z m -3.83664,-0.861478 c -0.79459,-0.360414 -1.7166,-0.90117 -2.04889,-1.201669 -0.75757,-0.685072 -1.676274,-2.478493 -1.972364,-3.850294 L 99.039933,67.24937 h 1.346827 c 3.03478,0 5.68244,2.346104 6.28751,5.571423 0.22322,1.189864 0.21766,1.197563 -0.85879,1.190534 -0.5959,-0.0037 -1.73357,-0.301974 -2.52817,-0.662399 z m 2.50837,-7.12287 c 0.34739,-1.830579 -1.83347,-5.229149 -4.07989,-6.357929 -1.40812,-0.707548 -3.305778,-1.088929 -4.031869,-0.810302 -0.743659,0.285373 -0.65453,1.61814 0.23615,3.530855 1.266091,2.718919 3.748179,4.387711 6.325549,4.252909 1.05942,-0.05543 1.47508,-0.220471 1.55006,-0.615533 z m -2.72683,0.06993 c -2.60078,-0.6197 -4.841384,-2.976451 -5.171805,-5.43991 -0.167707,-1.25038 -0.127273,-1.342672 0.587586,-1.340996 3.295699,0.0077 6.699409,3.147867 6.723809,6.203152 0.007,0.955589 -0.25557,1.026651 -2.13959,0.577754 z m 3.54613,-5.953193 c 1.53857,-2.964755 0.91616,-6.248107 -1.62916,-8.594316 l -1.48517,-1.368969 -0.74881,0.939117 c -2.06229,2.58636 -1.59853,6.719855 1.02529,9.138418 0.80884,0.745559 1.63507,1.300751 1.83607,1.233746 0.20099,-0.06701 0.6518,-0.673596 1.00178,-1.347996 z m -2.60838,-0.204284 c -1.41939,-1.387727 -2.14974,-3.464253 -1.91513,-5.445134 0.19631,-1.657508 0.99586,-3.560802 1.49586,-3.560802 0.51588,0 2.35299,2.047052 2.80241,3.122671 0.85463,2.045409 0.16161,6.869717 -0.98686,6.869717 -0.21302,0 -0.84134,-0.443902 -1.39628,-0.986452 z m 46.36956,45.770539 c -1.87498,-0.37179 -3.48867,-0.90507 -4.23677,-1.40014 -1.4651,-0.96956 -3.21685,-4.23627 -3.19814,-5.963973 0.007,-0.636499 2.4426,-13.630824 5.41269,-28.87628 4.53153,-23.260312 5.48872,-27.736062 5.95066,-27.825023 0.72198,-0.139039 0.72531,-0.176366 -0.58044,6.509235 -0.61897,3.169182 -1.1254,5.877054 -1.1254,6.017491 0,0.313909 2.23623,1.724828 2.4287,1.532355 0.0762,-0.07614 0.83004,-3.71882 1.6753,-8.094837 1.05344,-5.453678 1.66678,-7.956487 1.9499,-7.956697 0.78594,-6.44e-4 0.74866,0.90845 -0.25094,6.119256 -0.55218,2.878458 -0.93755,5.299989 -0.85636,5.381176 0.0811,0.08119 0.85081,-0.357593 1.71028,-0.97507 l 1.56267,-1.122686 1.09801,-6.151998 c 0.94225,-5.279377 1.17959,-6.151998 1.67322,-6.151998 0.31639,0 0.65242,0.124889 0.74676,0.277534 0.0943,0.152645 -0.36227,2.967809 -1.01468,6.255922 -1.17724,5.933142 -1.18174,5.986691 -0.59515,7.075926 0.80042,1.486283 1.43816,2.330671 1.62168,2.14715 0.0836,-0.08359 0.61149,-2.538864 1.1731,-5.45616 0.5616,-2.9173 1.12319,-5.417723 1.24795,-5.556498 0.12476,-0.138774 0.44223,-0.169661 0.70552,-0.06864 0.40659,0.156029 0.2469,1.358681 -1.06076,7.988356 -0.84667,4.292571 -1.5455,7.93256 -1.55294,8.088867 -0.0136,0.287604 2.47491,0.07467 2.78814,-0.238569 0.0933,-0.09336 0.70911,-2.933213 1.36832,-6.310787 0.65922,-3.377571 1.26404,-6.206511 1.34406,-6.286528 0.08,-0.08002 0.33848,-0.02621 0.57438,0.119574 0.34382,0.212493 -0.66323,5.880463 -5.07728,28.576445 -6.16633,31.705757 -5.66812,29.936767 -8.94294,31.753477 -2.17208,1.20497 -3.05157,1.28474 -6.53954,0.59311 z m 5.44595,-1.93125 c 2.3236,-1.17492 4.19036,-3.90801 4.19036,-6.135027 V 96.82667 l -1.90487,0.137786 c -1.37646,0.09953 -2.27537,0.382989 -3.24057,1.02173 -2.41569,1.598619 -4.31114,5.628154 -3.07322,6.533344 0.66192,0.48401 2.48449,0.23891 4.0283,-0.54173 z m -3.86802,-0.2565 c 0,-0.98555 0.68479,-2.72208 1.5137,-3.838515 0.94359,-1.270916 2.82078,-2.277673 4.73649,-2.54026 l 1.41723,-0.194253 -0.28919,1.547975 c -0.48979,2.621773 -2.0723,4.386013 -4.61629,5.146463 -2.1259,0.63546 -2.76194,0.6075 -2.76194,-0.12146 z m -1.60369,-0.23026 c 0.78844,-2.07377 0.0724,-5.338094 -1.57992,-7.202638 -0.7954,-0.897564 -0.64119,-1.348422 0.20063,-0.586599 0.92088,0.833384 2.23819,1.229811 2.59847,0.781973 1.13313,-1.408556 0.77321,-4.73927 -0.75803,-7.014659 -0.6073,-0.902473 -0.99758,-1.589445 -0.86725,-1.526595 0.13032,0.06286 0.79466,0.39773 1.47629,0.744207 1.22177,0.62104 1.24577,0.621186 1.69227,0.01096 0.26677,-0.364824 0.45291,-1.394229 0.45291,-2.504637 0,-1.957559 -0.60642,-3.566741 -1.90462,-5.05401 -0.89035,-1.020024 -0.63523,-1.219687 0.50935,-0.398619 2.09592,1.503508 3.14404,0.577474 2.89703,-2.559618 -0.14844,-1.885364 -0.6589,-3.152137 -1.79538,-4.455459 -0.92407,-1.059728 -0.69593,-1.131265 0.87085,-0.273052 1.54578,0.846701 1.90387,0.655517 2.3326,-1.24549 0.45739,-2.027975 -0.29095,-4.548474 -1.79783,-6.055369 -0.83363,-0.833629 -0.35619,-0.938571 0.89947,-0.197726 1.37092,0.808873 2.04311,0.604958 2.30389,-0.698887 0.71691,-3.584613 -1.16402,-7.336813 -4.33662,-8.650947 -0.92509,-0.383186 -1.07787,-0.36507 -1.47247,0.174574 -1.06919,1.462202 -0.27987,5.750619 1.36033,7.39083 0.80953,0.809518 0.391,0.885953 -0.99157,0.181072 -1.50074,-0.765125 -1.95725,-0.501576 -2.26269,1.306269 -0.32657,1.93295 0.10575,3.691919 1.35285,5.504954 0.62129,0.903204 1.00693,1.585413 0.85696,1.516032 -0.14996,-0.06944 -0.83037,-0.409644 -1.512,-0.756122 -1.22177,-0.621039 -1.24577,-0.621185 -1.69226,-0.01096 -1.08184,1.479496 -0.30372,5.756685 1.34769,7.408104 0.81203,0.812016 0.38965,0.885259 -1.00494,0.174262 -1.78056,-0.907784 -2.25082,-0.377847 -2.23238,2.515614 0.0141,2.218964 0.42562,3.378115 1.73034,4.874363 0.92429,1.059995 0.69601,1.131131 -0.87393,0.272369 -1.25162,-0.684633 -1.36099,-0.695013 -1.87858,-0.178221 -0.39373,0.393125 -0.54752,1.078684 -0.54235,2.417506 0.007,2.038739 0.59295,3.709019 1.70641,4.871691 0.99909,1.043232 0.6641,1.15691 -0.89407,0.303411 -1.67193,-0.915801 -2.05305,-0.603654 -2.25636,1.848024 -0.24499,2.95429 1.1726,5.648083 3.80058,7.222093 1.47035,0.88065 1.88328,0.85354 2.26433,-0.1487 z m -2.80224,-0.74457 c -1.77027,-1.28238 -2.68544,-3.246637 -2.68544,-5.763884 0,-1.08592 0.14345,-2.063037 0.31878,-2.171402 0.58086,-0.358989 2.64308,0.893214 3.5635,2.1638 1.07043,1.477693 1.64515,3.831126 1.32039,5.406916 -0.29908,1.45118 -0.89755,1.53785 -2.51723,0.36457 z m 1.91227,-7.311494 c -2.24951,-1.348263 -3.65415,-4.483725 -3.16846,-7.072685 0.25932,-1.382278 0.84936,-1.449417 2.55462,-0.290668 2.06584,1.403768 3.27171,4.889003 2.58201,7.462618 -0.24222,0.903826 -0.29936,0.90095 -1.96817,-0.09929 z m 0.98273,-7.842598 c -1.65535,-1.199135 -2.68103,-3.343955 -2.67449,-5.592693 0.007,-2.455712 0.26042,-2.708223 1.88499,-1.879431 2.33171,1.189547 3.78747,4.211487 3.38812,7.033278 -0.23669,1.67247 -0.77106,1.76272 -2.59862,0.438846 z m 1.91828,-7.307146 c -2.23799,-1.341356 -3.61615,-4.459565 -3.12593,-7.072689 0.26438,-1.409275 0.88045,-1.455655 2.61784,-0.197092 1.61555,1.17031 2.67942,3.348426 2.67942,5.485741 0,1.621084 -0.22741,2.610968 -0.59857,2.60551 -0.11403,-0.0012 -0.82174,-0.371342 -1.57276,-0.82147 z m 0.98676,-7.83969 c -1.75103,-1.268442 -2.80575,-3.716941 -2.61129,-6.061985 0.0781,-0.941677 0.2248,-1.794956 0.32601,-1.89617 0.10124,-0.101239 0.77335,0.116589 1.49363,0.484081 2.33112,1.189243 3.84458,4.277652 3.43493,7.0094 -0.2548,1.69909 -0.80555,1.795919 -2.64328,0.464674 z m 2.07021,-7.152559 c -0.66525,-0.351192 -1.56623,-1.178826 -2.00215,-1.83918 -1.47033,-2.227333 -1.75084,-6.200285 -0.45538,-6.449905 0.8313,-0.160181 3.06937,1.747648 3.78546,3.226883 0.87855,1.81482 0.94011,5.773491 0.0889,5.714977 -0.11403,-0.0073 -0.75155,-0.301583 -1.4168,-0.652775 z m 1.53188,31.33042 c 1.81201,-0.827684 3.81412,-3.118392 4.32722,-4.950995 0.62419,-2.229386 0.35903,-2.633719 -1.57684,-2.404452 -1.8799,0.222651 -3.182,0.845421 -4.53698,2.169959 -1.59945,1.563498 -2.78341,4.817971 -2.02771,5.573691 0.41231,0.4123 2.53468,0.196288 3.81431,-0.388203 z m -3.33443,-1.411505 c 0.48037,-2.16536 1.7016,-3.732111 3.59692,-4.614562 0.91933,-0.428028 2.14293,-0.779659 2.7191,-0.781389 0.87964,-0.0024 1.0476,0.115858 1.0476,0.739395 0,0.408396 -0.37873,1.50254 -0.8416,2.431416 -1.03094,2.068811 -3.35172,3.587195 -5.49026,3.592044 l -1.33566,0.0024 0.3039,-1.369925 z m 4.00434,-5.872101 c 2.65649,-0.788893 5.29329,-3.997498 5.29329,-6.441197 0,-1.132312 -0.0143,-1.144105 -1.36993,-1.1371 -3.00931,0.01547 -5.98356,2.3515 -6.88425,5.406834 -0.77317,2.622797 -0.13498,3.090834 2.96089,2.171463 z m -2.6653,-1.306416 c 0.48829,-3.008978 2.96316,-5.290464 6.29938,-5.80717 l 1.40299,-0.217292 -0.21697,1.081511 c -0.65977,3.288657 -2.95719,5.532815 -6.10451,5.962988 l -1.5815,0.216158 z m 4.96891,-6.588998 c 2.40553,-1.092 4.06523,-3.235662 4.4713,-5.77513 0.26586,-1.662554 -0.20049,-1.89589 -2.68009,-1.340978 -2.11127,0.472471 -4.35947,2.327195 -5.28982,4.363967 -0.59823,1.309705 -0.77826,2.779565 -0.3882,3.169619 0.41983,0.41983 2.54522,0.191537 3.88681,-0.417478 z m -3.37194,-1.279516 c 0.10026,-0.747216 0.57363,-1.923375 1.05201,-2.613685 1.01245,-1.460954 3.60868,-2.888126 5.25391,-2.888126 1.09096,0 1.10431,0.01681 0.91882,1.159956 -0.49272,3.036231 -2.78733,5.256535 -5.72405,5.538724 l -1.68291,0.161701 z m 5.70698,-6.72246 c 1.99147,-1.230079 3.2846,-3.163248 3.48063,-5.203394 l 0.15703,-1.634339 h -1.34069 c -3.28637,0 -6.36664,2.631874 -7.15491,6.113335 -0.1642,0.725226 -0.12238,1.274473 0.11926,1.56558 0.55202,0.665128 3.005,0.229693 4.73873,-0.841182 z m -4.3498,-0.621637 c 0.60508,-3.225319 3.25273,-5.571422 6.28751,-5.571422 h 1.34683 l -0.22612,1.047594 c -0.2961,1.371801 -1.2148,3.165222 -1.97237,3.850294 -0.95535,0.863914 -3.39211,1.85632 -4.57707,1.864068 -1.07644,0.0073 -1.08199,-6.45e-4 -0.85878,-1.190534 z m 4.79648,-6.336937 c 2.4965,-1.04311 4.90639,-4.452316 4.65919,-6.591243 -0.0941,-0.814318 -0.18629,-0.858336 -1.64087,-0.783619 -1.99695,0.102579 -3.74283,1.013099 -5.19453,2.70908 -1.40704,1.643817 -2.24976,4.23561 -1.59131,4.894075 0.37224,0.372219 2.66241,0.233458 3.76752,-0.228293 z m -3.33065,-0.737238 c 0.0239,-3.082659 3.4131,-6.223736 6.72381,-6.231488 0.71487,-0.0016 0.7553,0.09061 0.58758,1.340995 -0.3639,2.713133 -2.89485,5.088694 -5.94855,5.583338 -1.34305,0.217547 -1.36979,0.203951 -1.36284,-0.692845 z m 1.44565,-5.302744 c 1.95145,-1.798788 2.68959,-4.03125 2.14197,-6.478275 -0.2102,-0.939298 -0.71741,-2.12821 -1.12711,-2.642028 l -0.74492,-0.934222 -1.39521,1.258058 c -2.32624,2.097537 -3.13507,4.872661 -2.20811,7.576074 0.46494,1.355999 1.21406,2.546191 1.60259,2.546191 0.16086,0 0.93971,-0.596613 1.73079,-1.325798 z m -2.5459,-0.614732 c -0.63319,-1.582481 -0.67071,-4.162608 -0.081,-5.573849 0.45939,-1.099464 2.29066,-3.122671 2.82645,-3.122671 0.55532,0 1.55696,2.695796 1.55696,4.190354 0,1.727703 -0.91184,3.884404 -2.11293,4.997535 -1.19138,1.104146 -1.58651,1.015456 -2.18944,-0.491369 z M 127.6178,103.50206 c -1.4421,-0.77005 -2.3812,-1.74212 -3.4158,-3.535716 l -0.92967,-1.611679 -0.002,-28.929555 c -0.002,-28.614816 0.004,-28.929567 0.63498,-28.929567 0.61178,0 0.64158,0.266928 0.72525,6.495085 l 0.0872,6.495082 1.18138,0.408769 c 0.64977,0.224822 1.26623,0.323924 1.36992,0.22023 0.10356,-0.1037 0.18842,-3.790634 0.18842,-8.193195 0,-7.789759 0.0173,-8.00465 0.64467,-8.00465 0.62011,0 0.64467,0.214891 0.64467,5.640861 0,3.102474 0.11439,5.640862 0.25408,5.640862 0.13974,0 0.79247,-0.644093 1.4505,-1.431316 l 1.19643,-1.431312 V 40.1924 c 0,-5.928666 0.0225,-6.143556 0.64468,-6.143556 0.62211,0 0.64466,0.21489 0.64466,6.143556 v 6.143559 l 1.19643,1.431312 c 0.65804,0.787223 1.31077,1.431316 1.45051,1.431316 0.13974,0 0.25407,-2.538388 0.25407,-5.640862 0,-5.42597 0.0246,-5.640861 0.64468,-5.640861 0.62736,0 0.64467,0.214891 0.64467,8.00465 0,4.402561 0.0848,8.089495 0.18854,8.193195 0.10368,0.103699 0.72016,0.0046 1.36993,-0.22023 l 1.18138,-0.408769 0.0872,-6.495082 c 0.0837,-6.228157 0.11342,-6.495085 0.72525,-6.495085 0.63104,0 0.638,0.315818 0.638,28.943821 v 28.943821 l -1.0476,1.732165 c -0.57617,0.95268 -1.60445,2.1792 -2.28507,2.72558 -1.2178,0.97762 -1.30245,0.9949 -5.31853,1.08546 -3.25625,0.0735 -4.27647,-0.0123 -5.04804,-0.42433 z m 4.04211,-1.46467 c 0.40852,-0.76336 0.14202,-2.908499 -0.52283,-4.208166 -1.09703,-2.144528 -3.07841,-3.718501 -5.37639,-4.270915 -1.33048,-0.319834 -1.76258,0.819374 -1.22386,3.226659 0.47911,2.140848 2.3208,4.381972 4.37032,5.318132 1.67935,0.76707 2.31518,0.75191 2.75276,-0.0657 z m -3.26615,-0.72616 c -1.8857,-0.9959 -3.16831,-3.067294 -3.42215,-5.526733 l -0.19134,-1.85403 1.09643,0.232276 c 3.07379,0.65118 5.44795,3.622696 5.44795,6.818707 0,0.91784 -0.11342,1.08007 -0.75513,1.08007 -0.41533,0 -1.39442,-0.33763 -2.17576,-0.75029 z m 7.28242,0.79187 c 2.0495,-0.93616 3.89121,-3.177284 4.3703,-5.318132 0.53873,-2.407285 0.1066,-3.546493 -1.22385,-3.226659 -3.16523,0.760897 -5.5021,3.264645 -6.03361,6.464491 -0.25386,1.52842 0.1986,2.68715 1.04507,2.6763 0.30401,-0.004 1.13295,-0.27209 1.84209,-0.596 z m -2.41752,-1.07948 c 0,-3.215996 2.35733,-6.206847 5.39911,-6.850144 l 1.0476,-0.221555 v 1.412832 c 0,3.052653 -2.46641,6.135207 -5.27335,6.590707 -1.16137,0.18846 -1.17336,0.17894 -1.17336,-0.93184 z m -1.45643,-6.993498 c 0.67572,-3.076522 -2.35924,-7.310213 -5.79601,-8.085327 -1.04744,-0.236236 -1.20556,-0.183034 -1.52233,0.512187 -0.51819,1.137307 0.20728,3.99623 1.39828,5.510356 1.14359,1.453842 3.63878,2.996469 4.85279,3.000185 0.68979,0.0024 0.90183,-0.18413 1.06727,-0.937401 z m -3.40847,-0.454928 c -1.89565,-1.001156 -3.2538,-3.185953 -3.4498,-5.549575 -0.15792,-1.904272 -0.10149,-1.954026 1.57816,-1.391659 2.64557,0.885771 4.3478,3.093831 4.70406,6.10189 0.181,1.528205 0.15737,1.58963 -0.61177,1.58963 -0.44001,0 -1.43931,-0.337632 -2.22065,-0.750286 z m 7.82766,0.5059 c 0.83173,-0.486079 1.94761,-1.437273 2.47972,-2.113756 1.19101,-1.514126 1.91648,-4.373049 1.39829,-5.510356 -0.31676,-0.695221 -0.47489,-0.748423 -1.52232,-0.512187 -3.43679,0.775114 -6.47174,5.008805 -5.79602,8.085327 0.27132,1.235293 1.38559,1.251813 3.44033,0.05092 z m -2.87025,-1.29482 c 0.36228,-3.058873 2.04825,-5.26111 4.71004,-6.152314 1.59109,-0.532714 1.64446,-0.500101 1.641,1.003066 -0.007,3.128259 -2.42289,6.120336 -5.32106,6.590651 l -1.22422,0.198664 z m -1.54419,-6.5138 c 0.61918,-2.819062 -2.10008,-6.916957 -5.21102,-7.852969 -2.04523,-0.615351 -2.50605,-0.15438 -2.20603,2.206744 0.4375,3.443001 3.39887,6.517498 6.34503,6.587427 0.7002,0.01669 0.90022,-0.158985 1.07202,-0.941202 z m -2.23653,0.158339 c -0.69889,-0.248966 -1.64171,-0.721425 -2.09518,-1.049896 -1.21215,-0.878071 -2.59732,-3.791659 -2.59732,-5.463277 0,-1.362651 0.0229,-1.393352 0.88643,-1.186306 3.26455,0.782765 5.11163,2.959663 5.47174,6.448726 0.19551,1.894379 0.178,1.907537 -1.66567,1.250753 z m 7.36031,-0.391919 c 1.69347,-1.190217 3.0172,-3.382525 3.26818,-5.412645 0.29213,-2.362988 -0.16849,-2.821449 -2.21585,-2.205502 -3.0955,0.931285 -5.81891,5.064584 -5.19843,7.889615 0.21032,0.957539 0.27451,0.992163 1.5284,0.82398 0.71986,-0.09661 1.89784,-0.589511 2.6177,-1.095448 z m -3.5854,-0.840901 c 0.36199,-3.507459 2.20296,-5.682432 5.47358,-6.466659 0.86249,-0.206814 0.88623,-0.175383 0.87935,1.163513 -0.007,1.434627 -0.92462,3.830801 -1.86408,4.869672 -0.64251,0.710509 -2.41673,1.640467 -3.73607,1.958278 l -0.93337,0.224832 z m -1.53757,-6.66525 c 0.69937,-3.18419 -3.16787,-8.060051 -6.39274,-8.060051 -2.27268,0 -0.92259,5.458781 1.87851,7.59528 1.08465,0.827293 3.65344,1.800816 4.08688,1.548828 0.11927,-0.06932 0.31163,-0.55719 0.42735,-1.084057 z m -2.93837,-0.131305 c -2.47888,-1.15423 -3.99147,-3.553474 -3.99147,-6.331224 v -1.207297 l 1.10868,0.250051 c 2.88231,0.650071 4.91409,3.081343 5.24368,6.274732 0.21683,2.100852 0.0904,2.155126 -2.36089,1.013738 z m 8.42578,-0.337621 c 2.0124,-1.534939 3.41538,-4.821392 2.9129,-6.82343 -0.19396,-0.772788 -0.323,-0.833446 -1.45105,-0.682148 -1.5038,0.20171 -3.21305,1.317734 -4.50174,2.939342 -1.17595,1.479739 -1.84799,4.161148 -1.35958,5.42473 0.33772,0.873734 0.3398,0.874221 1.81556,0.430087 0.8126,-0.244556 1.97537,-0.824418 2.58391,-1.288581 z M 133.35302,77.3877 c 0.32958,-3.193389 2.36136,-5.624661 5.24368,-6.274732 l 1.10867,-0.250051 v 1.207297 c 0,2.77775 -1.51259,5.176994 -3.99147,6.331224 -2.4513,1.141388 -2.57771,1.087114 -2.36088,-1.013738 z m -1.68609,-6.161616 c 0.57103,-1.5019 -0.17932,-4.023191 -1.71729,-5.770415 -1.34998,-1.533661 -3.34659,-2.698842 -4.64705,-2.711938 -2.2261,-0.02242 -0.61601,5.760169 2.17268,7.803032 0.74241,0.543849 2.98212,1.487573 3.61561,1.523463 0.13735,0.0073 0.39657,-0.372085 0.57605,-0.844142 z m -2.27297,-0.21042 c -2.46023,-0.783472 -4.51601,-3.860454 -4.51601,-6.759337 v -1.145372 l 1.20876,0.327679 c 2.98883,0.810213 4.81345,3.014205 5.1436,6.213026 0.20382,1.974835 0.16718,2.002051 -1.83635,1.364004 z m 6.60455,0.180829 c 2.1295,-1.046157 3.74203,-3.216828 4.19892,-5.65228 0.32404,-1.727208 -0.0241,-2.809108 -0.90112,-2.800482 -2.46188,0.02424 -5.76916,3.110168 -6.35437,5.929083 -0.48663,2.344093 -0.051,3.512162 1.198,3.212588 0.49037,-0.117563 1.32672,-0.427614 1.85857,-0.688909 z m -2.6504,-1.497344 c 0.33538,-3.249405 2.14121,-5.445295 5.1485,-6.260515 l 1.20876,-0.327679 v 1.145372 c 0,3.500381 -2.13192,6.177441 -5.61028,7.04484 l -0.93642,0.233518 z m -1.68599,-6.196434 c 0.93757,-2.466006 -1.50139,-6.710686 -4.59805,-8.00226 -2.3937,-0.998384 -3.1723,-0.326183 -2.67746,2.311574 0.56432,3.008047 2.66562,5.328347 5.64663,6.235133 1.23645,0.376105 1.28505,0.359854 1.62888,-0.544447 z m -2.75774,-0.400203 c -2.43031,-1.104061 -4.02001,-3.652493 -4.02463,-6.451812 -0.001,-1.072881 0.0163,-1.086825 1.16709,-0.900081 2.91367,0.472824 5.27781,3.565092 5.27781,6.903325 0,1.243809 -0.4757,1.331975 -2.42027,0.448568 z m 7.09413,0.357941 c 2.78689,-1.36912 4.85521,-5.119763 4.21969,-7.651881 -0.23904,-0.952435 -0.95749,-1.034453 -2.69895,-0.308117 -3.10139,1.293546 -5.53555,5.536437 -4.59522,8.009704 0.27666,0.727626 0.45541,0.821604 1.21591,0.639204 0.49037,-0.117564 1.32672,-0.427614 1.85857,-0.68891 z m -2.73985,-0.806509 c 0,-3.338233 2.36415,-6.430501 5.27783,-6.903325 1.15077,-0.186744 1.16884,-0.1728 1.16707,0.900081 -0.005,2.799319 -1.59431,5.347751 -4.02461,6.451812 -1.94459,0.883407 -2.42029,0.795241 -2.42029,-0.448568 z m 0.18137,-4.510562 c 0.48583,-0.576173 1.07893,-1.514345 1.31799,-2.084824 0.97368,-2.323532 0.22559,-5.78208 -1.618,-7.480243 l -0.84836,-0.781443 -0.84836,0.781443 c -1.84359,1.698163 -2.59168,5.156711 -1.618,7.480243 0.47741,1.139252 2.04676,3.132413 2.46636,3.132413 0.14577,0 0.66253,-0.471415 1.14837,-1.047589 z m -1.86537,-0.161167 c -1.19816,-1.366513 -1.60833,-2.725813 -1.4844,-4.919263 0.12037,-2.130376 1.07497,-4.249671 2.09173,-4.643874 0.2056,-0.07971 0.78211,0.444219 1.28112,1.1643 1.17129,1.690163 1.46609,5.022346 0.59613,6.73818 -0.61104,1.205172 -1.4211,2.224744 -1.76758,2.224744 -0.12233,0 -0.44499,-0.25384 -0.717,-0.564087 z"
       id="path8820" /></g></svg>
