<?xml version="1.0" encoding="UTF-8" standalone="no"?>
<!-- Created with Inkscape (http://www.inkscape.org/) -->

<svg
   width="1000"
   height="1000"
   viewBox="0 0 264.58333 264.58333"
   version="1.1"
   id="svg5"
   inkscape:version="1.2.2 (b0a8486541, 2022-12-01)"
   sodipodi:docname="feudalism.svg"
   xml:space="preserve"
   xmlns:inkscape="http://www.inkscape.org/namespaces/inkscape"
   xmlns:sodipodi="http://sodipodi.sourceforge.net/DTD/sodipodi-0.dtd"
   xmlns="http://www.w3.org/2000/svg"
   xmlns:svg="http://www.w3.org/2000/svg"><sodipodi:namedview
     id="namedview7"
     pagecolor="#ffffff"
     bordercolor="#000000"
     borderopacity="0.25"
     inkscape:showpageshadow="2"
     inkscape:pageopacity="0.0"
     inkscape:pagecheckerboard="0"
     inkscape:deskcolor="#d1d1d1"
     inkscape:document-units="px"
     showgrid="false"
     inkscape:zoom="0.52787981"
     inkscape:cx="109.8735"
     inkscape:cy="647.87475"
     inkscape:window-width="1920"
     inkscape:window-height="1004"
     inkscape:window-x="0"
     inkscape:window-y="0"
     inkscape:window-maximized="1"
     inkscape:current-layer="layer1" /><defs
     id="defs2" /><g
     inkscape:label="Layer 1"
     inkscape:groupmode="layer"
     id="layer1"><circle
       style="display:inline;fill:#00008a;fill-opacity:1;stroke:#e7bd21;stroke-width:5.29167;stroke-dasharray:none;stroke-opacity:1;paint-order:normal"
       id="path236-3"
       cx="132.29167"
       cy="132.29167"
       r="125.37917" /><path
       style="fill:#e7bd21;fill-opacity:1;stroke-width:0.377301"
       d="m 131.49933,213.25455 c -0.29054,-0.35247 -1.74094,-1.19445 -3.22312,-1.87107 -3.09764,-1.41409 -4.66251,-3.1094 -4.66251,-5.05111 0,-2.08369 0.81548,-4.12141 2.34458,-5.85856 1.65926,-1.88502 2.65809,-4.73388 2.48671,-7.09265 -0.10267,-1.41366 -0.22629,-1.59586 -1.15475,-1.70266 -1.15529,-0.1329 -1.30598,0.10596 -1.55453,2.46396 -0.18654,1.76978 -1.65167,5.22042 -3.12113,7.35087 -1.45224,2.10549 -4.51021,4.04935 -6.79609,4.32008 -1.98902,0.23558 -5.05827,-0.51778 -6.84865,-1.681 -1.20792,-0.78481 -2.71232,-3.90649 -2.71062,-5.62467 0.001,-1.74962 1.17535,-3.77217 2.47579,-4.26659 1.38705,-0.52736 1.56467,-0.47407 1.82076,0.54628 0.34922,1.39139 2.00751,3.15232 3.21919,3.41845 2.24557,0.49322 5.11813,-1.65008 6.06769,-4.52725 0.50614,-1.53363 0.29304,-2.44649 -0.57112,-2.44649 -1.07692,0 -3.60427,-1.5244 -4.01238,-2.4201 -0.28796,-0.63198 -0.28015,-1.10605 0.0277,-1.68127 0.42701,-0.79785 2.95244,-2.30754 3.87851,-2.31854 1.24108,-0.0147 1.50224,-0.58748 1.04798,-2.29829 -0.78217,-2.94578 -2.858,-4.48736 -6.04247,-4.48736 -1.6348,0 -2.10502,0.17075 -3.03715,1.10288 -0.90114,0.90113 -1.10289,1.4222 -1.10289,2.84851 0,0.96008 0.25905,2.24654 0.57564,2.85878 l 0.57565,1.11316 h -1.83713 c -2.23357,0 -5.77541,-1.16781 -7.47614,-2.46502 -0.68955,-0.52594 -1.6811,-1.6855 -2.203434,-2.57679 -1.129909,-1.92806 -2.440552,-5.69882 -2.453557,-7.05896 -0.01683,-1.76498 1.156818,-4.4331 2.742597,-6.23465 2.223074,-2.52553 4.711204,-3.54807 8.633524,-3.54807 4.70375,0 6.92283,0.96382 10.83465,4.70583 3.84478,3.67787 5.69401,7.06801 6.47346,11.86763 0.48279,2.97295 0.52028,3.04622 1.55861,3.04622 1.01397,0 1.06393,-0.0821 1.06393,-1.7484 0,-0.96162 -0.18089,-2.44725 -0.402,-3.30138 -1.69876,-6.56279 -2.89643,-9.04959 -5.65764,-11.74731 -2.51277,-2.45498 -3.30146,-3.58101 -4.16725,-5.94973 -0.88545,-2.42247 -0.90007,-3.95372 -0.063,-6.6089 0.96158,-3.0505 2.96223,-4.89373 8.08704,-7.4507 2.35295,-1.17399 4.63463,-2.462 5.0704,-2.86226 0.72685,-0.66763 0.83432,-0.67709 1.3012,-0.11451 0.2799,0.33726 2.52742,1.62506 4.99451,2.86176 5.34435,2.67904 7.32437,4.48487 8.29553,7.56573 0.83696,2.65519 0.82236,4.18643 -0.063,6.6089 -0.86581,2.36873 -1.65448,3.49476 -4.16725,5.94974 -2.76122,2.69772 -3.95889,5.18452 -5.65766,11.7473 -0.22109,0.85413 -0.40198,2.33976 -0.40198,3.30139 0,1.66631 0.0499,1.7484 1.06393,1.7484 1.03833,0 1.07582,-0.0733 1.55861,-3.04622 0.77945,-4.79963 2.62867,-8.18977 6.47346,-11.86763 3.91182,-3.74202 6.13088,-4.70584 10.83465,-4.70584 3.92232,0 6.41045,1.02255 8.63352,3.54808 1.58578,1.80155 2.75947,4.46966 2.7426,6.23465 -0.0128,1.36014 -1.32366,5.1309 -2.45357,7.05896 -0.52232,0.89129 -1.51387,2.05084 -2.20342,2.57679 -1.70073,1.29721 -5.24257,2.46502 -7.47615,2.46502 h -1.83713 l 0.57564,-1.11316 c 0.31661,-0.61224 0.57564,-1.8987 0.57564,-2.85878 0,-1.42631 -0.20174,-1.94738 -1.10288,-2.84851 -0.93214,-0.93213 -1.40234,-1.10288 -3.03714,-1.10288 -3.18447,0 -5.2603,1.54158 -6.04249,4.48736 -0.45427,1.71081 -0.1931,2.28356 1.04798,2.29829 0.26765,0.003 1.16583,0.35227 1.99592,0.77576 1.80555,0.92111 2.50762,2.1635 1.88259,3.33139 -0.45244,0.8454 -2.98058,2.31276 -3.98467,2.31276 -0.86417,0 -1.07726,0.91286 -0.57113,2.44649 0.94956,2.87717 3.82212,5.02047 6.06769,4.52725 1.21169,-0.26613 2.86998,-2.02707 3.2192,-3.41845 0.25609,-1.02035 0.43371,-1.07364 1.82076,-0.54628 1.30043,0.49442 2.47405,2.51697 2.47579,4.26659 0.001,1.71818 -1.5027,4.83986 -2.71063,5.62467 -1.79037,1.16322 -4.85964,1.91658 -6.84866,1.681 -2.28587,-0.27073 -5.34383,-2.21459 -6.79609,-4.32008 -1.46945,-2.13045 -2.93457,-5.5811 -3.12112,-7.35088 -0.24854,-2.35799 -0.39923,-2.59684 -1.55452,-2.46395 -0.92846,0.10681 -1.05204,0.289 -1.15475,1.70266 -0.17138,2.35877 0.82745,5.20763 2.48671,7.09265 1.52908,1.73715 2.34458,3.77487 2.34458,5.85856 0,1.90972 -1.58122,3.65967 -4.48078,4.95895 -1.37461,0.61595 -2.85584,1.45385 -3.2916,1.862 -0.74147,0.69446 -0.82619,0.70096 -1.32055,0.10124 z M 67.735332,136.66228 c -0.290538,-0.35245 -1.740945,-1.19443 -3.223125,-1.87105 -3.09762,-1.41409 -4.662508,-3.1094 -4.662508,-5.05112 0,-2.08369 0.815499,-4.12141 2.34458,-5.85855 1.659263,-1.88502 2.658092,-4.73388 2.486713,-7.09265 -0.102674,-1.41366 -0.226296,-1.59586 -1.154751,-1.70266 -1.155292,-0.1329 -1.30598,0.10595 -1.554535,2.46394 -0.186538,1.76979 -1.651662,5.22044 -3.121107,7.35087 -1.452262,2.10551 -4.510224,4.04937 -6.796095,4.3201 -1.989031,0.23558 -5.058288,-0.51778 -6.848659,-1.68101 -1.207926,-0.7848 -2.712323,-3.90648 -2.710626,-5.62466 0.0014,-1.74962 1.175356,-3.77218 2.475789,-4.26659 1.387049,-0.52736 1.564674,-0.47407 1.82076,0.54628 0.349218,1.39138 2.007511,3.15231 3.219188,3.41845 2.245572,0.4932 5.118138,-1.65008 6.067697,-4.52725 0.506139,-1.53363 0.293034,-2.44649 -0.571122,-2.44649 -1.076917,0 -3.604271,-1.5244 -4.012385,-2.4201 -0.287942,-0.63199 -0.280128,-1.10605 0.02766,-1.68127 0.427008,-0.79786 2.952437,-2.30754 3.87851,-2.31854 1.241082,-0.0147 1.502258,-0.58748 1.047984,-2.29829 -0.782173,-2.94578 -2.858006,-4.48736 -6.042471,-4.48736 -1.634806,0 -2.105008,0.17075 -3.037142,1.10288 -0.901147,0.90113 -1.102886,1.4222 -1.102886,2.8485 0,0.96009 0.259037,2.24654 0.575642,2.85878 l 0.575643,1.11317 H 45.58096 c -2.233579,0 -5.775419,-1.16781 -7.476151,-2.46502 -0.689553,-0.52594 -1.681095,-1.6855 -2.203418,-2.57679 -1.129923,-1.92806 -2.440567,-5.698816 -2.453572,-7.058956 -0.01683,-1.764988 1.156818,-4.433122 2.742598,-6.234659 2.223069,-2.525528 4.711207,-3.548072 8.633525,-3.548072 4.70375,0 6.922826,0.963806 10.834648,4.705817 3.844785,3.677886 5.694008,7.068026 6.473458,11.86765 0.482794,2.97295 0.520284,3.04622 1.558614,3.04622 1.013973,0 1.063927,-0.0821 1.063927,-1.7484 0,-0.96162 -0.180891,-2.44725 -0.401982,-3.3014 -1.698763,-6.562768 -2.896437,-9.049569 -5.657659,-11.747289 -2.512765,-2.454998 -3.301456,-3.581014 -4.167251,-5.949751 -0.885446,-2.422456 -0.900048,-3.953705 -0.06303,-6.608887 0.961595,-3.050491 2.962248,-4.893724 8.087059,-7.450711 2.352937,-1.173973 4.634616,-2.461985 5.07038,-2.862241 0.726858,-0.667635 0.834337,-0.677104 1.301203,-0.11451 0.279914,0.337269 2.527439,1.625053 4.994515,2.861771 5.344362,2.67904 7.32438,4.484869 8.295529,7.565734 0.836976,2.655182 0.822359,4.186431 -0.06303,6.608886 -0.865795,2.368738 -1.654471,3.494754 -4.167237,5.949751 -2.761221,2.697721 -3.958895,5.184522 -5.657659,11.747287 -0.22109,0.85415 -0.401995,2.33978 -0.401995,3.3014 0,1.66631 0.04991,1.74841 1.063927,1.74841 1.038344,0 1.075834,-0.0733 1.558628,-3.04623 0.779435,-4.799621 2.628658,-8.189761 6.473443,-11.867647 3.911822,-3.742011 6.130902,-4.705817 10.834651,-4.705817 3.922318,0 6.410456,1.022543 8.633529,3.548072 1.58578,1.801537 2.75946,4.469671 2.74259,6.234659 -0.0128,1.36014 -1.32364,5.130903 -2.45357,7.058953 -0.52232,0.89129 -1.513863,2.05085 -2.203416,2.57679 -1.700732,1.29721 -5.242572,2.46502 -7.476151,2.46502 h -1.837131 l 0.575643,-1.11316 c 0.316605,-0.61225 0.575642,-1.89869 0.575642,-2.85879 0,-1.42629 -0.201739,-1.94736 -1.102886,-2.84849 -0.932133,-0.93214 -1.402336,-1.10289 -3.037142,-1.10289 -3.184454,0 -5.260286,1.54159 -6.042474,4.48736 -0.454274,1.71082 -0.193112,2.28356 1.04797,2.29829 0.267664,0.003 1.16583,0.35226 1.995932,0.77575 1.805544,0.92112 2.507618,2.1635 1.882592,3.33138 -0.452448,0.84541 -2.980586,2.31278 -3.984692,2.31278 -0.864155,0 -1.07726,0.91286 -0.571107,2.44649 0.949545,2.87717 3.822111,5.02045 6.067685,4.52725 1.211677,-0.26614 2.86997,-2.02706 3.219189,-3.41845 0.256085,-1.02035 0.433711,-1.07364 1.82076,-0.54628 1.300433,0.49442 2.474049,2.51697 2.475789,4.26659 0.0014,1.71819 -1.5027,4.83986 -2.710627,5.62466 -1.790371,1.16323 -4.859627,1.91659 -6.848646,1.68101 -2.285886,-0.27073 -5.343849,-2.21459 -6.796096,-4.32009 -1.469459,-2.13044 -2.934569,-5.58108 -3.121121,-7.35088 -0.248541,-2.35798 -0.399243,-2.59683 -1.554521,-2.46394 -0.928469,0.10681 -1.052034,0.289 -1.15475,1.70266 -0.17138,2.35877 0.827435,5.20763 2.486698,7.09265 1.529095,1.73714 2.344594,3.77487 2.344594,5.85856 0,1.90971 -1.581216,3.65967 -4.48079,4.95895 -1.374615,0.61595 -2.855824,1.45386 -3.291603,1.86198 -0.741474,0.69448 -0.82618,0.70098 -1.320553,0.10125 z m 127.905308,0 c -0.29054,-0.35245 -1.74095,-1.19443 -3.22313,-1.87105 -3.09763,-1.41409 -4.66252,-3.1094 -4.66252,-5.05112 0,-2.08369 0.8155,-4.12141 2.3446,-5.85855 1.65926,-1.88502 2.65807,-4.73388 2.48669,-7.09265 -0.10267,-1.41366 -0.22628,-1.59586 -1.15473,-1.70266 -1.15529,-0.1329 -1.306,0.10595 -1.55454,2.46394 -0.18655,1.76979 -1.65166,5.22044 -3.12112,7.35087 -1.45225,2.10551 -4.51021,4.04937 -6.79609,4.3201 -1.98902,0.23558 -5.05828,-0.51778 -6.84865,-1.68101 -1.20794,-0.7848 -2.71232,-3.90648 -2.71062,-5.62466 0.001,-1.74962 1.17535,-3.77218 2.47579,-4.26659 1.38704,-0.52736 1.56466,-0.47407 1.82076,0.54628 0.34921,1.39138 2.00751,3.15231 3.21918,3.41845 2.24558,0.4932 5.11814,-1.65008 6.06769,-4.52725 0.50615,-1.53363 0.29304,-2.44649 -0.57111,-2.44649 -1.07692,0 -3.60427,-1.5244 -4.01239,-2.4201 -0.28795,-0.63199 -0.28014,-1.10605 0.0277,-1.68127 0.42701,-0.79786 2.95244,-2.30754 3.87851,-2.31854 1.24108,-0.0147 1.50224,-0.58748 1.04798,-2.29829 -0.78218,-2.94578 -2.85802,-4.48736 -6.04247,-4.48736 -1.6348,0 -2.10502,0.17075 -3.03716,1.10288 -0.90113,0.90113 -1.10288,1.4222 -1.10288,2.8485 0,0.96009 0.25905,2.24654 0.57564,2.85878 l 0.57564,1.11317 h -1.83713 c -2.23356,0 -5.77542,-1.16781 -7.47615,-2.46502 -0.68954,-0.52594 -1.68108,-1.6855 -2.20342,-2.57679 -1.12991,-1.92806 -2.44056,-5.698816 -2.45355,-7.058956 -0.0168,-1.764988 1.15681,-4.433122 2.74259,-6.234659 2.22307,-2.525528 4.71121,-3.548072 8.63352,-3.548072 4.70376,0 6.92284,0.963806 10.83466,4.705817 3.84478,3.677886 5.69401,7.068026 6.47344,11.86765 0.48279,2.97295 0.5203,3.04622 1.55863,3.04622 1.01397,0 1.06393,-0.0821 1.06393,-1.7484 0,-0.96162 -0.18091,-2.44725 -0.402,-3.3014 -1.69876,-6.562768 -2.89644,-9.049569 -5.65766,-11.747289 -2.51276,-2.454998 -3.30144,-3.581014 -4.16724,-5.949751 -0.88544,-2.422456 -0.90006,-3.953705 -0.063,-6.608887 0.96159,-3.050491 2.96224,-4.893724 8.08705,-7.450711 2.35295,-1.173973 4.63462,-2.461985 5.07039,-2.862241 0.72686,-0.667635 0.83433,-0.677104 1.30121,-0.11451 0.2799,0.337269 2.52742,1.625053 4.99451,2.861771 5.34435,2.67904 7.32437,4.484869 8.29553,7.565734 0.83696,2.655182 0.82236,4.186431 -0.063,6.608886 -0.86581,2.368738 -1.65448,3.494754 -4.16725,5.949751 -2.76122,2.697721 -3.9589,5.184522 -5.65766,11.747287 -0.22109,0.85415 -0.40198,2.33978 -0.40198,3.3014 0,1.66631 0.0499,1.74841 1.06393,1.74841 1.03833,0 1.07582,-0.0733 1.55861,-3.04623 0.77945,-4.799621 2.62867,-8.189761 6.47346,-11.867647 3.91182,-3.742011 6.1309,-4.705817 10.83465,-4.705817 3.92231,0 6.41045,1.022543 8.63352,3.548072 1.58578,1.801537 2.75947,4.469671 2.7426,6.234659 -0.0128,1.36014 -1.32365,5.130903 -2.45357,7.058953 -0.52233,0.89129 -1.51387,2.05085 -2.20342,2.57679 -1.70073,1.29721 -5.24257,2.46502 -7.47615,2.46502 h -1.83713 l 0.57564,-1.11316 c 0.3166,-0.61225 0.57564,-1.89869 0.57564,-2.85879 0,-1.42629 -0.20174,-1.94736 -1.10288,-2.84849 -0.93214,-0.93214 -1.40234,-1.10289 -3.03715,-1.10289 -3.18446,0 -5.26029,1.54159 -6.04248,4.48736 -0.45426,1.71082 -0.1931,2.28356 1.04798,2.29829 0.26765,0.003 1.16583,0.35226 1.99592,0.77575 1.80554,0.92112 2.50762,2.1635 1.88259,3.33138 -0.45245,0.84541 -2.98058,2.31278 -3.98468,2.31278 -0.86416,0 -1.07726,0.91286 -0.57112,2.44649 0.94956,2.87717 3.82211,5.02045 6.06769,4.52725 1.21169,-0.26614 2.86998,-2.02706 3.2192,-3.41845 0.25608,-1.02035 0.43371,-1.07364 1.82076,-0.54628 1.30043,0.49442 2.47405,2.51697 2.47579,4.26659 10e-4,1.71819 -1.5027,4.83986 -2.71063,5.62466 -1.79037,1.16323 -4.85963,1.91659 -6.84866,1.68101 -2.28587,-0.27073 -5.34383,-2.21459 -6.79609,-4.32009 -1.46945,-2.13044 -2.93457,-5.58108 -3.12112,-7.35088 -0.24855,-2.35798 -0.39923,-2.59683 -1.55453,-2.46394 -0.92845,0.10681 -1.05203,0.289 -1.15475,1.70266 -0.17137,2.35877 0.82745,5.20763 2.48672,7.09265 1.52908,1.73714 2.34458,3.77487 2.34458,5.85856 0,1.90971 -1.58122,3.65967 -4.48078,4.95895 -1.37461,0.61595 -2.85584,1.45386 -3.2916,1.86198 -0.74148,0.69448 -0.82618,0.70098 -1.32055,0.10125 z"
       id="path13209" /></g></svg>
