<?xml version="1.0" encoding="UTF-8" standalone="no"?>
<!-- Created with Inkscape (http://www.inkscape.org/) -->

<svg
   width="1000"
   height="1000"
   viewBox="0 0 264.58333 264.58333"
   version="1.1"
   id="svg5"
   inkscape:version="1.2.2 (b0a8486541, 2022-12-01)"
   sodipodi:docname="free_socialism.svg"
   xml:space="preserve"
   xmlns:inkscape="http://www.inkscape.org/namespaces/inkscape"
   xmlns:sodipodi="http://sodipodi.sourceforge.net/DTD/sodipodi-0.dtd"
   xmlns="http://www.w3.org/2000/svg"
   xmlns:svg="http://www.w3.org/2000/svg"><sodipodi:namedview
     id="namedview7"
     pagecolor="#ffffff"
     bordercolor="#000000"
     borderopacity="0.25"
     inkscape:showpageshadow="2"
     inkscape:pageopacity="0.0"
     inkscape:pagecheckerboard="0"
     inkscape:deskcolor="#d1d1d1"
     inkscape:document-units="px"
     showgrid="false"
     inkscape:zoom="0.52787981"
     inkscape:cx="109.8735"
     inkscape:cy="496.3251"
     inkscape:window-width="1920"
     inkscape:window-height="1004"
     inkscape:window-x="0"
     inkscape:window-y="0"
     inkscape:window-maximized="1"
     inkscape:current-layer="layer1" /><defs
     id="defs2" /><g
     inkscape:label="Layer 1"
     inkscape:groupmode="layer"
     id="layer1"><circle
       style="fill:#000000;stroke:#fc0404;stroke-width:5.2916666;fill-opacity:1;stroke-opacity:1;stroke-dasharray:none;paint-order:normal"
       id="path236-3"
       cx="132.29167"
       cy="132.29167"
       r="125.37917" /><path
       style="fill:#fc0404;fill-opacity:1;stroke-width:0.155743"
       d="m 71.810757,216.49688 c 0.0745,-0.12848 0.337153,-0.53146 0.583668,-0.89551 0.246508,-0.36405 0.413162,-0.66191 0.370333,-0.66191 -0.04285,0 -0.298249,0.32031 -0.567597,0.71179 -0.269348,0.39147 -0.512208,0.68931 -0.539696,0.66181 -0.02749,-0.0275 5.120292,-16.09926 11.439511,-35.71506 l 11.489481,-35.66507 1.508814,-0.5255 c 0.829847,-0.28902 1.483039,-0.55127 1.451535,-0.58278 -0.0315,-0.0315 -0.717818,0.15037 -1.525131,0.40416 l -1.467846,0.46143 -0.481709,-0.34589 c -2.737167,-1.96541 -60.618297,-44.891638 -60.581236,-44.9287 0.02737,-0.02739 1.466767,0.41383 3.19861,0.9805 1.731835,0.56667 3.174521,1.00459 3.205961,0.97314 0.03144,-0.0314 -1.417304,-0.54489 -3.219423,-1.14101 l -3.276593,-1.083847 38.031655,-0.07787 38.031646,-0.07787 11.39048,-35.935009 c 6.26474,-19.764257 11.4255,-35.935676 11.46831,-35.936488 0.0429,-8.24e-4 5.459,16.187464 12.03592,35.973948 l 11.95803,35.975423 37.56828,0.007 c 32.87344,0.006 37.50989,0.03518 37.10105,0.232064 -0.3913,0.188473 -0.40395,0.209803 -0.0779,0.131219 0.25622,-0.06177 0.3361,-0.04138 0.2336,0.05947 -0.17064,0.167923 -59.85458,44.92029 -60.13264,45.08883 -0.18509,0.11218 -38.29029,-12.53371 -38.15993,-12.66405 0.0432,-0.0432 17.24373,-5.7536 38.22337,-12.68976 l 38.14482,-12.61121 -28.88783,-0.0393 c -27.46625,-0.0374 -28.87777,-0.0528 -28.68298,-0.31149 0.18525,-0.24605 0.18072,-0.24974 -0.0473,-0.0385 -0.13866,0.1285 -4.53249,5.93753 -9.76406,12.90897 l -9.51193,12.67535 -0.0392,-41.623097 -0.0392,-41.623097 -8.75721,28.199572 -8.75719,28.199582 8.64718,13.34358 c 4.75596,7.33898 8.62662,13.36141 8.60147,13.38319 -0.0251,0.0218 -17.70486,-5.80016 -39.288236,-12.93764 -21.583389,-7.13746 -39.253425,-12.96339 -39.266764,-12.94649 -0.01337,0.0169 11.030422,8.16053 24.541689,18.09693 13.511262,9.93642 24.529301,18.13068 24.484531,18.20948 -0.0448,0.0788 0.0177,0.10544 0.13883,0.0592 1.28429,-0.49039 29.19629,-9.93152 29.26987,-9.90044 0.0546,0.023 -10.47428,14.78618 -23.39741,32.80696 -12.923139,18.02079 -23.476442,32.7829 -23.451785,32.80472 0.02467,0.0217 10.662619,-7.67986 23.639915,-17.11482 l 23.59509,-17.15447 0.0779,-15.70297 0.0779,-15.70298 10.97989,15.31263 c 6.03893,8.42196 12.56203,17.52161 14.49576,20.22147 1.93372,2.69985 10.45045,14.58048 18.92607,26.40138 8.47561,11.8209 15.58183,21.73785 15.79156,22.03765 l 0.38137,0.54511 -0.5404,-0.40543 c -3.44031,-2.5811 -59.88577,-44.10167 -60.02911,-44.15669 -0.13722,-0.0526 -52.385013,38.27684 -60.192003,44.15743 -0.295489,0.22257 -0.476295,0.29955 -0.40179,0.17107 z m 115.181483,-8.42777 -5.95547,-8.28187 -9.16766,-28.74301 c -5.04221,-15.80865 -9.13769,-28.77297 -9.10104,-28.8096 0.0906,-0.0906 7.6665,2.47283 7.93544,2.68508 0.1951,0.15398 22.40464,71.27082 22.2926,71.38286 -0.0266,0.0266 -2.72836,-3.67844 -6.00387,-8.23346 z"
       id="path1620" /></g></svg>
