<?xml version="1.0" encoding="UTF-8" standalone="no"?>
<!-- Created with Inkscape (http://www.inkscape.org/) -->

<svg
   width="1000"
   height="1000"
   viewBox="0 0 264.58333 264.58333"
   version="1.1"
   id="svg5"
   inkscape:version="1.2.2 (b0a8486541, 2022-12-01)"
   sodipodi:docname="social_capitalism.svg"
   xml:space="preserve"
   xmlns:inkscape="http://www.inkscape.org/namespaces/inkscape"
   xmlns:sodipodi="http://sodipodi.sourceforge.net/DTD/sodipodi-0.dtd"
   xmlns="http://www.w3.org/2000/svg"
   xmlns:svg="http://www.w3.org/2000/svg"><sodipodi:namedview
     id="namedview7"
     pagecolor="#ffffff"
     bordercolor="#000000"
     borderopacity="0.25"
     inkscape:showpageshadow="2"
     inkscape:pageopacity="0.0"
     inkscape:pagecheckerboard="0"
     inkscape:deskcolor="#d1d1d1"
     inkscape:document-units="px"
     showgrid="false"
     inkscape:zoom="0.52787981"
     inkscape:cx="60.61986"
     inkscape:cy="496.3251"
     inkscape:window-width="1920"
     inkscape:window-height="1004"
     inkscape:window-x="0"
     inkscape:window-y="0"
     inkscape:window-maximized="1"
     inkscape:current-layer="layer1" /><defs
     id="defs2" /><g
     inkscape:label="Layer 1"
     inkscape:groupmode="layer"
     id="layer1"><circle
       style="fill:#ffcc00;stroke:#eecc0e;stroke-width:0;stroke-dasharray:none;stroke-opacity:1;paint-order:stroke markers fill;fill-opacity:1"
       id="path236"
       cx="132.29167"
       cy="132.29167"
       r="125.37917" /><circle
       style="fill:#427328;stroke:#008000;stroke-width:5.2916666;fill-opacity:0;stroke-opacity:1;stroke-dasharray:none;paint-order:normal"
       id="path236-3"
       cx="132.29167"
       cy="132.29167"
       r="125.37917" /><path
       style="fill:#008000;fill-opacity:1;stroke-width:0.293565"
       d="m 129.55532,228.13823 c -0.55392,-0.52476 -2.08757,-2.86961 -3.40809,-5.2108 -1.32051,-2.34118 -3.0905,-5.44564 -3.93331,-6.89879 -8.04607,-13.87291 -8.57331,-15.2155 -6.65008,-16.93391 l 0.92537,-0.82681 h 14.9818 c 12.54151,0 15.11642,0.0696 15.80832,0.42741 0.94741,0.48993 1.7864,2.04849 1.7864,3.31855 0,1.18505 -0.15083,1.46885 -8.07241,15.18903 -0.83899,1.45315 -2.0097,3.50076 -2.60156,4.55026 -3.82142,6.77623 -4.32118,7.33373 -6.57733,7.33721 -1.01163,10e-4 -1.44529,-0.18121 -2.25911,-0.95215 z m -20.05268,-50.55417 c -2.94891,-0.83867 -4.6869,-1.71962 -8.14133,-4.12665 -2.419448,-1.68585 -5.494423,-4.54232 -7.264028,-6.74779 -3.328685,-4.14863 -5.57092,-9.19591 -7.735244,-17.41211 -0.957055,-3.63317 -1.073424,-4.49736 -1.21438,-9.01901 -0.170491,-5.46891 0.185038,-9.7157 1.125107,-13.43919 0.973898,-3.85752 3.445364,-16.33586 3.788955,-19.13026 0.422835,-3.43887 0.418885,-11.589444 -0.0078,-15.124781 -0.478589,-3.969833 -1.584023,-9.019714 -2.795419,-12.770101 -1.732146,-5.36256 -5.471683,-12.648052 -8.53642,-16.6309 -0.707775,-0.919797 -1.286855,-1.814496 -1.286855,-1.988217 0,-0.525311 1.14834,-0.364783 5.059833,0.707354 12.038416,3.299704 25.687651,9.840062 35.452231,16.987794 4.38648,3.210929 8.78754,7.155132 8.8026,7.888815 0.002,0.117056 -1.26311,1.900463 -2.81225,3.963131 -9.33736,12.432655 -14.37373,26.625935 -15.39313,43.380325 -0.1866,3.06701 -0.39373,5.6645 -0.46029,5.77218 -0.27351,0.44255 1.10786,16.30507 1.81106,20.79687 1.16502,7.44158 2.74246,11.60154 5.71944,15.08295 0.81161,0.94913 1.42662,1.87386 1.36668,2.05495 -0.21685,0.65516 -4.84694,0.50327 -7.47925,-0.24536 z m 21.65559,0.42502 c -3.39779,-0.36747 -6.63814,-1.95997 -9.50985,-4.67369 -4.12699,-3.89993 -4.97861,-6.4315 -6.92781,-20.59411 -0.93926,-6.82446 -0.71875,-19.38315 0.46089,-26.25016 2.19316,-12.767 7.52752,-24.68776 15.23845,-34.053632 3.06851,-3.727077 9.18493,-9.65336 12.78333,-12.385934 7.85103,-5.961978 16.98887,-10.662287 30.22845,-15.548855 5.92422,-2.186569 13.16908,-4.05631 13.69183,-3.533561 0.11073,0.110732 -0.16344,0.697157 -0.60913,1.303287 -3.88341,5.281364 -7.1507,11.477321 -8.95202,16.976199 -2.8617,8.735938 -3.59954,14.911013 -3.0065,25.161846 0.39623,6.84886 0.74442,9.17288 2.08478,13.91529 2.54822,9.01596 3.06943,23.51529 1.16182,32.31999 -2.6326,12.15092 -9.10339,20.56145 -19.89019,25.85266 l -3.33642,1.63659 -10.75472,0.0402 c -5.91511,0.0221 -11.61342,-0.0526 -12.66291,-0.16615 z m -1.76139,-97.491897 c -5.3847,-4.913441 -12.01088,-9.743433 -17.27533,-12.592431 -3.16018,-1.7102 -5.14502,-3.00734 -5.16585,-3.375996 -0.009,-0.16146 0.64392,-0.400688 1.45123,-0.531613 20.35267,-3.300758 34.45287,-8.985077 47.8512,-19.290603 3.6096,-2.776371 4.45826,-3.222697 6.12778,-3.222697 1.6104,0 2.82801,0.912077 3.40152,2.548007 0.50454,1.43919 0.80233,15.311218 0.34694,16.162113 -0.16701,0.312069 -1.59881,1.134382 -3.18178,1.827345 -4.87982,2.136219 -13.56939,6.628578 -17.11604,8.848711 -4.03239,2.524191 -6.97746,4.723776 -11.24238,8.396574 -1.74312,1.501118 -3.26232,2.723597 -3.37601,2.716607 -0.11367,-0.0067 -0.93325,-0.675698 -1.82128,-1.486017 z M 96.871861,60.436226 c -1.521199,-0.660897 -2.045756,-2.231628 -2.435659,-7.293343 -0.437292,-5.677035 -0.297379,-8.441916 0.471066,-9.30897 0.901512,-1.017208 3.112201,-2.33007 3.923529,-2.33007 1.191423,0 2.923753,1.012174 6.346863,3.708395 4.25046,3.347873 7.85061,5.709348 11.44906,7.509889 2.85745,1.429765 3.96315,2.152734 3.96315,2.591354 0,0.658743 -6.54197,2.433143 -16.78514,4.552675 -5.516919,1.14156 -5.601455,1.148517 -6.932869,0.57007 z"
       id="path1270" /></g></svg>
