<?xml version="1.0" encoding="UTF-8" standalone="no"?>
<!-- Created with Inkscape (http://www.inkscape.org/) -->

<svg
   width="1000"
   height="1000"
   viewBox="0 0 264.58333 264.58333"
   version="1.1"
   id="svg5"
   inkscape:version="1.2.2 (b0a8486541, 2022-12-01)"
   sodipodi:docname="state_socialism.svg"
   xml:space="preserve"
   xmlns:inkscape="http://www.inkscape.org/namespaces/inkscape"
   xmlns:sodipodi="http://sodipodi.sourceforge.net/DTD/sodipodi-0.dtd"
   xmlns="http://www.w3.org/2000/svg"
   xmlns:svg="http://www.w3.org/2000/svg"><sodipodi:namedview
     id="namedview7"
     pagecolor="#ffffff"
     bordercolor="#000000"
     borderopacity="0.25"
     inkscape:showpageshadow="2"
     inkscape:pageopacity="0.0"
     inkscape:pagecheckerboard="0"
     inkscape:deskcolor="#d1d1d1"
     inkscape:document-units="px"
     showgrid="false"
     inkscape:zoom="0.52787981"
     inkscape:cx="221.64136"
     inkscape:cy="496.3251"
     inkscape:window-width="1920"
     inkscape:window-height="1004"
     inkscape:window-x="0"
     inkscape:window-y="0"
     inkscape:window-maximized="1"
     inkscape:current-layer="layer1" /><defs
     id="defs2" /><g
     inkscape:label="Layer 1"
     inkscape:groupmode="layer"
     id="layer1"><circle
       style="display:inline;fill:#e10000;fill-opacity:1;stroke:#ffffff;stroke-width:5.29167;stroke-dasharray:none;stroke-opacity:1;paint-order:normal"
       id="path236-3"
       cx="132.29167"
       cy="132.29167"
       r="125.37917" /><path
       style="fill:#ffffff;fill-opacity:1;stroke-width:0.923891"
       d="M 136.20241,160.08139 C 109.39528,133.62219 87.023333,111.9738 86.48698,111.9738 c -0.536388,0 -4.490773,3.53389 -8.787537,7.85311 -4.296763,4.31918 -8.170764,7.85307 -8.608891,7.85307 -1.418019,0 -23.799844,-22.50904 -23.52835,-23.66205 0.144564,-0.61402 10.030577,-11.16625 21.96884,-23.449409 l 21.705971,-22.333007 6.996516,0.619321 c 8.006081,0.708712 12.854091,-0.295414 17.874021,-3.702026 1.87077,-1.269545 3.93574,-2.30824 4.58879,-2.30824 1.79291,0 12.58897,10.103697 12.58897,11.781651 0,0.805055 -4.86252,6.431039 -10.8056,12.502131 l -10.8056,11.038373 49.14723,48.484146 c 27.03095,26.66627 49.14722,49.03901 49.14722,49.71717 0,1.16385 -20.3109,20.89239 -22.16027,21.52488 -0.47612,0.16273 -22.79879,-21.35235 -49.60588,-47.81153 z"
       id="path1583" /></g></svg>
