<?xml version="1.0" encoding="UTF-8" standalone="no"?>
<!-- Created with Inkscape (http://www.inkscape.org/) -->

<svg
   width="1000"
   height="1000"
   viewBox="0 0 264.58333 264.58333"
   version="1.1"
   id="svg5"
   inkscape:version="1.2.2 (b0a8486541, 2022-12-01)"
   sodipodi:docname="utopian_socialism.svg"
   xml:space="preserve"
   xmlns:inkscape="http://www.inkscape.org/namespaces/inkscape"
   xmlns:sodipodi="http://sodipodi.sourceforge.net/DTD/sodipodi-0.dtd"
   xmlns="http://www.w3.org/2000/svg"
   xmlns:svg="http://www.w3.org/2000/svg"><sodipodi:namedview
     id="namedview7"
     pagecolor="#ffffff"
     bordercolor="#000000"
     borderopacity="0.25"
     inkscape:showpageshadow="2"
     inkscape:pageopacity="0.0"
     inkscape:pagecheckerboard="0"
     inkscape:deskcolor="#d1d1d1"
     inkscape:document-units="px"
     showgrid="false"
     inkscape:zoom="0.52787981"
     inkscape:cx="109.8735"
     inkscape:cy="496.3251"
     inkscape:window-width="1920"
     inkscape:window-height="1004"
     inkscape:window-x="0"
     inkscape:window-y="0"
     inkscape:window-maximized="1"
     inkscape:current-layer="layer1" /><defs
     id="defs2" /><g
     inkscape:label="Layer 1"
     inkscape:groupmode="layer"
     id="layer1"><circle
       style="display:inline;fill:#bc0000;fill-opacity:1;stroke:#ffca0a;stroke-width:5.29167;stroke-dasharray:none;stroke-opacity:1;paint-order:normal"
       id="path236-3"
       cx="132.29167"
       cy="132.29167"
       r="125.37917" /><path
       style="fill:#ffca0a;fill-opacity:1;stroke-width:0.480173"
       d="M 125.09126,229.23584 C 109.94649,227.49965 100.43283,224.85305 89.000333,219.19571 79.739052,214.6128 72.548583,209.50905 64.692108,201.94194 49.234706,187.05377 39.602552,168.45097 35.955204,146.44162 34.913947,140.15838 34.790848,125.63406 35.723233,119.07179 38.692834,98.170995 47.85611,79.394299 62.404121,64.399245 70.465779,56.089854 78.921509,49.880824 89.039479,44.840949 c 5.339075,-2.65946 13.823271,-5.958035 15.324521,-5.958035 0.45811,0 1.97046,1.151882 3.36084,2.559737 l 2.52794,2.559737 -6.14564,2.034188 C 79.821609,54.075016 60.381314,71.49162 49.88122,94.617722 40.830808,114.55091 39.323196,137.37294 45.672239,158.3326 c 9.569107,31.58984 36.07098,55.8128 68.175681,62.31329 7.29706,1.47748 17.28279,2.29323 22.84088,1.86591 l 4.15488,-0.31946 0.83077,-1.84229 c 0.81209,-1.80091 0.79699,-2.00736 -0.67148,-9.18504 -0.82623,-4.03851 -2.17673,-9.86978 -3.0011,-12.9584 -1.39969,-5.24414 -1.61596,-5.69684 -3.26912,-6.84246 -2.48219,-1.72016 -3.14348,-1.58025 -3.84634,0.81393 -0.3295,1.12242 -1.25832,3.07922 -2.06402,4.34847 -1.68199,2.64968 -4.73654,5.23983 -5.05448,4.286 -0.13992,-0.41976 -0.62871,-0.2465 -1.59256,0.56452 -1.87434,1.57714 -6.40961,3.2202 -8.54865,3.09702 -0.9571,-0.0551 -2.24649,0.17224 -2.86531,0.50515 -1.16608,0.62734 -3.43777,0.33822 -3.95815,-0.50377 -0.38073,-0.61604 -2.88149,-0.64481 -6.32112,-0.0728 -2.969352,0.4939 -3.537603,0.35563 -2.697737,-0.65635 0.934698,-1.12626 -4.301337,-0.83789 -6.239317,0.34363 -0.888086,0.54143 -1.72826,0.87085 -1.867039,0.73208 -0.485956,-0.48594 3.641703,-8.35108 5.409697,-10.30804 0.981802,-1.08674 1.510399,-1.97587 1.174629,-1.97587 -0.9812,0 0.878652,-1.7834 4.580187,-4.39192 1.84867,-1.30278 3.36122,-2.62693 3.36122,-2.94258 0,-1.08363 5.96602,-2.34951 11.28404,-2.39426 5.52189,-0.0465 6.99339,0.36474 10.56576,2.95254 1.13455,0.82187 2.56828,1.49431 3.18604,1.49431 0.61779,0 2.21503,0.41485 3.54941,0.92187 l 2.42618,0.92187 -0.32147,-1.04191 c -1.53378,-4.97143 -5.46292,-13.02431 -9.09184,-18.63408 -1.18312,-1.82891 -2.15114,-3.38595 -2.15114,-3.46011 0,-0.0742 0.64834,-0.61414 1.44073,-1.19998 l 1.44073,-1.06517 2.45028,3.73585 c 2.84622,4.3395 7.36601,13.58909 9.31914,19.07125 1.34712,3.78117 1.36375,3.80199 2.11048,2.64094 0.41394,-0.64364 1.55096,-1.99991 2.52668,-3.01391 0.97571,-1.014 2.16274,-2.92461 2.63785,-4.24582 0.99919,-2.77862 3.90065,-5.97159 7.16458,-7.88439 l 2.25957,-1.32418 -0.29081,-8.43679 c -0.15988,-4.64022 -0.43247,-8.92294 -0.60559,-9.51714 -0.2932,-1.0064 -0.1675,-1.08039 1.83514,-1.08039 h 2.14989 l 0.30281,2.5209 c 0.1666,1.38651 0.30467,3.23357 0.30696,4.1046 l 0.003,1.58366 1.62481,-1.58366 c 0.89366,-0.87103 2.27034,-2.98818 3.05933,-4.70481 1.62811,-3.54236 3.88063,-5.89545 8.01888,-8.377 3.623,-2.17254 9.45769,-4.12874 9.74497,-3.26719 0.13957,0.41854 1.53249,0.61042 4.60174,0.63396 4.49584,0.0345 6.1993,0.36585 6.09393,1.18543 -0.0327,0.25378 0.54559,0.58716 1.28494,0.74085 2.97785,0.61896 10.65994,4.81567 10.69526,5.84277 0.007,0.1981 -0.85622,0.36015 -1.91786,0.36015 -1.22322,0 -2.61545,0.43256 -3.80101,1.18097 -2.15965,1.36323 -2.81158,2.18023 -1.73991,2.18023 0.41173,0 0.74861,0.17297 0.74861,0.3845 0,0.45777 -4.07057,2.49655 -4.98456,2.49655 -0.91284,0 -3.04219,2.08922 -2.8172,2.76416 0.23725,0.71175 -2.64967,2.51352 -4.03116,2.51593 -0.56596,8.7e-4 -1.14477,0.30343 -1.28623,0.67209 -0.38641,1.00697 -5.00618,2.39221 -8.08192,2.42335 -1.49291,0.0145 -2.61457,0.18954 -2.49257,0.38761 0.12196,0.19808 -0.81728,0.35801 -2.08733,0.35543 -2.47809,-0.006 -6.42999,-1.57971 -9.12685,-3.63671 -1.48056,-1.12927 -1.56232,-1.14018 -2.02779,-0.27042 -0.47304,0.88385 -1.50744,6.41617 -1.25101,6.6908 0.071,0.0759 0.66743,-0.10739 1.3257,-0.4073 0.88436,-0.40292 2.08423,-0.40762 4.59563,-0.0181 1.86932,0.29004 4.73098,0.52733 6.35925,0.52733 2.34197,0 2.90653,0.14066 2.7022,0.67305 -0.17749,0.4627 0.22524,0.76376 1.28876,0.96328 2.06896,0.38814 7.87657,3.26345 9.67066,4.78789 l 1.44052,1.22401 -1.5844,0.0181 c -2.65979,0.0291 -6.99596,2.64769 -5.74959,3.47228 0.81248,0.53753 -0.4831,1.53064 -3.42828,2.62788 -2.31588,0.86278 -5.02517,3.0266 -3.82843,3.05765 0.68287,0.0181 -1.89877,2.3769 -2.60573,2.38122 -0.21473,8.7e-4 -1.83529,0.70217 -3.6013,1.55747 -2.75781,1.33564 -3.72976,1.55584 -6.88777,1.56054 -2.88461,0.003 -3.57028,0.13485 -3.18236,0.60569 0.35891,0.43569 0.28596,0.60023 -0.26607,0.60023 -0.49489,0 -0.93814,0.71284 -1.26899,2.04074 -0.27964,1.12239 -1.90854,6.38915 -3.61979,11.70389 -2.94724,9.15344 -3.61279,12.29831 -2.71949,12.8504 0.67197,0.41531 7.27636,-1.14385 13.29302,-3.13816 6.9788,-2.31323 14.99209,-6.16878 20.99419,-10.10126 17.06566,-11.18105 30.0393,-28.05967 36.35754,-47.30088 7.38243,-22.48201 5.80538,-46.63961 -4.43211,-67.892091 -6.95899,-14.446531 -17.73243,-26.832926 -31.31183,-35.999723 -5.68673,-3.838834 -14.8008,-8.248026 -21.86946,-10.579963 l -6.24444,-2.060025 2.29273,-2.329456 c 1.26097,-1.281203 2.74709,-2.443909 3.30243,-2.583797 2.29746,-0.578702 17.34634,6.122147 25.11417,11.182666 6.15366,4.008927 9.35923,6.576535 14.8637,11.905617 13.40849,12.981219 22.55038,28.875182 26.93648,46.831252 2.0523,8.40179 2.64735,13.74004 2.6228,23.52845 -0.0397,15.81552 -3.21735,29.19018 -10.29359,43.32521 -4.51044,9.00978 -9.55274,16.06708 -17.01515,23.81485 -14.84028,15.4077 -34.06164,25.36791 -55.27642,28.6434 -4.67784,0.72225 -18.50309,1.31534 -21.81389,0.93578 z m 23.39882,-26.37391 c 3.02518,-8.97715 3.02325,-8.49058 0.0392,-9.87297 -1.39025,-0.64404 -3.22833,-1.78163 -4.0846,-2.52796 l -1.55687,-1.35693 -0.97366,1.59703 c -1.1393,1.86868 -1.22403,3.40893 -0.3289,5.97825 0.35659,1.02357 1.36343,4.73983 2.23742,8.25835 1.82858,7.36152 1.42686,7.54018 4.66731,-2.07577 z m -40.44495,-37.0683 c -3.513,-0.46622 -9.225968,-2.80463 -12.803446,-5.24062 -5.139314,-3.49948 -5.946314,-3.86336 -9.459206,-4.2653 -3.004971,-0.3438 -9.323524,-2.35972 -12.473011,-3.97948 -2.992177,-1.53886 -3.480874,-3.98528 -2.407966,-12.05443 0.471001,-3.54241 0.436557,-4.52545 -0.240084,-6.85073 -1.586085,-5.45055 -0.7076,-8.71504 3.45523,-12.83967 2.870656,-2.84433 6.997354,-5.00823 11.84055,-6.20881 2.112766,-0.52374 3.924489,-0.87199 4.026047,-0.77388 0.101632,0.0981 -0.08965,0.84084 -0.425123,1.65056 -0.803423,1.93964 -2.671061,3.36034 -4.41751,3.36034 -2.157847,0 -3.26315,0.83435 -4.344876,3.27975 -3.826399,8.65021 -2.801293,16.36781 3.140593,23.64423 1.560006,1.91038 3.259942,3.23464 6.364166,4.95776 2.329584,1.29314 5.006296,3.13104 5.948305,4.08425 0.941985,0.95322 2.82884,2.44492 4.193021,3.31491 1.36416,0.86998 3.11521,2.32508 3.89118,3.23355 1.39994,1.63893 4.10196,3.10195 5.72887,3.10195 0.54425,0 0.16352,-0.45969 -1.06498,-1.28569 -1.05166,-0.70715 -3.15037,-2.39866 -4.66379,-3.75893 -1.51343,-1.36026 -3.93276,-3.05152 -5.376266,-3.75833 -2.358595,-1.15488 -4.116443,-2.77266 -4.116443,-3.78838 0,-0.20533 0.70224,-0.38198 1.560561,-0.39255 l 1.56055,-0.0192 -1.44051,-0.75444 c -2.131077,-1.11612 -6.363089,-5.33517 -8.229311,-8.20413 -1.751108,-2.692 -2.591977,-5.40819 -1.67425,-5.40819 0.297104,0 0.540201,0.19944 0.540201,0.44323 0,0.82458 3.087928,3.53766 5.031152,4.42041 1.441445,0.65479 3.121574,0.88002 6.623566,0.88789 4.17017,0.009 5.03579,-0.14519 7.78025,-1.38963 3.63705,-1.64912 7.35193,-4.95514 8.94741,-7.96266 1.32083,-2.48978 1.57433,-2.63292 3.66913,-2.07174 1.33738,0.35827 1.56057,0.63207 1.56057,1.9145 0,1.93068 -2.8571,7.86549 -5.05036,10.49064 -3.23063,3.86681 -4.7997,4.7915 -8.13057,4.7915 -2.65604,0 -3.10664,0.14754 -4.32089,1.41496 -0.7456,0.77824 -2.02847,1.51494 -2.85083,1.6371 -0.82235,0.12213 0.88165,0.1606 3.7867,0.0855 3.69454,-0.0957 5.85289,-0.38553 7.18186,-0.96476 1.12866,-0.49192 3.99126,-2.95279 7.05159,-6.06205 2.83339,-2.87867 5.47893,-5.23395 5.87898,-5.23395 0.40004,0 0.92846,0.35937 1.17427,0.7986 0.47875,0.85547 0.60908,0.61797 4.18743,-7.62994 l 1.60966,-3.71022 -1.04421,-0.73136 c -0.57432,-0.40228 -1.18199,-0.7314 -1.35036,-0.7314 -0.16842,0 -0.42485,1.14999 -0.5699,2.55553 -0.31773,3.07847 -2.87096,8.96863 -3.88767,8.96863 -0.39383,0 -1.03184,-0.31579 -1.41776,-0.70171 -0.61548,-0.61548 -0.56071,-1.09016 0.44586,-3.86323 1.72253,-4.74548 1.44451,-7.12053 -1.58986,-13.58265 -1.46883,-3.12808 -5.77745,-7.86353 -8.73877,-9.60441 -3.16507,-1.86069 -7.63585,-1.82984 -12.29234,0.085 -5.927277,2.43718 -7.207775,3.08325 -8.129199,4.10141 -1.537774,1.69922 -1.784717,1.10461 -0.551742,-1.32855 0.64831,-1.27941 2.15643,-3.33215 3.351375,-4.56166 2.387082,-2.45613 2.288288,-2.88674 -0.241459,-1.05239 -3.822145,2.7715 -6.481175,4.05019 -9.509309,4.5729 -3.15865,0.54522 -5.044727,1.41929 -6.152043,2.85105 -0.510983,0.66073 -0.58686,0.61974 -0.600217,-0.32404 -0.02196,-1.55755 1.417759,-2.77169 4.71058,-3.97229 3.963024,-1.445 4.689499,-2.24156 5.101828,-5.594 0.308956,-2.51183 0.576189,-3.02289 2.61159,-4.99442 1.888036,-1.828756 2.744362,-2.287389 5.117748,-2.740999 3.569788,-0.682267 11.042468,-1.242252 17.051438,-1.277793 4.26135,-0.02525 4.74708,0.07171 6.64008,1.325044 2.16271,1.431875 3.64368,3.968998 4.18577,7.170828 0.16769,0.99035 0.43929,1.79277 0.60361,1.78315 0.71119,-0.0417 2.98744,-3.67373 3.42577,-5.46631 1.03862,-4.247332 2.30169,-5.934237 5.69353,-7.604041 2.98722,-1.470607 3.43915,-1.5536 8.21427,-1.508558 4.04938,0.03811 5.75439,0.286941 8.58344,1.252246 l 3.53033,1.204575 -1.36954,0.964981 c -2.35533,1.659562 -3.45337,1.771344 -5.94343,0.605069 l -2.28656,-1.07097 -2.30038,1.582711 c -5.26178,3.620197 -8.4531,8.296827 -9.32737,13.668547 l -0.46244,2.84137 2.51281,2.5196 2.51282,2.51961 0.48017,-3.18725 c 0.52002,-3.45176 1.68061,-4.77795 1.68061,-1.92041 0,5.32883 6.63272,11.24263 13.58334,12.11107 3.20656,0.40062 8.01982,-0.46651 11.01544,-1.98452 l 2.33128,-1.18134 1.39851,0.99584 c 1.12264,0.79939 1.3246,1.20555 1.02386,2.05904 -0.53028,1.50502 -6.46493,5.38175 -10.03556,6.55563 -4.17368,1.37214 -6.05951,1.27787 -8.73094,-0.43638 -2.02783,-1.30126 -2.37651,-1.3791 -3.97711,-0.88785 -1.46004,0.44811 -1.98039,0.40128 -3.10124,-0.27894 -1.10581,-0.67112 -1.04608,-0.5518 0.3338,0.66686 4.33493,3.82841 10.30351,5.16929 15.48116,3.47788 1.65302,-0.54001 4.45171,-1.25526 6.21932,-1.58946 2.81992,-0.53318 3.15904,-0.71001 2.76681,-1.44288 -0.36138,-0.67527 0.0919,-1.30203 2.36654,-3.27264 4.21047,-3.64757 5.05875,-5.90053 5.08048,-13.49322 0.0163,-5.59273 -0.0748,-6.19859 -1.33103,-8.88178 -1.50866,-3.22228 -2.80643,-4.79789 -4.81045,-5.84028 -2.09263,-1.088522 -11.31231,-2.69548 -13.64846,-2.378896 -1.12242,0.152081 -2.04073,0.09998 -2.04073,-0.115969 0,-0.633304 4.90314,-2.931056 7.22655,-3.386554 2.63105,-0.515831 1.96558,-0.642256 -3.86535,-0.734342 -3.67348,-0.05804 -5.01976,-0.288864 -6.91449,-1.185681 -1.75597,-0.831155 -2.88867,-1.053267 -4.46504,-0.875581 -2.08177,0.234647 -2.09974,0.224337 -1.2492,-0.715505 0.89609,-0.990177 1.26018,-0.994186 7.67204,-0.08445 1.93721,0.274859 2.09338,0.194149 4.56751,-2.360286 4.35668,-4.498105 6.33953,-4.370123 17.4494,1.12624 7.5206,3.720664 10.28491,5.724258 11.69337,8.475403 0.87067,1.700702 0.62023,5.020481 -0.66348,8.794721 -0.66025,1.94119 -1.20043,4.34314 -1.20043,5.33767 0,2.10347 -0.93564,3.07932 -1.00954,1.05297 -0.0314,-0.86245 -0.2665,-0.3563 -0.65178,1.40359 -1.76698,8.07161 -6.37832,15.01467 -11.66349,17.56109 -0.91114,0.43899 -1.56056,1.11452 -1.56056,1.62329 0,0.47928 0.0994,0.87142 0.22086,0.87142 0.71011,0 10.51675,-7.05893 11.25915,-8.10445 0.99909,-1.40698 3.43983,-9.75927 3.76809,-12.8945 0.18531,-1.76993 0.32269,-1.97329 1.06482,-1.57613 0.90122,0.48233 2.99179,5.10667 3.85623,8.53001 0.95763,3.79241 -0.51747,6.96117 -4.22554,9.07722 -3.52657,2.01248 -3.85434,2.43125 -4.20829,5.37663 -0.35042,2.91601 -1.10194,4.15086 -2.78299,4.57278 -0.58334,0.14645 -1.74373,1.23532 -2.57862,2.4198 -1.96849,2.79273 -4.90736,4.91591 -11.40974,8.24292 -4.99289,2.55469 -5.43107,2.68912 -8.16293,2.50436 -5.1773,-0.35016 -13.11094,-5.11756 -17.0819,-10.26467 -2.40627,-3.11895 -3.33123,-2.89791 -3.33123,0.7961 0,3.23488 -1.74571,7.70456 -5.3368,13.6642 -3.77409,6.26333 -5.95845,8.09516 -10.53928,8.83841 -2.98195,0.48381 -8.75324,0.56924 -11.73385,0.17368 z m 19.18597,-17.4951 c -0.96447,-2.47381 -1.86709,-4.60589 -2.00583,-4.73795 -0.13866,-0.13211 -0.0987,1.23453 0.089,3.03681 0.25481,2.44674 0.72597,3.8977 1.85978,5.72729 2.21637,3.57646 2.24459,1.58478 0.057,-4.02615 z m 39.44858,-7.28358 c 0.36977,-2.11812 0.59991,-3.92354 0.51139,-4.01207 -0.0885,-0.0885 -0.65288,0.36273 -1.25416,1.00276 -0.92248,0.98194 -1.12634,1.82539 -1.30513,5.40006 -0.20673,4.13249 -0.19245,4.20233 0.58182,2.84838 0.43658,-0.7634 1.09631,-3.12101 1.46608,-5.23913 z m -21.58736,3.90777 c -0.39771,-0.61712 -0.85726,-1.98635 -1.02126,-3.04274 -0.16406,-1.05638 -0.71331,-2.785 -1.22072,-3.84139 -1.81118,-3.7707 -3.83407,-8.81673 -3.83407,-9.56389 0,-0.84772 0.74246,-1.02068 1.20043,-0.27965 0.69145,1.11878 1.0938,0.36453 0.44825,-0.8403 -0.38913,-0.72626 -0.94311,-1.9687 -1.23104,-2.76098 l -0.52353,-1.44052 -0.69514,1.92068 c -0.61738,1.70578 -0.60617,2.26993 0.1,5.04183 0.43736,1.71661 1.31493,4.22455 1.95016,5.5732 0.63524,1.34865 1.34201,3.45316 1.57059,4.67672 0.40841,2.18608 0.7544,2.8402 2.64133,4.99366 1.18167,1.3486 1.58219,1.06424 0.61495,-0.43662 z m -22.82296,-37.07207 c -0.58776,-0.62562 -2.19197,-1.75428 -3.56496,-2.50814 -2.27719,-1.25033 -2.95999,-1.37832 -7.77824,-1.45818 l -5.28191,-0.0875 4.56167,0.37218 c 4.90852,0.40049 8.94905,1.69826 11.31881,3.63546 1.80207,1.47313 2.10268,1.49179 0.74463,0.0463 z m 59.23012,-4.64793 c -0.8407,-1.62577 -3.62799,-4.456913 -5.26982,-5.352749 -0.52819,-0.288191 0.2457,0.749512 1.71976,2.306019 1.47406,1.55648 2.9501,3.33468 3.28009,3.95151 0.32996,0.61684 0.70642,1.01505 0.83654,0.88493 0.13012,-0.13013 -0.12486,-0.9355 -0.56657,-1.78971 z m -76.70552,1.17377 c -0.15953,-0.15953 -0.57371,-0.17658 -0.92033,-0.0379 -0.38304,0.15335 -0.26928,0.26707 0.29011,0.2901 0.50617,0.0208 0.78977,-0.0927 0.63022,-0.25219 z m -9.2335,36.11776 c -0.79239,-0.34533 -1.682544,-0.93111 -1.978144,-1.30167 -0.843676,-1.0577 -1.740127,-4.23754 -1.425654,-5.05702 0.23796,-0.62012 0.524702,-0.54047 1.741997,0.48382 1.439375,1.21114 1.478369,1.21606 3.197443,0.40196 l 1.740333,-0.82413 -2.213798,-0.14537 c -1.726883,-0.11341 -2.28156,-0.35897 -2.522024,-1.11656 -0.417646,-1.31591 -0.15916,-1.48009 2.769947,-1.75914 1.392317,-0.13266 3.071667,-0.57286 3.7319,-0.97832 1.91292,-1.17472 3.84137,-3.0852 3.84137,-3.80558 0,-0.46393 0.32416,-0.56485 1.08039,-0.33635 1.73855,0.52524 0.45136,-0.50375 -2.68971,-2.15015 -4.869267,-2.5523 -7.247428,-1.89604 -9.237566,2.54905 -1.282356,2.86426 -1.324332,2.90324 -1.615557,1.50016 l -0.298976,-1.44052 -0.335143,1.20044 c -0.502018,1.79817 -0.416286,5.06663 0.196763,7.50131 1.049587,4.16826 -1.605214,3.76936 -4.416508,-0.66361 -3.466958,-5.46682 -0.414324,-13.97689 6.752517,-18.82455 3.826633,-2.58832 6.66929,-3.54567 9.71107,-3.27045 5.02866,0.45497 12.2577,4.99955 15.54487,9.7724 1.61025,2.33799 1.85505,3.04846 1.86378,5.40869 0.009,2.56858 -0.0579,2.72506 -1.23253,2.86157 -1.09657,0.1274 -1.42009,-0.21623 -2.75373,-2.92523 -2.79723,-5.68196 -8.48677,-10.09936 -13.82165,-10.7312 -4.304605,-0.50982 -8.812498,2.16592 -10.514895,6.24129 -0.998191,2.38958 -0.578022,2.85169 0.509367,0.5602 0.455884,-0.96069 1.591928,-2.32872 2.524542,-3.04008 1.436895,-1.09599 2.25095,-1.31542 5.334366,-1.43783 4.31352,-0.17132 5.98155,0.6247 7.45993,3.55976 0.51712,1.02664 1.32742,2.44014 1.80066,3.14116 0.99167,1.46896 1.11822,3.3174 0.28422,4.1514 -0.99104,0.99103 -1.59404,0.63487 -1.5892,-0.93865 0.003,-0.83318 -0.2445,-1.60048 -0.549,-1.7051 -0.35299,-0.12124 -0.52702,0.38078 -0.48018,1.38531 0.0721,1.54692 0.007,1.59783 -3.52783,2.80147 -1.98071,0.67423 -4.03343,1.49324 -4.561635,1.82002 -0.828744,0.51268 -0.697131,0.55336 0.960345,0.29675 3.55513,-0.55042 8.15304,-1.55384 9.4893,-2.0709 2.00168,-0.77456 2.63116,-2.55935 1.63754,-4.643 -1.13174,-2.37329 -1.00901,-2.74307 0.62926,-1.89587 2.88618,1.49248 3.54687,4.86868 1.5286,7.81139 -0.49644,0.72385 -1.25197,1.89393 -1.67897,2.60019 -1.35703,2.24463 -9.92618,5.7119 -13.987434,5.65961 -0.802818,-0.0105 -2.107995,-0.30135 -2.900376,-0.6467 z M 153.06805,123.601 c -3.49262,-0.76543 -5.61046,-1.75293 -7.44939,-3.47345 -1.06934,-1.00046 -1.3205,-1.65469 -1.3205,-3.43964 0,-1.24203 0.33489,-2.68229 0.76718,-3.29946 l 0.76716,-1.09528 0.7934,1.55773 c 0.69025,1.3552 1.16795,1.63419 3.67443,2.14591 1.58457,0.32351 4.43576,1.25578 6.33598,2.07168 5.48122,2.3535 8.30928,1.75205 8.30928,-1.76717 0,-0.82194 0.20525,-1.62126 0.45609,-1.7763 0.72811,-0.44999 1.46462,1.42091 1.46462,3.72051 0,2.41449 -0.42807,2.90731 -4.19269,4.8271 -2.82799,1.44215 -4.9128,1.55683 -9.60556,0.52837 z m 15.85615,-0.26253 c -0.348,-0.34797 -0.44178,-1.76808 -0.26829,-4.06206 0.41972,-5.54964 -1.42062,-10.77968 -5.01664,-14.25661 -3.29144,-3.18247 -8.03508,-3.71458 -11.80441,-1.32413 -1.24013,0.78646 -2.25479,1.53278 -2.25479,1.6585 0,0.12577 1.13442,-0.29955 2.52091,-0.94506 1.38649,-0.64552 2.98917,-1.17578 3.56149,-1.17835 1.53108,-0.007 4.95981,1.61628 6.88228,3.2581 l 1.6806,1.43527 -0.13068,4.69712 c -0.13447,4.83624 -0.53134,5.97036 -2.0889,5.97036 -1.0519,0 -1.09695,-0.1804 -0.34559,-1.38344 0.32556,-0.52129 0.39766,-1.26481 0.17404,-1.79412 -0.34602,-0.81881 -0.41205,-0.7909 -0.70161,0.29652 -0.27582,1.03576 -0.57962,1.19377 -2.21473,1.15178 -3.03498,-0.0778 -9.44597,-1.58105 -10.39105,-2.43635 -0.47707,-0.43173 -0.8674,-1.18363 -0.8674,-1.67089 0,-1.17572 1.43718,-1.14693 3.71598,0.0744 2.08366,1.11678 3.93575,1.18584 6.57598,0.24524 1.03892,-0.37013 2.0653,-0.56397 2.28082,-0.43076 1.34924,0.83388 -1.55924,-4.06327 -3.34381,-5.63014 -2.00575,-1.76107 -3.74715,-1.77241 -6.15584,-0.0401 -3.04008,2.18638 -3.28313,2.29385 -2.89398,1.27976 0.31893,-0.83109 0.28341,-0.83852 -0.51862,-0.1089 -0.92751,0.84377 -2.05423,2.8693 -3.23058,5.80758 -0.97251,2.42912 -1.79604,2.06417 -2.61198,-1.15748 -0.8499,-3.35583 -0.18272,-6.01777 2.15754,-8.60815 4.42674,-4.899879 11.74762,-6.699514 19.40237,-4.769535 4.08765,1.030615 9.30744,9.460215 9.91057,16.004955 0.50625,5.49319 -1.83686,10.10325 -4.02362,7.91647 z M 117.89706,64.692201 c 0.006,-0.330119 0.33925,-2.544914 0.74367,-4.921771 0.40443,-2.376853 0.9658,-5.723721 1.24748,-7.437477 l 0.51218,-3.115929 -5.57741,-5.389395 c -3.06759,-2.964167 -5.57742,-5.59114 -5.57742,-5.837719 0,-0.246577 1.89068,-0.713658 4.20151,-1.037961 2.31083,-0.3243 5.8221,-0.832793 7.80281,-1.129985 l 3.6013,-0.540347 3.60128,-7.081712 c 1.98073,-3.894941 3.76596,-7.082089 3.9672,-7.082548 0.20122,-4.61e-4 1.94654,3.18631 3.87846,7.081712 l 3.51258,7.082548 7.88576,1.138534 c 4.33717,0.626192 7.99381,1.24174 8.12586,1.367885 0.13212,0.126148 -2.41949,2.75439 -5.67008,5.840545 l -5.91018,5.611193 1.39412,8.026321 c 0.76678,4.414479 1.24375,8.026325 1.05992,8.026325 -0.1838,0 -1.28471,-0.500525 -2.44646,-1.112273 -1.16174,-0.611746 -4.29948,-2.265653 -6.9728,-3.675346 l -4.86054,-2.563074 -7.02113,3.675348 c -3.86162,2.021437 -7.13033,3.675345 -7.26383,3.675345 -0.13338,0 -0.2389,-0.270098 -0.23428,-0.600219 z m 10.09453,-8.878297 4.29671,-2.275929 4.35386,2.326428 c 2.39461,1.279536 4.44259,2.237701 4.55102,2.129255 0.10855,-0.108456 -0.15226,-2.349505 -0.5792,-4.980133 l -0.7764,-4.782959 3.43073,-3.312085 c 1.88689,-1.821648 3.43073,-3.468247 3.43073,-3.65911 0,-0.318453 -3.03683,-0.955144 -7.95959,-1.668786 -1.91969,-0.278289 -1.99748,-0.366589 -4.03195,-4.577187 -1.14097,-2.361383 -2.24439,-4.293421 -2.45204,-4.293421 -0.20765,0 -1.30075,1.933215 -2.42911,4.296035 -2.01065,4.210308 -2.09034,4.301645 -3.99354,4.577186 -4.99317,0.722893 -7.94414,1.3512 -7.94414,1.691437 0,0.20476 1.55202,1.787188 3.44896,3.516508 l 3.44893,3.14422 -0.6002,3.991842 c -0.33011,2.195512 -0.71713,4.478018 -0.86005,5.072233 -0.14283,0.594213 -0.11851,1.08039 0.0543,1.08039 0.17277,0 2.24772,-1.024168 4.61091,-2.275924 z"
       id="path5415" /></g></svg>
