<?xml version="1.0" encoding="UTF-8" standalone="no"?>
<!-- Created with Inkscape (http://www.inkscape.org/) -->

<svg
   width="1000"
   height="1000"
   viewBox="0 0 264.58333 264.58333"
   version="1.1"
   id="svg5"
   inkscape:version="1.2.2 (b0a8486541, 2022-12-01)"
   sodipodi:docname="lvt.svg"
   xml:space="preserve"
   xmlns:inkscape="http://www.inkscape.org/namespaces/inkscape"
   xmlns:sodipodi="http://sodipodi.sourceforge.net/DTD/sodipodi-0.dtd"
   xmlns="http://www.w3.org/2000/svg"
   xmlns:svg="http://www.w3.org/2000/svg"><sodipodi:namedview
     id="namedview7"
     pagecolor="#ffffff"
     bordercolor="#000000"
     borderopacity="0.25"
     inkscape:showpageshadow="2"
     inkscape:pageopacity="0.0"
     inkscape:pagecheckerboard="0"
     inkscape:deskcolor="#d1d1d1"
     inkscape:document-units="px"
     showgrid="false"
     inkscape:zoom="0.52787981"
     inkscape:cx="-30.30993"
     inkscape:cy="526.63503"
     inkscape:window-width="1920"
     inkscape:window-height="1004"
     inkscape:window-x="0"
     inkscape:window-y="0"
     inkscape:window-maximized="1"
     inkscape:current-layer="layer1" /><defs
     id="defs2" /><g
     inkscape:label="Layer 1"
     inkscape:groupmode="layer"
     id="layer1"><circle
       style="fill:#3c783d;fill-opacity:1;stroke:#e5cc0b;stroke-width:5.29167;stroke-dasharray:none;stroke-opacity:1;paint-order:normal"
       id="path236-3"
       cx="132.29167"
       cy="132.29167"
       r="125.37917" /><path
       style="fill:#e5cc0b;fill-opacity:1;stroke-width:0.511099"
       d="M 119.53727,224.08151 C 97.498554,220.90202 75.88091,209.05194 62.050154,192.569 50.941694,179.33037 44.132244,164.91443 41.035704,148.08038 40.094785,142.96515 39.520963,129.76986 40.031945,124.99842 l 0.366305,-3.42053 h 10.944075 10.944076 l -0.32646,6.80705 c -1.033157,21.54241 6.781386,41.13483 22.141568,55.51283 9.76684,9.14229 20.617291,14.8157 33.929331,17.7407 3.42321,0.75216 6.43471,0.94582 14.53944,0.93505 11.14132,-0.0155 15.14719,-0.66279 23.8535,-3.85841 22.16558,-8.13573 38.8132,-26.99239 44.41141,-50.3045 0.54002,-2.24885 0.98349,-4.2613 0.98546,-4.47213 0.001,-0.21084 -26.87208,-0.38331 -59.72012,-0.38331 H 82.376818 l -0.585986,-3.54839 C 79.356062,125.26377 84.300823,109.0155 94.635508,97.799676 114.40794,76.34143 147.98016,75.666123 168.39508,96.316007 c 3.31528,3.353436 8.89638,10.891703 8.89638,12.016123 0,0.27179 -5.64885,0.46829 -13.46245,0.46829 h -13.46249 l -2.76491,-1.52395 c -5.42872,-2.99212 -8.79907,-3.82054 -15.54242,-3.82018 -6.64923,3.5e-4 -9.05135,0.55629 -14.77641,3.41977 -5.23533,2.61854 -10.68511,8.75049 -11.8171,13.29632 l -0.35001,1.40551 h 59.54804 59.54805 l 0.36621,5.86115 c 1.62335,25.98094 -8.83791,52.59932 -27.93298,71.07461 -6.24136,6.0388 -9.81593,8.84504 -16.34098,12.82879 -9.02595,5.51058 -19.9071,9.73008 -30.89712,11.98129 -6.68649,1.36966 -22.79552,1.77836 -29.86962,0.75778 z m 7.41094,-26.65041 c -0.84333,-0.12009 -2.51078,-0.34578 -3.70548,-0.50138 l -2.17216,-0.28288 v -23.73479 -23.7348 h 10.98862 10.98863 v 23.70651 23.70651 l -1.14996,0.30751 c -1.51167,0.40424 -12.9835,0.81349 -14.94965,0.53332 z M 67.573598,140.10525 c -0.503898,-4.10001 -0.485371,-12.6922 0.0347,-16.09963 l 0.370557,-2.42773 4.18525,3e-4 4.185251,2.8e-4 v 10.98845 10.98847 l -4.175882,-1.2e-4 -4.175893,-1e-4 -0.424008,-3.44992 z m 54.008052,-26.62742 v -3.00942 l 3.19439,-0.90711 c 4.44801,-1.26312 10.89364,-1.15984 15.35868,0.24608 l 3.47563,1.09439 -0.15356,2.6548 -0.15358,2.65478 -10.86085,0.13794 -10.86086,0.13792 z M 43.192066,107.3949 c 0.749686,-3.10684 3.468493,-10.352321 5.513841,-14.694113 7.019406,-14.900527 19.024879,-28.607189 33.010013,-37.687595 21.1063,-13.704115 46.24275,-18.286759 70.49151,-12.85136 7.72357,1.731239 13.30234,3.706166 20.73971,7.341979 21.96412,10.737332 38.60316,29.547465 46.72415,52.820809 2.49177,7.14103 3.44089,6.51814 -9.68793,6.35781 l -11.26265,-0.13755 -2.27637,-5.05469 C 191.79728,93.171334 183.38683,82.666401 174.26296,75.784922 166.5935,70.000407 153.64368,64.274407 145.45323,63.046165 l -2.40541,-0.360709 -1.3e-4,6.830095 -1.4e-4,6.83009 h -10.98859 -10.98858 l 9e-5,-6.772062 c 1e-4,-7.60614 0.26186,-7.207242 -4.08871,-6.230953 -19.599145,4.39822 -37.03726,17.607505 -46.725614,35.39442 -1.253974,2.302154 -2.785351,5.508224 -3.403055,7.124574 l -1.12311,2.93881 H 54.291447 42.852911 Z"
       id="path302" /></g></svg>
